<svg xmlns="http://www.w3.org/2000/svg" width="45" height="31" viewBox="0 0 45 31" fill="none">
  <path fill-rule="evenodd" clip-rule="evenodd" d="M15.1019 0C6.76135 0 0 6.76135 0 15.1019C0 23.4425 6.76135 30.2038 15.1019 30.2038H29.8981C38.2386 30.2038 45 23.4425 45 15.1019C45 6.76135 38.2387 0 29.8981 0H15.1019ZM27.7893 22.2308L27.819 9.95924C27.8223 8.96876 26.7463 8.34494 25.889 8.84494L15.2763 15.0064C14.2477 15.6044 14.5246 17.1637 15.7005 17.3743L21.2809 18.3773C21.51 18.4185 21.7176 18.5384 21.8679 18.7162L25.5267 23.0475C26.2949 23.9593 27.7858 23.4206 27.7893 22.2308Z" fill="#E4E4ED"/>
</svg>