<svg width="24" height="24" viewBox="0 0 24 24" fill="none" xmlns="http://www.w3.org/2000/svg">
<path d="M22.2748 7.87461C20.7748 3.82461 18.0748 0.974609 15.6748 0.974609C15.2998 0.974609 14.9998 1.04961 14.6998 1.12461C14.0248 1.34961 13.4248 1.87461 13.0498 2.54961C8.54976 7.64961 2.32476 9.97461 2.24976 9.97461C0.74976 10.4996 0.29976 12.8996 1.27476 15.5246C2.09976 17.7746 3.59976 19.1996 4.94976 19.1996C5.09976 19.1996 5.32476 19.1996 5.47476 19.1246C5.62476 19.0496 6.44976 18.8996 7.94976 18.6746L9.44976 21.8246C9.52476 21.9746 9.67476 22.1246 9.89976 22.1996L12.2998 23.0246C12.3748 23.0246 12.4498 23.0996 12.5248 23.0996C12.6748 23.0996 12.8248 23.0246 12.9748 22.9496C13.1998 22.7996 13.2748 22.4996 13.2748 22.2746L12.7498 17.9996C14.6248 17.8496 16.7248 17.7746 18.8248 17.9246H18.9748C19.2748 17.9996 19.5748 18.0746 19.8748 18.0746C20.2498 18.0746 20.5498 17.9996 20.8498 17.9246C22.1248 17.4746 23.0248 16.0496 23.2498 14.0246C23.3998 12.2246 23.0998 9.97461 22.2748 7.87461ZM10.6498 20.8496L9.52476 18.3746L11.2498 18.1496L11.6248 21.1496L10.6498 20.8496ZM16.0498 13.6496C15.5248 12.8246 14.9998 11.8496 14.5498 10.6496C14.1748 9.52461 13.8748 8.47461 13.7998 7.42461C14.0248 7.42461 14.3248 7.64961 14.6248 7.87461C15.1498 8.39961 15.6748 9.22461 15.9748 10.1246C16.5748 11.8496 16.4248 13.1996 16.0498 13.6496ZM5.09976 17.6996C5.02476 17.6996 5.02476 17.6996 5.02476 17.6996C4.49976 17.8496 3.37476 16.8746 2.62476 14.9996C1.94976 13.1246 2.24976 11.5496 2.69976 11.3996C2.92476 11.3246 7.79976 9.52461 12.2248 5.47461C12.1498 7.19961 12.4498 9.22461 13.1248 11.1746C13.9498 13.3496 15.0748 15.1496 16.3498 16.4246C10.4998 16.3496 5.32476 17.6246 5.09976 17.6996ZM21.6748 13.8746C21.5248 15.2996 20.9998 16.1996 20.2498 16.4996C20.0998 16.5746 19.9498 16.5746 19.7998 16.5746C18.9748 16.5746 17.9998 15.9746 16.9498 14.7746C17.9998 13.8746 18.2248 11.8496 17.3998 9.59961C16.9498 8.47461 16.3498 7.49961 15.6748 6.82461C15.0748 6.22461 14.3998 5.92461 13.7248 5.92461C13.7248 5.62461 13.7248 5.39961 13.7998 5.17461C13.9498 3.74961 14.4748 2.84961 15.2248 2.54961C15.3748 2.47461 15.5248 2.47461 15.6748 2.47461C17.1748 2.47461 19.4998 4.72461 20.8498 8.39961C21.5998 10.2746 21.8998 12.2996 21.6748 13.8746Z" fill="#59B2FF"/>
</svg>
