<svg xmlns="http://www.w3.org/2000/svg" width="32" height="32" viewBox="0 0 32 32" fill="none">
  <path d="M26.7496 20.9416C25.8649 19.6725 25.4228 18.2427 25.4228 16.6534C25.4228 15.2047 25.84 13.8774 26.6726 12.6725C27.1214 12.0187 27.8523 11.2625 28.8652 10.4033C28.1986 9.58306 27.532 8.94204 26.8649 8.48038C25.6598 7.64719 24.2943 7.23059 22.7688 7.23059C21.8588 7.23059 20.7496 7.44842 19.4422 7.88462C18.1857 8.32048 17.269 8.53864 16.6923 8.53864C16.2562 8.53864 15.3717 8.34648 14.0384 7.96167C12.6923 7.577 11.5576 7.38484 10.6346 7.38484C8.42949 7.38484 6.609 8.30802 5.17317 10.154C3.72448 12.0258 3 14.4231 3 17.3462C3 20.4488 3.94251 23.6729 5.827 27.019C7.73708 30.3395 9.66662 31.9999 11.6153 31.9999C12.2691 31.9999 13.1153 31.7819 14.1536 31.346C15.1922 30.9233 16.1024 30.7115 16.8846 30.7115C17.7176 30.7115 18.6857 30.9166 19.7882 31.3266C20.9547 31.7365 21.8524 31.9417 22.4805 31.9417C24.1214 31.9417 25.7691 30.6852 27.4227 28.1725C28.4993 26.57 29.2879 24.9676 29.7879 23.3649C28.6469 23.0185 27.6342 22.2108 26.7496 20.9416Z" fill="white"/>
  <path d="M20.2117 6.07679C21.0196 5.26912 21.6157 4.3844 22.0004 3.42303C22.372 2.46152 22.5575 1.5896 22.5575 0.807463C22.5575 0.75634 22.5547 0.69215 22.5478 0.615162C22.542 0.538241 22.5386 0.474321 22.5386 0.422995C22.5256 0.384468 22.5097 0.313946 22.4906 0.211498C22.4715 0.109049 22.4555 0.0385276 22.4424 0C20.186 0.525915 18.5836 1.47456 17.6348 2.84639C16.6735 4.23103 16.1733 5.87829 16.1348 7.7885C16.9938 7.71151 17.6601 7.60273 18.1347 7.46162C18.8275 7.23079 19.519 6.76907 20.2117 6.07679Z" fill="white"/>
</svg>