<svg width="18" height="19" viewBox="0 0 18 19" fill="none" xmlns="http://www.w3.org/2000/svg">
<g clip-path="url(#clip0_807_21869)">
<path fill-rule="evenodd" clip-rule="evenodd" d="M4.71967 2.21967C5.01256 1.92678 5.48744 1.92678 5.78033 2.21967L8.78033 5.21967C9.07322 5.51256 9.07322 5.98744 8.78033 6.28033C8.48744 6.57322 8.01256 6.57322 7.71967 6.28033L6 4.56066V14.75C6 15.1642 5.66421 15.5 5.25 15.5C4.83579 15.5 4.5 15.1642 4.5 14.75V4.56066L2.78033 6.28033C2.48744 6.57322 2.01256 6.57322 1.71967 6.28033C1.42678 5.98744 1.42678 5.51256 1.71967 5.21967L4.71967 2.21967ZM12.75 3.5C13.1642 3.5 13.5 3.83579 13.5 4.25L13.5 14.4393L15.2197 12.7197C15.5126 12.4268 15.9874 12.4268 16.2803 12.7197C16.5732 13.0126 16.5732 13.4874 16.2803 13.7803L13.2803 16.7803C13.1397 16.921 12.9489 17 12.75 17C12.5511 17 12.3603 16.921 12.2197 16.7803L9.21967 13.7803C8.92678 13.4874 8.92678 13.0126 9.21967 12.7197C9.51256 12.4268 9.98744 12.4268 10.2803 12.7197L12 14.4393L12 4.25C12 3.83579 12.3358 3.5 12.75 3.5Z" fill="#D3D3DE"/>
</g>
<defs>
<clipPath id="clip0_807_21869">
<rect width="15" height="15" fill="white" transform="translate(1.5 2)"/>
</clipPath>
</defs>
</svg>
