<svg width="36" height="36" viewBox="0 0 36 36" fill="none" xmlns="http://www.w3.org/2000/svg">
<rect width="36" height="36" rx="18" fill="#73DEA1"/>
<path fill-rule="evenodd" clip-rule="evenodd" d="M18 9C18.2652 9 18.5196 9.10536 18.7071 9.29289L24.7071 15.2929C25.0976 15.6834 25.0976 16.3166 24.7071 16.7071C24.3166 17.0976 23.6834 17.0976 23.2929 16.7071L19 12.4142L19 26C19 26.5523 18.5523 27 18 27C17.4477 27 17 26.5523 17 26L17 12.4142L12.7071 16.7071C12.3166 17.0976 11.6834 17.0976 11.2929 16.7071C10.9024 16.3166 10.9024 15.6834 11.2929 15.2929L17.2929 9.29289C17.4804 9.10536 17.7348 9 18 9Z" fill="#021F0F"/>
</svg>
