<svg width="14" height="14" viewBox="0 0 14 14" fill="none" xmlns="http://www.w3.org/2000/svg">
<g id="Live area">
<path id="Vector" fill-rule="evenodd" clip-rule="evenodd" d="M7.86193 2.52876C8.12228 2.26841 8.54439 2.26841 8.80474 2.52876L12.8047 6.52876C12.9298 6.65378 13 6.82335 13 7.00016C13 7.17697 12.9298 7.34654 12.8047 7.47157L8.80474 11.4716C8.54439 11.7319 8.12228 11.7319 7.86193 11.4716C7.60158 11.2112 7.60158 10.7891 7.86193 10.5288L10.7239 7.66683L1.66667 7.66683C1.29848 7.66683 1 7.36835 1 7.00016C1 6.63197 1.29848 6.3335 1.66667 6.3335L10.7239 6.3335L7.86193 3.47157C7.60158 3.21122 7.60158 2.78911 7.86193 2.52876Z" fill="#9D9DA8"/>
</g>
</svg>
