<svg xmlns="http://www.w3.org/2000/svg" width="20" height="20" viewBox="0 0 20 20" fill="none">
  <g clip-path="url(#clip0_1469_17723)">
    <path fill-rule="evenodd" clip-rule="evenodd" d="M4.29289 2.29289C4.68342 1.90237 5.31658 1.90237 5.70711 2.29289L9.70711 6.29289C10.0976 6.68342 10.0976 7.31658 9.70711 7.70711C9.31658 8.09763 8.68342 8.09763 8.29289 7.70711L6 5.41421L6 17C6 17.5523 5.55228 18 5 18C4.44771 18 4 17.5523 4 17L4 5.41421L1.70711 7.70711C1.31658 8.09763 0.683417 8.09763 0.292893 7.70711C-0.0976311 7.31658 -0.097631 6.68342 0.292893 6.29289L4.29289 2.29289Z" fill="#D3D3DE"/>
    <path fill-rule="evenodd" clip-rule="evenodd" d="M14.2929 17.7071C14.6834 18.0976 15.3166 18.0976 15.7071 17.7071L19.7071 13.7071C20.0976 13.3166 20.0976 12.6834 19.7071 12.2929C19.3166 11.9024 18.6834 11.9024 18.2929 12.2929L16 14.5858L16 3C16 2.44771 15.5523 2 15 2C14.4477 2 14 2.44772 14 3L14 14.5858L11.7071 12.2929C11.3166 11.9024 10.6834 11.9024 10.2929 12.2929C9.90237 12.6834 9.90237 13.3166 10.2929 13.7071L14.2929 17.7071Z" fill="#D3D3DE"/>
  </g>
  <defs>
    <clipPath id="clip0_1469_17723">
      <rect width="20" height="20" fill="white"/>
    </clipPath>
  </defs>
</svg>