<svg width="47" height="47" viewBox="0 0 47 47" fill="none" xmlns="http://www.w3.org/2000/svg">
<g clip-path="url(#clip0_259_13739)">
<path fill-rule="evenodd" clip-rule="evenodd" d="M16.8265 8.13722C23.5895 2.32264 32.4216 6.04813 33.7446 12.0991C34.9666 12.1713 36.648 12.334 38.0992 12.6128C38.8924 12.7651 39.6391 12.9561 40.209 13.1957C40.4931 13.3152 40.7542 13.4552 40.9581 13.6234C41.1599 13.7898 41.3446 14.0169 41.3915 14.3136C41.4457 14.6568 41.3216 14.9533 41.1191 15.1823C40.927 15.3995 40.6579 15.5664 40.3712 15.6992C39.7954 15.9659 39.0151 16.1545 38.2159 16.2902C36.7954 16.5315 35.2085 16.6223 34.3263 16.6402C34.324 16.7377 34.3212 16.8393 34.3184 16.9438L34.3184 16.9439V16.944V16.9441L34.3127 17.1582C34.3015 17.5913 34.2918 18.0698 34.2997 18.5475C34.3077 19.0262 34.3334 19.4954 34.3912 19.9097C34.4499 20.3305 34.5377 20.6631 34.6528 20.8871C34.7159 21.01 34.7763 21.1592 34.8039 21.3261C34.8226 21.4391 34.8754 21.772 34.6159 22.0332C34.3828 22.2677 34.018 22.3182 33.6171 22.3021C33.4058 22.2937 33.2801 22.3195 33.2013 22.3551C33.1331 22.3858 33.0725 22.4358 33.0129 22.5415C32.8706 22.7942 32.7814 23.2691 32.7209 24.1576C32.6395 25.3511 32.5312 25.9606 32.4519 26.2121C32.4426 26.2416 32.4326 26.2701 32.425 26.2918L32.4233 26.2966C32.4148 26.3211 32.409 26.3379 32.4043 26.3534C32.2206 26.9505 31.5708 28.038 30.1799 28.2877C29.8412 28.3485 29.5252 28.3692 29.2627 28.3864L29.262 28.3865L29.2616 28.3865C29.2021 28.3904 29.1453 28.3941 29.0916 28.3981C28.7826 28.421 28.5846 28.4519 28.4296 28.5253C28.1784 28.6443 27.8746 28.9626 27.6778 30.3404C27.5414 31.2954 27.5012 31.9643 27.5075 32.4164C27.5127 32.7894 27.5496 32.9859 27.573 33.069C28.7313 33.3903 30.4746 33.8968 32.1068 34.4184C33.7816 34.9538 35.3981 35.5229 36.1131 35.9314C36.2248 35.9953 36.343 36.0602 36.4662 36.1279L36.4662 36.1279L36.4662 36.1279C37.223 36.5438 38.1686 37.0634 38.9712 38.0724C39.9125 39.2557 40.6343 41.0685 40.8163 44.1017C41.067 48.2787 41.0319 51.3856 40.9653 52.8388C40.941 53.3692 40.5011 53.7707 39.9833 53.7707H7.12435C6.60872 53.7707 6.17303 53.3746 6.1383 52.8519C5.96809 50.2901 5.83503 45.2588 6.50233 42.2862C6.94426 40.3176 7.48959 38.8858 8.44116 37.7685C9.39438 36.6492 10.7152 35.8923 12.6093 35.1871C15.3086 34.182 17.3334 33.5732 18.2353 33.3331C18.2387 33.3211 18.2423 33.3093 18.2459 33.2977C18.4349 32.6964 18.5403 30.6397 18.1724 28.2779C17.5778 28.0312 17.0765 27.5685 16.6593 27.0006C16.0629 26.1888 15.5967 25.1092 15.2334 23.9543C14.5143 21.6679 14.165 18.976 14.0599 17.1682L13.6543 17.1956L13.7439 16.652C13.7736 16.4722 13.7925 16.222 13.8174 15.8943L13.8174 15.8942C13.8312 15.7123 13.8469 15.5065 13.8671 15.2756C13.9218 14.6523 14.0079 13.8967 14.1835 13.0873C14.5343 11.4711 15.2482 9.61323 16.8129 8.14944L16.8196 8.14319L16.8265 8.13722ZM14.931 17.1095C15.0329 18.8728 15.3745 21.4931 16.0662 23.6923C16.4162 24.8052 16.8474 25.7822 17.3628 26.4838C17.8786 27.1858 18.4371 27.5592 19.0423 27.5959L19.0259 27.8666C19.5833 30.6649 19.3434 32.7173 19.0788 33.5594C19.0583 33.6248 19.0628 33.661 19.0669 33.6747C19.1848 34.0664 19.3915 34.6435 19.597 34.9632C19.6458 35.0391 19.8247 35.2381 20.143 35.4771C20.4511 35.7084 20.8628 35.9568 21.352 36.1465C22.3244 36.5237 23.595 36.6682 24.9932 35.9963C26.1071 35.461 26.6157 34.9229 26.8288 34.5119C27.0359 34.1126 26.9795 33.8082 26.9035 33.6545L26.9024 33.6529L26.9022 33.6527L26.9021 33.6524C26.8997 33.649 26.8948 33.6419 26.886 33.6295L26.8835 33.626L26.8835 33.626C26.8668 33.6025 26.8297 33.5506 26.7997 33.4874C26.6971 33.2721 26.6415 32.921 26.6346 32.4286C26.6275 31.9176 26.6729 31.2012 26.8136 30.2169C27.0136 28.8169 27.3645 28.0638 28.0558 27.7364C28.3721 27.5866 28.7172 27.5505 29.027 27.5275C29.093 27.5226 29.1584 27.5183 29.2236 27.5139C29.4829 27.4967 29.7399 27.4797 30.0257 27.4284C30.9901 27.2553 31.4463 26.4984 31.5698 26.0967C31.58 26.0637 31.5909 26.0325 31.599 26.0092L31.5992 26.0085L31.5994 26.0082C31.6081 25.983 31.6141 25.966 31.6193 25.9495C31.6646 25.8057 31.7688 25.2873 31.8499 24.0982C31.9083 23.2406 31.9978 22.5647 32.2523 22.113C32.3911 21.8666 32.5835 21.676 32.8426 21.5592C33.0912 21.4471 33.3673 21.4184 33.652 21.4298C33.781 21.435 33.871 21.4294 33.9316 21.4206C33.9202 21.3813 33.9021 21.3364 33.8762 21.2859C33.695 20.9332 33.5904 20.4875 33.5266 20.0304C33.4619 19.5668 33.4351 19.0585 33.4268 18.5621C33.4185 18.0648 33.4287 17.5707 33.44 17.1356L33.4459 16.9145V16.9144V16.9144V16.9143C33.4551 16.5704 33.4629 16.2792 33.4604 16.0574L33.5701 16.0562C33.5468 15.7892 33.493 15.66 33.4608 15.6057L27.7453 16.2452L14.931 17.1095ZM32.9506 12.5893C32.0227 7.09545 23.8444 3.26268 17.4027 8.7932C16.0196 10.0904 15.366 11.7552 15.0367 13.2725C14.8721 14.0311 14.79 14.7461 14.7368 15.3519C14.7202 15.5415 14.706 15.7264 14.6927 15.9006L14.6927 15.9009L14.6927 15.9012C14.6833 16.0243 14.6743 16.142 14.6651 16.2524L27.6674 15.3754L33.2873 14.7466C33.5328 14.6759 33.8426 14.7253 34.0818 14.9845C34.2512 15.1682 34.3595 15.4296 34.4134 15.7649C35.2794 15.7429 36.7553 15.6528 38.0698 15.4295C38.8481 15.2974 39.536 15.1239 40.0043 14.907C40.2397 14.798 40.3866 14.6927 40.4652 14.6039C40.5333 14.5269 40.5345 14.4836 40.5292 14.4498C40.5284 14.4449 40.5171 14.3913 40.4026 14.2968C40.2902 14.2041 40.1148 14.1031 39.8707 14.0005C39.3839 13.7959 38.7065 13.6184 37.9345 13.4701C36.3964 13.1747 34.5712 13.0116 33.3598 12.9526L33.009 12.9356L32.9506 12.5893ZM27.8438 34.0514C27.8326 34.3194 27.7603 34.6119 27.6038 34.9137C27.2735 35.5508 26.5854 36.1998 25.3713 36.7832C23.7139 37.5796 22.1868 37.4067 21.0363 36.9604C20.4639 36.7384 19.9828 36.4486 19.6188 36.1752C19.2649 35.9095 18.9925 35.6373 18.8627 35.4353C18.6443 35.0956 18.4523 34.6015 18.3224 34.2139C17.3954 34.4673 15.4642 35.0556 12.9139 36.0052C11.0778 36.6889 9.91845 37.3803 9.10579 38.3345C8.29149 39.2906 7.78523 40.5572 7.35414 42.4775C6.71779 45.3121 6.83881 50.2266 7.0094 52.794C7.01311 52.8498 7.06013 52.8977 7.12435 52.8977H39.9833C40.0477 52.8977 40.0908 52.85 40.0932 52.7989C40.1583 51.3793 40.1939 48.3033 39.9449 44.154C39.7697 41.2349 39.0828 39.6151 38.288 38.6159C37.6023 37.7538 36.8187 37.321 36.0636 36.9038L36.0632 36.9035C35.9344 36.8324 35.8064 36.7617 35.6799 36.6894C35.0615 36.336 33.5432 35.7941 31.841 35.25C30.4439 34.8035 28.9626 34.3676 27.8438 34.0514Z" fill="#E4E4ED"/>
</g>
<rect x="0.5" y="0.5" width="46" height="46" rx="23" stroke="#E4E4ED"/>
<defs>
<clipPath id="clip0_259_13739">
<rect width="47" height="47" rx="23.5" fill="white"/>
</clipPath>
</defs>
</svg>
