<svg xmlns="http://www.w3.org/2000/svg" width="25" height="25" viewBox="0 0 25 25" fill="none">
  <path d="M16.373 19.5854C16.373 18.3214 15.349 17.2935 14.085 17.2935C12.821 17.2935 11.793 18.3214 11.793 19.5854C11.793 20.8454 12.821 21.8734 14.085 21.8734C15.349 21.8734 16.373 20.8454 16.373 19.5854Z" fill="white"/>
  <path d="M14.8115 7.1776L14.3035 6.66959C14.1515 6.52159 13.8875 6.52159 13.7355 6.66959L3.01948 17.3896C2.69535 17.7137 2.65172 19.2098 3.01948 19.5776L5.41948 21.9776C5.73203 22.2901 7.25335 22.3472 7.60349 21.9776L18.3235 11.2576C18.4795 11.1016 18.4795 10.8496 18.3235 10.6936L17.8155 10.1856C15.1664 7.50016 16.1664 8.50016 14.8115 7.1776Z" fill="white"/>
  <path d="M19.8397 3.28149L14.8917 8.22949C14.8677 8.24949 14.8517 8.27349 14.8357 8.29749L12.6957 11.8055C12.6117 11.9455 12.6317 12.1295 12.7517 12.2455C12.8197 12.3135 12.9117 12.3495 13.0037 12.3495C13.0677 12.3495 13.1317 12.3335 13.1877 12.2975L16.6997 10.1575C16.7197 10.1415 16.7477 10.1255 16.7637 10.1055L21.7117 5.1615C21.9597 4.91751 22.0997 4.57349 22.0997 4.22148C22.0997 3.86948 21.9597 3.52949 21.7117 3.28149C21.2117 2.78149 20.3357 2.78149 19.8397 3.28149Z" fill="white"/>
</svg>