<svg width="390" height="606" viewBox="0 0 390 606" fill="none" xmlns="http://www.w3.org/2000/svg">
<g clip-path="url(#clip0_3016_10119)">
<mask id="path-1-inside-1_3016_10119" fill="white">
<path fill-rule="evenodd" clip-rule="evenodd" d="M362.714 0C345.199 0 331 14.199 331 31.7144V150.286C331 167.801 345.199 182 362.714 182H505.286C522.801 182 537 167.801 537 150.286V31.7144C537 14.199 522.801 0 505.286 0H362.714ZM362.714 212C345.199 212 331 226.199 331 243.714V362.286C331 379.801 345.199 394 362.714 394H505.286C522.801 394 537 379.801 537 362.286V243.714C537 226.199 522.801 212 505.286 212H362.714ZM331 455.714C331 438.199 345.199 424 362.714 424H505.286C522.801 424 537 438.199 537 455.714V574.286C537 591.801 522.801 606 505.286 606H362.714C345.199 606 331 591.801 331 574.286V455.714ZM-115.286 212C-132.801 212 -147 226.199 -147 243.714V362.286C-147 379.801 -132.801 394 -115.286 394H27.2856C44.801 394 59 379.801 59 362.286V243.714C59 226.199 44.801 212 27.2856 212H-115.286ZM-147 455.714C-147 438.199 -132.801 424 -115.286 424H27.2856C44.801 424 59 438.199 59 455.714V574.286C59 591.801 44.801 606 27.2856 606H-115.286C-132.801 606 -147 591.801 -147 574.286V455.714ZM-115.286 0C-132.801 0 -147 14.199 -147 31.7144V150.286C-147 167.801 -132.801 182 -115.286 182H27.2856C44.801 182 59 167.801 59 150.286V31.7144C59 14.199 44.801 0 27.2856 0H-115.286ZM89 31.7144C89 14.199 103.199 0 120.714 0H263.286C280.801 0 295 14.199 295 31.7144V150.286C295 167.801 280.801 182 263.286 182H120.714C103.199 182 89 167.801 89 150.286V31.7144ZM120.714 424C103.199 424 89 438.199 89 455.714V574.286C89 591.801 103.199 606 120.714 606H263.286C280.801 606 295 591.801 295 574.286V455.714C295 438.199 280.801 424 263.286 424H120.714Z"/>
</mask>
<path fill-rule="evenodd" clip-rule="evenodd" d="M362.714 0C345.199 0 331 14.199 331 31.7144V150.286C331 167.801 345.199 182 362.714 182H505.286C522.801 182 537 167.801 537 150.286V31.7144C537 14.199 522.801 0 505.286 0H362.714ZM362.714 212C345.199 212 331 226.199 331 243.714V362.286C331 379.801 345.199 394 362.714 394H505.286C522.801 394 537 379.801 537 362.286V243.714C537 226.199 522.801 212 505.286 212H362.714ZM331 455.714C331 438.199 345.199 424 362.714 424H505.286C522.801 424 537 438.199 537 455.714V574.286C537 591.801 522.801 606 505.286 606H362.714C345.199 606 331 591.801 331 574.286V455.714ZM-115.286 212C-132.801 212 -147 226.199 -147 243.714V362.286C-147 379.801 -132.801 394 -115.286 394H27.2856C44.801 394 59 379.801 59 362.286V243.714C59 226.199 44.801 212 27.2856 212H-115.286ZM-147 455.714C-147 438.199 -132.801 424 -115.286 424H27.2856C44.801 424 59 438.199 59 455.714V574.286C59 591.801 44.801 606 27.2856 606H-115.286C-132.801 606 -147 591.801 -147 574.286V455.714ZM-115.286 0C-132.801 0 -147 14.199 -147 31.7144V150.286C-147 167.801 -132.801 182 -115.286 182H27.2856C44.801 182 59 167.801 59 150.286V31.7144C59 14.199 44.801 0 27.2856 0H-115.286ZM89 31.7144C89 14.199 103.199 0 120.714 0H263.286C280.801 0 295 14.199 295 31.7144V150.286C295 167.801 280.801 182 263.286 182H120.714C103.199 182 89 167.801 89 150.286V31.7144ZM120.714 424C103.199 424 89 438.199 89 455.714V574.286C89 591.801 103.199 606 120.714 606H263.286C280.801 606 295 591.801 295 574.286V455.714C295 438.199 280.801 424 263.286 424H120.714Z" fill="url(#paint0_radial_3016_10119)"/>
<path d="M332 31.7144C332 14.7513 345.751 1 362.714 1V-1C344.647 -1 330 13.6468 330 31.7144H332ZM332 150.286V31.7144H330V150.286H332ZM362.714 181C345.751 181 332 167.249 332 150.286H330C330 168.353 344.647 183 362.714 183V181ZM505.286 181H362.714V183H505.286V181ZM536 150.286C536 167.249 522.249 181 505.286 181V183C523.353 183 538 168.353 538 150.286H536ZM536 31.7144V150.286H538V31.7144H536ZM505.286 1C522.249 1 536 14.7513 536 31.7144H538C538 13.6468 523.353 -1 505.286 -1V1ZM362.714 1H505.286V-1H362.714V1ZM332 243.714C332 226.751 345.751 213 362.714 213V211C344.647 211 330 225.647 330 243.714H332ZM332 362.286V243.714H330V362.286H332ZM362.714 393C345.751 393 332 379.249 332 362.286H330C330 380.353 344.647 395 362.714 395V393ZM505.286 393H362.714V395H505.286V393ZM536 362.286C536 379.249 522.249 393 505.286 393V395C523.353 395 538 380.353 538 362.286H536ZM536 243.714V362.286H538V243.714H536ZM505.286 213C522.249 213 536 226.751 536 243.714H538C538 225.647 523.353 211 505.286 211V213ZM362.714 213H505.286V211H362.714V213ZM362.714 423C344.647 423 330 437.647 330 455.714H332C332 438.751 345.751 425 362.714 425V423ZM505.286 423H362.714V425H505.286V423ZM538 455.714C538 437.647 523.353 423 505.286 423V425C522.249 425 536 438.751 536 455.714H538ZM538 574.286V455.714H536V574.286H538ZM505.286 607C523.353 607 538 592.353 538 574.286H536C536 591.249 522.249 605 505.286 605V607ZM362.714 607H505.286V605H362.714V607ZM330 574.286C330 592.353 344.647 607 362.714 607V605C345.751 605 332 591.249 332 574.286H330ZM330 455.714V574.286H332V455.714H330ZM-146 243.714C-146 226.751 -132.249 213 -115.286 213V211C-133.353 211 -148 225.647 -148 243.714H-146ZM-146 362.286V243.714H-148V362.286H-146ZM-115.286 393C-132.249 393 -146 379.249 -146 362.286H-148C-148 380.353 -133.353 395 -115.286 395V393ZM27.2856 393H-115.286V395H27.2856V393ZM58 362.286C58 379.249 44.2487 393 27.2856 393V395C45.3532 395 60 380.353 60 362.286H58ZM58 243.714V362.286H60V243.714H58ZM27.2856 213C44.2487 213 58 226.751 58 243.714H60C60 225.647 45.3532 211 27.2856 211V213ZM-115.286 213H27.2856V211H-115.286V213ZM-115.286 423C-133.353 423 -148 437.647 -148 455.714H-146C-146 438.751 -132.249 425 -115.286 425V423ZM27.2856 423H-115.286V425H27.2856V423ZM60 455.714C60 437.647 45.3532 423 27.2856 423V425C44.2487 425 58 438.751 58 455.714H60ZM60 574.286V455.714H58V574.286H60ZM27.2856 607C45.3532 607 60 592.353 60 574.286H58C58 591.249 44.2487 605 27.2856 605V607ZM-115.286 607H27.2856V605H-115.286V607ZM-148 574.286C-148 592.353 -133.353 607 -115.286 607V605C-132.249 605 -146 591.249 -146 574.286H-148ZM-148 455.714V574.286H-146V455.714H-148ZM-146 31.7144C-146 14.7513 -132.249 1 -115.286 1V-1C-133.353 -1 -148 13.6468 -148 31.7144H-146ZM-146 150.286V31.7144H-148V150.286H-146ZM-115.286 181C-132.249 181 -146 167.249 -146 150.286H-148C-148 168.353 -133.353 183 -115.286 183V181ZM27.2856 181H-115.286V183H27.2856V181ZM58 150.286C58 167.249 44.2487 181 27.2856 181V183C45.3532 183 60 168.353 60 150.286H58ZM58 31.7144V150.286H60V31.7144H58ZM27.2856 1C44.2487 1 58 14.7513 58 31.7144H60C60 13.6468 45.3532 -1 27.2856 -1V1ZM-115.286 1H27.2856V-1H-115.286V1ZM120.714 -1C102.647 -1 88 13.6468 88 31.7144H90C90 14.7513 103.751 1 120.714 1V-1ZM263.286 -1H120.714V1H263.286V-1ZM296 31.7144C296 13.6468 281.353 -1 263.286 -1V1C280.249 1 294 14.7513 294 31.7144H296ZM296 150.286V31.7144H294V150.286H296ZM263.286 183C281.353 183 296 168.353 296 150.286H294C294 167.249 280.249 181 263.286 181V183ZM120.714 183H263.286V181H120.714V183ZM88 150.286C88 168.353 102.647 183 120.714 183V181C103.751 181 90 167.249 90 150.286H88ZM88 31.7144V150.286H90V31.7144H88ZM90 455.714C90 438.751 103.751 425 120.714 425V423C102.647 423 88 437.647 88 455.714H90ZM90 574.286V455.714H88V574.286H90ZM120.714 605C103.751 605 90 591.249 90 574.286H88C88 592.353 102.647 607 120.714 607V605ZM263.286 605H120.714V607H263.286V605ZM294 574.286C294 591.249 280.249 605 263.286 605V607C281.353 607 296 592.353 296 574.286H294ZM294 455.714V574.286H296V455.714H294ZM263.286 425C280.249 425 294 438.751 294 455.714H296C296 437.647 281.353 423 263.286 423V425ZM120.714 425H263.286V423H120.714V425Z" fill="url(#paint1_radial_3016_10119)" fill-opacity="0.3" mask="url(#path-1-inside-1_3016_10119)"/>
</g>
<defs>
<radialGradient id="paint0_radial_3016_10119" cx="0" cy="0" r="1" gradientUnits="userSpaceOnUse" gradientTransform="translate(195 303) rotate(90) scale(303 342)">
<stop stop-color="#373737"/>
<stop offset="1" stop-color="#1B1B1B" stop-opacity="0"/>
</radialGradient>
<radialGradient id="paint1_radial_3016_10119" cx="0" cy="0" r="1" gradientUnits="userSpaceOnUse" gradientTransform="translate(195 303) rotate(90) scale(303 303.004)">
<stop stop-color="#B7B7B7"/>
<stop offset="1" stop-opacity="0"/>
</radialGradient>
<clipPath id="clip0_3016_10119">
<rect width="390" height="606" fill="white"/>
</clipPath>
</defs>
</svg>
