<svg width="24" height="24" viewBox="0 0 24 24" fill="none" xmlns="http://www.w3.org/2000/svg">
<g id="agenda 1" clip-path="url(#clip0_259_13769)">
<g id="Group">
<g id="Group_2">
<path id="Vector" d="M19.5728 0H13.0014H6.0643C4.39538 0.00307141 3.04103 1.35106 3.03003 3.01998V20.9799C3.04103 22.6488 4.39538 23.9968 6.0643 23.9999H19.5814C19.9525 24.0054 20.3104 23.8624 20.5756 23.6027C20.8287 23.3427 20.9702 22.9941 20.9699 22.6313V1.39713C20.9683 0.626139 20.3438 0.00157142 19.5728 0ZM13.5785 1.14285H16.9357V6.50282L15.7442 4.60283C15.696 4.5224 15.6287 4.45504 15.5482 4.40683C15.2776 4.24447 14.9266 4.33219 14.7642 4.60283L13.5785 6.49425V1.14285ZM4.18716 3.01998C4.19188 1.9852 5.02952 1.14756 6.0643 1.14285H12.4357V6.97139C12.4142 7.43531 12.7055 7.85638 13.1471 7.99995C13.65 8.15138 14.1014 7.82567 14.37 7.3971L15.2585 5.96854L16.1471 7.3971C16.4128 7.81995 16.8642 8.14567 17.3814 7.99995C17.8209 7.85695 18.1117 7.43896 18.0928 6.9771V1.15714H19.5814C19.7133 1.15871 19.8198 1.26521 19.8214 1.39713V17.9681C19.7421 17.9547 19.6618 17.948 19.5814 17.9485H6.0643C5.38266 17.9482 4.72102 18.1789 4.18716 18.6027V3.01998ZM19.8214 20.4142L6.64715 20.4284C6.33158 20.4284 6.07572 20.6843 6.07572 20.9999C6.07572 21.3154 6.33158 21.5713 6.64715 21.5713L19.8214 21.557V22.6199C19.8219 22.6838 19.7974 22.7454 19.7528 22.7913C19.7069 22.8358 19.6453 22.8604 19.5814 22.8599H6.0643C5.0268 22.8599 4.18574 22.0188 4.18574 20.9813C4.18574 19.9438 5.0268 19.1027 6.0643 19.1027H19.5814C19.7133 19.1043 19.8198 19.2108 19.8214 19.3427V20.4142Z" fill="white"/>
</g>
</g>
</g>
<defs>
<clipPath id="clip0_259_13769">
<rect width="24" height="24" fill="white"/>
</clipPath>
</defs>
</svg>
