<svg width="21" height="20" viewBox="0 0 21 20" fill="none" xmlns="http://www.w3.org/2000/svg">
<g id="briefcase-blank" clip-path="url(#clip0_341_1425)">
<path id="Vector" d="M16.3333 3.33333H15.4167C15.0333 1.43333 13.35 0 11.3333 0H9.66667C7.65833 0 5.975 1.43333 5.58333 3.33333H4.66667C2.36667 3.33333 0.5 5.2 0.5 7.5V15.8333C0.5 18.1333 2.36667 20 4.66667 20H16.3333C18.6333 20 20.5 18.1333 20.5 15.8333V7.5C20.5 5.2 18.6333 3.33333 16.3333 3.33333ZM9.66667 1.66667H11.3333C12.4167 1.66667 13.35 2.36667 13.6917 3.33333H7.30833C7.65 2.36667 8.575 1.66667 9.66667 1.66667ZM18.8333 15.8333C18.8333 17.2083 17.7083 18.3333 16.3333 18.3333H4.66667C3.29167 18.3333 2.16667 17.2083 2.16667 15.8333V7.5C2.16667 6.125 3.29167 5 4.66667 5H16.3333C17.7083 5 18.8333 6.125 18.8333 7.5V15.8333Z" fill="#6A6A75"/>
</g>
<defs>
<clipPath id="clip0_341_1425">
<rect width="20" height="20" fill="white" transform="translate(0.5)"/>
</clipPath>
</defs>
</svg>
