<svg width="14" height="17" viewBox="0 0 14 17" fill="none" xmlns="http://www.w3.org/2000/svg">
<g id="briefcase-blank" clip-path="url(#clip0_110_7215)">
<path id="Vector" d="M10.8571 2.78571H10.2286C9.96571 1.48286 8.81143 0.5 7.42857 0.5H6.28571C4.90857 0.5 3.75429 1.48286 3.48571 2.78571H2.85714C1.28 2.78571 0 4.06571 0 5.64286V11.3571C0 12.9343 1.28 14.2143 2.85714 14.2143H10.8571C12.4343 14.2143 13.7143 12.9343 13.7143 11.3571V5.64286C13.7143 4.06571 12.4343 2.78571 10.8571 2.78571ZM6.28571 1.64286H7.42857C8.17143 1.64286 8.81143 2.12286 9.04571 2.78571H4.66857C4.90286 2.12286 5.53714 1.64286 6.28571 1.64286ZM12.5714 11.3571C12.5714 12.3 11.8 13.0714 10.8571 13.0714H2.85714C1.91429 13.0714 1.14286 12.3 1.14286 11.3571V5.64286C1.14286 4.7 1.91429 3.92857 2.85714 3.92857H10.8571C11.8 3.92857 12.5714 4.7 12.5714 5.64286V11.3571Z" fill="#B7B7C2"/>
</g>
<defs>
<clipPath id="clip0_110_7215">
<rect width="13.7143" height="16" fill="white" transform="translate(0 0.5)"/>
</clipPath>
</defs>
</svg>
