<svg width="21" height="20" viewBox="0 0 21 20" fill="none" xmlns="http://www.w3.org/2000/svg">
<g clip-path="url(#clip0_918_3561)">
<path fill-rule="evenodd" clip-rule="evenodd" d="M5.37278 0C2.68215 0 0.500977 2.18118 0.500977 4.87182V13.9988L4.35539 9.3533C4.60284 9.03521 5.05385 8.96204 5.38918 9.18561L8.15379 11.0287L11.1092 7.30256H9.80353C9.37867 7.30256 9.0343 6.95813 9.0343 6.53333C9.0343 6.10847 9.37867 5.7641 9.80353 5.7641H13.0445C13.4694 5.7641 13.8137 6.10847 13.8137 6.53333V9.7641C13.8137 10.1889 13.4694 10.5333 13.0445 10.5333C12.6197 10.5333 12.2753 10.1889 12.2753 9.7641V8.30816L8.91902 12.5396C8.67035 12.8531 8.22271 12.9236 7.88967 12.7016L5.13065 10.8622L0.566089 15.9266C0.947065 18.2374 2.95408 20 5.37278 20H15.6292C18.3198 20 20.501 17.8188 20.501 15.1282V4.87182C20.501 2.18118 18.3198 0 15.6292 0H5.37278Z" fill="white"/>
</g>
<defs>
<clipPath id="clip0_918_3561">
<rect width="20" height="20" fill="white" transform="translate(0.5)"/>
</clipPath>
</defs>
</svg>
