<svg width="21" height="20" viewBox="0 0 21 20" fill="none" xmlns="http://www.w3.org/2000/svg">
<g id="bullish" clip-path="url(#clip0_268_1655)">
<g id="Group">
<path id="Vector" fill-rule="evenodd" clip-rule="evenodd" d="M5.3729 1.53846C3.53194 1.53846 2.03956 3.03084 2.03956 4.87182V15.1282C2.03956 16.9692 3.53194 18.4615 5.3729 18.4615H15.6293C17.4703 18.4615 18.9626 16.9692 18.9626 15.1282V4.87182C18.9626 3.03084 17.4703 1.53846 15.6293 1.53846H5.3729ZM0.501099 4.87182C0.501099 2.18118 2.68227 0 5.3729 0H15.6293C18.3199 0 20.5011 2.18118 20.5011 4.87182V15.1282C20.5011 17.8188 18.3199 20 15.6293 20H5.3729C2.68227 20 0.501099 17.8188 0.501099 15.1282V4.87182Z" fill="#6A6A75"/>
<path id="Vector_2" fill-rule="evenodd" clip-rule="evenodd" d="M13.0816 6.05379C13.4144 6.31779 13.4702 6.80167 13.2062 7.13453L8.91904 12.5396C8.67037 12.8532 8.22274 12.9236 7.88969 12.7017L5.13068 10.8623L1.86711 15.0571C1.60624 15.3923 1.12294 15.4527 0.787635 15.1918C0.452331 14.931 0.391992 14.4476 0.652866 14.1123L4.35541 9.35336C4.60286 9.03527 5.05388 8.9621 5.3892 9.18567L8.15381 11.0287L12.0009 6.17847C12.2649 5.84561 12.7488 5.78979 13.0816 6.05379Z" fill="#6A6A75"/>
<path id="Vector_3" fill-rule="evenodd" clip-rule="evenodd" d="M9.03442 6.53339C9.03442 6.10853 9.37879 5.76416 9.80365 5.76416H13.0446C13.4695 5.76416 13.8139 6.10853 13.8139 6.53339V9.76416C13.8139 10.189 13.4695 10.5334 13.0446 10.5334C12.6198 10.5334 12.2754 10.189 12.2754 9.76416V7.30262H9.80365C9.37879 7.30262 9.03442 6.95819 9.03442 6.53339Z" fill="#6A6A75"/>
</g>
</g>
<defs>
<clipPath id="clip0_268_1655">
<rect width="20" height="20" fill="white" transform="translate(0.5)"/>
</clipPath>
</defs>
</svg>
