<svg width="44" height="44" viewBox="0 0 44 44" fill="none" xmlns="http://www.w3.org/2000/svg">
<rect width="44" height="44" rx="8" fill="#043D1F"/>
<path d="M16.82 30V14.6H22.43C23.244 14.6 23.9773 14.7687 24.63 15.106C25.29 15.436 25.8107 15.9127 26.192 16.536C26.5807 17.152 26.775 17.8817 26.775 18.725C26.775 19.099 26.72 19.4767 26.61 19.858C26.5 20.2393 26.3313 20.584 26.104 20.892C25.8767 21.1927 25.5833 21.4163 25.224 21.563C25.7007 21.6803 26.0893 21.893 26.39 22.201C26.6907 22.509 26.9253 22.872 27.094 23.29C27.2627 23.7007 27.3763 24.1223 27.435 24.555C27.501 24.9803 27.534 25.3763 27.534 25.743C27.534 26.557 27.3323 27.283 26.929 27.921C26.5257 28.559 25.983 29.065 25.301 29.439C24.6263 29.813 23.8783 30 23.057 30H16.82ZM19.504 27.701H22.782C23.222 27.701 23.618 27.5947 23.97 27.382C24.322 27.1693 24.6043 26.876 24.817 26.502C25.0297 26.128 25.136 25.7027 25.136 25.226C25.136 24.8153 25.0297 24.4267 24.817 24.06C24.6043 23.6933 24.322 23.3963 23.97 23.169C23.618 22.9417 23.222 22.828 22.782 22.828H19.504V27.701ZM19.504 20.562H22.122C22.6647 20.562 23.1267 20.3933 23.508 20.056C23.8967 19.7187 24.091 19.2713 24.091 18.714C24.091 18.12 23.8967 17.6727 23.508 17.372C23.1267 17.064 22.6647 16.91 22.122 16.91H19.504V20.562Z" fill="#73DEA1"/>
</svg>
