<svg width="40" height="40" viewBox="0 0 40 40" fill="none" xmlns="http://www.w3.org/2000/svg">
<g clip-path="url(#clip0_807_23026)">
<path d="M16.3012 28.0127C16.3012 27.3914 15.7975 26.8877 15.1762 26.8877H10.0125C9.3912 26.8877 8.88745 27.3914 8.88745 28.0127C8.88745 28.6339 9.3912 29.1377 10.0125 29.1377H15.175C15.7962 29.1389 16.3012 28.6339 16.3012 28.0127Z" fill="#F07D84"/>
<path d="M10.0024 18.875C9.38119 18.875 8.87744 19.3787 8.87744 20C8.87744 20.6212 9.38119 21.125 10.0024 21.125H19.2974C19.9187 21.125 20.4224 20.6212 20.4224 20C20.4224 19.3787 19.9187 18.875 19.2974 18.875H10.0024Z" fill="#F07D84"/>
<path d="M18.525 36.375H7.1375C5.2 36.375 3.625 34.8 3.625 32.8625V12.915H8.905C11.1138 12.915 12.91 11.1175 12.91 8.91125V3.625H29.1625C31.1 3.625 32.675 5.2 32.675 7.1375V18.5375C32.675 19.1588 33.1788 19.6625 33.8 19.6625C34.4212 19.6625 34.925 19.1588 34.925 18.5375V7.1375C34.925 3.96 32.34 1.375 29.1625 1.375H10.5875C9.095 1.375 7.69 1.95875 6.63 3.01625L3.01625 6.63C1.9575 7.68875 1.375 9.09375 1.375 10.5875V32.8625C1.375 36.04 3.96 38.625 7.1375 38.625H18.525C19.1462 38.625 19.65 38.1213 19.65 37.5C19.65 36.8788 19.1462 36.375 18.525 36.375ZM4.60875 8.22125L8.2225 4.6075C8.845 3.98375 9.70875 3.625 10.5875 3.625H10.66V8.91125C10.66 9.8775 9.87375 10.6638 8.90625 10.6638H3.625V10.5875C3.625 9.70875 3.98375 8.845 4.60875 8.22125Z" fill="#F07D84"/>
<g clip-path="url(#clip1_807_23026)">
<path d="M26.494 27.4944C26.8195 27.169 27.3471 27.169 27.6725 27.4944L30 29.8218L32.3274 27.4944C32.6528 27.169 33.1804 27.169 33.5059 27.4944C33.8313 27.8198 33.8313 28.3475 33.5059 28.6729L31.1785 31.0003L33.5059 33.3277C33.8313 33.6532 33.8313 34.1808 33.5059 34.5062C33.1804 34.8317 32.6528 34.8317 32.3274 34.5062L30 32.1788L27.6725 34.5062C27.3471 34.8317 26.8195 34.8317 26.494 34.5062C26.1686 34.1808 26.1686 33.6532 26.494 33.3277L28.8214 31.0003L26.494 28.6729C26.1686 28.3475 26.1686 27.8198 26.494 27.4944Z" fill="#F07D84"/>
<path fill-rule="evenodd" clip-rule="evenodd" d="M21.6666 31.0003C21.6666 26.398 25.3976 22.667 30 22.667C34.6023 22.667 38.3333 26.398 38.3333 31.0003C38.3333 35.6027 34.6023 39.3337 30 39.3337C25.3976 39.3337 21.6666 35.6027 21.6666 31.0003ZM30 24.3337C26.3181 24.3337 23.3333 27.3184 23.3333 31.0003C23.3333 34.6822 26.3181 37.667 30 37.667C33.6819 37.667 36.6666 34.6822 36.6666 31.0003C36.6666 27.3184 33.6819 24.3337 30 24.3337Z" fill="#F07D84"/>
</g>
</g>
<defs>
<clipPath id="clip0_807_23026">
<rect width="40" height="40" fill="white"/>
</clipPath>
<clipPath id="clip1_807_23026">
<rect width="16.6667" height="16.6667" fill="white" transform="translate(21.6666 22.667)"/>
</clipPath>
</defs>
</svg>
