<svg width="14" height="14" viewBox="0 0 14 14" fill="none" xmlns="http://www.w3.org/2000/svg">
<g id="Live area" clip-path="url(#clip0_382_1696)">
<path id="Vector" fill-rule="evenodd" clip-rule="evenodd" d="M6.5286 0.528758C6.78894 0.268409 7.21106 0.268409 7.4714 0.528758L10.8047 3.86209C11.0651 4.12244 11.0651 4.54455 10.8047 4.8049C10.5444 5.06525 10.1223 5.06525 9.86193 4.8049L7 1.94297L4.13807 4.8049C3.87772 5.06525 3.45561 5.06525 3.19526 4.8049C2.93491 4.54455 2.93491 4.12244 3.19526 3.86209L6.5286 0.528758ZM3.19526 9.19543C3.45561 8.93508 3.87772 8.93508 4.13807 9.19543L7 12.0574L9.86193 9.19543C10.1223 8.93508 10.5444 8.93508 10.8047 9.19543C11.0651 9.45577 11.0651 9.87788 10.8047 10.1382L7.4714 13.4716C7.21106 13.7319 6.78894 13.7319 6.5286 13.4716L3.19526 10.1382C2.93491 9.87788 2.93491 9.45577 3.19526 9.19543Z" fill="#B7B7C2"/>
</g>
<defs>
<clipPath id="clip0_382_1696">
<rect width="13.3333" height="13.3333" fill="white" transform="translate(0.333374 0.333496)"/>
</clipPath>
</defs>
</svg>
