<svg width="20" height="21" viewBox="0 0 20 21" fill="none" xmlns="http://www.w3.org/2000/svg">
<g clip-path="url(#clip0_493_10468)">
<path fill-rule="evenodd" clip-rule="evenodd" d="M6.66667 2.1665C6.20643 2.1665 5.83333 2.5396 5.83333 2.99984V14.6665C5.83333 15.1267 6.20643 15.4998 6.66667 15.4998H16.6667C17.1269 15.4998 17.5 15.1267 17.5 14.6665V2.99984C17.5 2.5396 17.1269 2.1665 16.6667 2.1665H6.66667ZM7.5 13.8332V3.83317H15.8333V13.8332H7.5Z" fill="white"/>
<path d="M4.16667 6.33317C4.16667 5.87293 3.79357 5.49984 3.33333 5.49984C2.8731 5.49984 2.5 5.87293 2.5 6.33317V17.9998C2.5 18.4601 2.8731 18.8332 3.33333 18.8332H13.3333C13.7936 18.8332 14.1667 18.4601 14.1667 17.9998C14.1667 17.5396 13.7936 17.1665 13.3333 17.1665H4.16667V6.33317Z" fill="white"/>
</g>
<defs>
<clipPath id="clip0_493_10468">
<rect width="16.6667" height="16.6667" fill="white" transform="translate(1.6665 2.1665)"/>
</clipPath>
</defs>
</svg>
