<svg width="253" height="101" viewBox="0 0 253 101" fill="none" xmlns="http://www.w3.org/2000/svg">
<g clip-path="url(#clip0_386_3333)">
<path d="M52.3778 95.5L48.5 98L6.88095 97.3132C3.33135 97.3132 0.457031 94.4389 0.457031 90.9086V11.0843C0.457031 7.554 3.33135 4.67969 6.88095 4.67969H47.5741C51.1237 4.67969 53.9787 7.554 53.9787 11.0843L52.3778 58.3053V65.6105" fill="#6A6A75"/>
<path d="M5.86697 31.9453C5.83266 32.548 6.31218 33.0585 6.91903 33.0585H22.9462C23.5545 33.0585 24.0324 32.5463 23.9983 31.9453C23.8149 28.6702 21.8962 25.8067 19.0519 24.3543C19.8218 23.4196 20.2625 22.2284 20.2625 20.9715C20.2625 18.0326 17.8721 15.6411 14.9331 15.6411C11.9942 15.6411 9.60273 18.0326 9.60273 20.9715C9.60273 22.2284 10.0434 23.4196 10.8133 24.3543C7.96924 25.8069 6.0503 28.6702 5.86697 31.9453ZM13.1215 25.7095C14.033 25.4601 14.1797 24.2253 13.3521 23.7695C12.3402 23.2127 11.7112 22.1404 11.7112 20.9715C11.7112 19.1948 13.1566 17.7494 14.9333 17.7494C16.709 17.7494 18.1545 19.1948 18.1545 20.9715C18.1545 22.1404 17.5255 23.2125 16.5135 23.7695C15.6857 24.2253 15.8327 25.4601 16.7442 25.7095C19.289 26.4059 21.1904 28.4433 21.742 30.9505H8.12364C8.6753 28.4433 10.5767 26.4059 13.1215 25.7095Z" fill="#B4B4B4"/>
<path d="M6 42.4941C6 43.3191 6.66826 43.9883 7.49414 43.9883H36.1354C36.9612 43.9883 37.6295 43.3191 37.6295 42.4941C37.6295 41.6691 36.9612 41 36.1354 41H7.49414C6.66826 41 6 41.6691 6 42.4941Z" fill="#B4B4B4"/>
<path d="M6 48.5C6 49.3282 6.9085 50 8.03127 50H37.9687C39.0915 50 40 49.3282 40 48.5C40 47.6718 39.0915 47 37.9687 47H8.03127C6.9085 47 6 47.6718 6 48.5Z" fill="#B4B4B4"/>
<path d="M26 21.5C26 22.3282 26.4014 23 26.8975 23H44.1025C44.5986 23 45 22.3282 45 21.5C45 20.6718 44.5986 20 44.1025 20H26.8975C26.4014 20 26 20.6718 26 21.5Z" fill="#B4B4B4"/>
<path d="M26 27.5C26 28.3282 26.2747 29 26.6141 29H38.3859C38.7253 29 39 28.3282 39 27.5C39 26.6718 38.7253 26 38.3859 26H26.6141C26.2747 26 26 26.6718 26 27.5Z" fill="#B4B4B4"/>
<path d="M17.8927 54.4941C17.8927 53.6691 17.2244 53 16.3985 53H7.49414C6.66826 53 6 53.6691 6 54.4941C6 55.3191 6.66826 55.9883 7.49414 55.9883H16.3985C17.2244 55.9883 17.8927 55.3191 17.8927 54.4941Z" fill="#B4B4B4"/>
<path d="M58.4206 86.8592C66.4726 83.5217 70.2944 74.2886 66.9568 66.2367C63.6193 58.1847 54.3862 54.3629 46.3343 57.7005C38.2823 61.038 34.4605 70.2711 37.7981 78.323C41.1356 86.375 50.3687 90.1968 58.4206 86.8592Z" fill="#5CE7EF"/>
<path d="M48.9701 76.876C49.2143 77.1746 49.5756 77.3565 49.9619 77.375C49.9846 77.3755 50.0057 77.3763 50.027 77.3763C50.3909 77.3763 50.7413 77.2313 50.9978 76.9716L58.9426 68.933C59.4684 68.4009 59.4604 67.5461 58.924 67.0238C58.3888 66.501 57.5285 66.5084 57.0011 67.0423L50.1238 73.9998L48.0801 71.4929C47.6087 70.9134 46.751 70.8223 46.1679 71.293C45.5837 71.7623 45.4933 72.6126 45.9661 73.1921L48.9701 76.876Z" fill="#03464A"/>
</g>
<path fill-rule="evenodd" clip-rule="evenodd" d="M126.293 43.7929C126.683 43.4024 127.317 43.4024 127.707 43.7929L133.707 49.7929C134.098 50.1834 134.098 50.8166 133.707 51.2071L127.707 57.2071C127.317 57.5976 126.683 57.5976 126.293 57.2071C125.902 56.8166 125.902 56.1834 126.293 55.7929L131.586 50.5L126.293 45.2071C125.902 44.8166 125.902 44.1834 126.293 43.7929Z" fill="white"/>
<path d="M195.697 11.9299C195.697 6.82546 199.835 2.6875 204.94 2.6875H240.985C246.09 2.6875 250.228 6.82547 250.228 11.9299V87.8693C250.228 92.9738 246.09 97.1117 240.985 97.1117H204.94C199.835 97.1117 195.697 92.9738 195.697 87.8693V11.9299Z" fill="#6A6A75"/>
<path d="M229.033 7H215.967C214.881 7 214 7.6714 214 8.5C214 9.3286 214.881 10 215.967 10H229.033C230.119 10 231 9.3286 231 8.5C231 7.6714 230.119 7 229.033 7Z" fill="#29292E"/>
<path d="M194 24.8098L194 30.1902C194 30.6374 194.671 31 195.5 31C196.329 31 197 30.6374 197 30.1902L197 24.8098C197 24.3626 196.329 24 195.5 24C194.671 24 194 24.3626 194 24.8098Z" fill="#6A6A75"/>
<path d="M249 24.8098L249 30.1902C249 30.6374 249.671 31 250.5 31C251.329 31 252 30.6374 252 30.1902L252 24.8098C252 24.3626 251.329 24 250.5 24C249.671 24 249 24.3626 249 24.8098Z" fill="#6A6A75"/>
<path d="M194 33.8098L194 39.1902C194 39.6374 194.671 40 195.5 40C196.329 40 197 39.6374 197 39.1902L197 33.8098C197 33.3626 196.329 33 195.5 33C194.671 33 194 33.3626 194 33.8098Z" fill="#6A6A75"/>
<path d="M228.666 85.8592C236.718 82.5217 240.54 73.2886 237.202 65.2367C233.864 57.1847 224.631 53.3629 216.579 56.7005C208.527 60.038 204.706 69.2711 208.043 77.323C211.381 85.375 220.614 89.1968 228.666 85.8592Z" fill="#FFD977"/>
<path d="M222.236 79L218.245 72.8431V71.3922H219.575C220.108 71.3922 220.573 71.3268 220.972 71.1961C221.386 71.0523 221.726 70.8497 221.992 70.5882C222.273 70.3268 222.465 70.0131 222.569 69.6471H218.245V68.1961H222.547C222.458 67.8562 222.303 67.5556 222.081 67.2941C221.874 67.0327 221.593 66.8301 221.238 66.6863C220.898 66.5294 220.485 66.451 219.997 66.451H218.245V65H228.245V66.451H224.764C225.015 66.6993 225.222 66.9673 225.385 67.2549C225.562 67.5425 225.68 67.8562 225.74 68.1961H228.245V69.6471H225.784C225.636 70.6144 225.215 71.3725 224.52 71.9216C223.825 72.4575 222.931 72.8235 221.837 73.0196L226.183 79H222.236Z" fill="#574005"/>
<g clip-path="url(#clip1_386_3333)">
<path fill-rule="evenodd" clip-rule="evenodd" d="M212.697 41.1787C213.299 41.1787 213.787 41.6664 213.787 42.268V44.4466H231.215V42.268C231.215 41.6664 231.703 41.1787 232.305 41.1787C232.906 41.1787 233.394 41.6664 233.394 42.268V45.5359C233.394 46.1374 232.906 46.6251 232.305 46.6251H212.697C212.096 46.6251 211.608 46.1374 211.608 45.5359V42.268C211.608 41.6664 212.096 41.1787 212.697 41.1787Z" fill="#B4B4B4"/>
<path fill-rule="evenodd" clip-rule="evenodd" d="M223.271 41.949C222.845 42.3744 222.156 42.3744 221.73 41.949L215.195 35.4133C214.769 34.9879 214.769 34.2982 215.195 33.8728C215.62 33.4474 216.31 33.4474 216.735 33.8728L221.411 38.549L221.411 25.9288C221.411 25.3272 221.899 24.8395 222.5 24.8395C223.102 24.8395 223.59 25.3272 223.59 25.9288L223.59 38.549L228.266 33.8728C228.691 33.4474 229.381 33.4474 229.806 33.8728C230.232 34.2982 230.232 34.9879 229.806 35.4133L223.271 41.949Z" fill="#B4B4B4"/>
</g>
<defs>
<clipPath id="clip0_386_3333">
<rect width="68" height="101" fill="white"/>
</clipPath>
<clipPath id="clip1_386_3333">
<rect width="21.7857" height="21.7857" fill="white" transform="translate(211.608 24.8394)"/>
</clipPath>
</defs>
</svg>
