<svg width="56" height="56" viewBox="0 0 56 56" fill="none" xmlns="http://www.w3.org/2000/svg">
<g id="contract 1">
<g id="Layer_25">
<path id="Vector" d="M32.5392 39.0176C32.5392 38.1634 31.8466 37.4707 30.9924 37.4707H14.2672C13.413 37.4707 12.7203 38.1634 12.7203 39.0176C12.7203 39.8718 13.413 40.5645 14.2672 40.5645H30.9906C31.8449 40.5662 32.5392 39.8718 32.5392 39.0176Z" fill="#9D9DA8"/>
<path id="Vector_2" d="M14.2534 26.4531C13.3992 26.4531 12.7065 27.1458 12.7065 28C12.7065 28.8542 13.3992 29.5469 14.2534 29.5469H36.659C37.5133 29.5469 38.2059 28.8542 38.2059 28C38.2059 27.1458 37.5133 26.4531 36.659 26.4531H14.2534Z" fill="#9D9DA8"/>
<path id="Vector_3" d="M25.9719 50.5156H10.3141C7.65 50.5156 5.48438 48.35 5.48438 45.6859V18.2581H12.7444C15.7814 18.2581 18.2512 15.7866 18.2512 12.753V5.48438H40.5984C43.2625 5.48438 45.4281 7.65 45.4281 10.3141V25.9891C45.4281 26.8433 46.1208 27.5359 46.975 27.5359C47.8292 27.5359 48.5219 26.8433 48.5219 25.9891V10.3141C48.5219 5.945 44.9675 2.39062 40.5984 2.39062H15.0578C13.0056 2.39062 11.0737 3.19328 9.61625 4.64734L4.64734 9.61625C3.19156 11.072 2.39062 13.0039 2.39062 15.0578V45.6859C2.39062 50.055 5.945 53.6094 10.3141 53.6094H25.9719C26.8261 53.6094 27.5187 52.9167 27.5187 52.0625C27.5187 51.2083 26.8261 50.5156 25.9719 50.5156ZM6.83703 11.8042L11.8059 6.83531C12.6619 5.97766 13.8495 5.48438 15.0578 5.48438H15.1575V12.753C15.1575 14.0816 14.0764 15.1627 12.7461 15.1627H5.48438V15.0578C5.48438 13.8495 5.97766 12.6619 6.83703 11.8042Z" fill="#9D9DA8"/>
<path id="Vector_4" d="M52.1037 32.7041C52.1037 32.7024 52.1037 32.7024 52.1037 32.7041C50.0997 30.7018 46.8392 30.7018 44.83 32.7024L32.6905 44.8437C32.2711 45.2647 31.9978 45.7958 31.9016 46.3751L31.2364 50.3093C31.0834 51.2099 31.3791 52.1363 32.0253 52.7808C32.5598 53.3154 33.2817 53.6076 34.0259 53.6076C34.1823 53.6076 34.3405 53.5955 34.4951 53.5697L38.4276 52.9046C39.0103 52.8083 39.5397 52.5351 39.9625 52.1157L52.102 39.9762C54.1061 37.9721 54.1061 34.7082 52.1037 32.7041ZM37.9189 49.8538L34.3456 50.4588L34.8801 47.0333L43.455 38.4568L46.3631 41.3649L37.9189 49.8538ZM49.9158 37.7882L48.5442 39.1683L45.643 36.2671L47.018 34.8921C47.4167 34.4933 47.9426 34.2922 48.4686 34.2922C48.9945 34.2922 49.517 34.4916 49.9175 34.8921C50.715 35.6913 50.715 36.9907 49.9158 37.7882Z" fill="#9D9DA8"/>
</g>
</g>
</svg>
