<svg width="42" height="42" viewBox="0 0 42 42" fill="none" xmlns="http://www.w3.org/2000/svg">
<g id="envelope 1">
<g id="envelope_message">
<g id="Group">
<path id="Vector" d="M32.0746 38.0561H7.09872C3.18451 38.0561 6.10352e-05 34.896 6.10352e-05 31.0117V15.1082C6.10352e-05 11.224 3.18451 8.06396 7.09872 8.06396H24.9461C25.603 8.06396 26.1355 8.59651 26.1355 9.25342C26.1355 9.91032 25.603 10.4429 24.9461 10.4429H7.09872C4.49628 10.4429 2.37897 12.5357 2.37897 15.1082V31.0117C2.37897 33.5842 4.49628 35.6772 7.09872 35.6772H32.0746C34.677 35.6772 36.7943 33.5842 36.7943 31.0117V20.7594C36.7943 20.1025 37.3268 19.5699 37.9837 19.5699C38.6406 19.5699 39.1732 20.1025 39.1732 20.7594V31.0117C39.1732 34.896 35.9888 38.0561 32.0746 38.0561Z" fill="#2E9DFF"/>
<g id="Group_2">
<path id="Vector_2" d="M19.7876 28.9563C19.4083 28.9563 19.0292 28.812 18.7405 28.5233L2.26674 12.0496C1.8022 11.585 1.8022 10.832 2.26674 10.3675C2.7312 9.90291 3.48441 9.90291 3.94887 10.3675L19.7876 26.2061L27.9565 18.0372C28.4209 17.5727 29.1741 17.5727 29.6386 18.0372C30.1031 18.5018 30.1031 19.2548 29.6386 19.7193L20.8345 28.5233C20.5458 28.812 20.1667 28.9563 19.7876 28.9563Z" fill="#2E9DFF"/>
<path id="Vector_3" d="M34.7358 18.4726C30.7303 18.4726 27.4716 15.2139 27.4716 11.2084C27.4716 7.20303 30.7303 3.94434 34.7358 3.94434C38.7412 3.94434 41.9999 7.20303 41.9999 11.2084C41.9999 15.214 38.7412 18.4726 34.7358 18.4726ZM34.7358 6.32332C32.042 6.32332 29.8505 8.51479 29.8505 11.2085C29.8505 13.9023 32.042 16.0937 34.7358 16.0937C37.4295 16.0937 39.621 13.9023 39.621 11.2085C39.621 8.51479 37.4295 6.32332 34.7358 6.32332Z" fill="#2E9DFF"/>
</g>
</g>
</g>
</g>
</svg>
