<svg width="24" height="24" viewBox="0 0 24 24" fill="none" xmlns="http://www.w3.org/2000/svg">
<g id="envelope 1">
<g id="envelope_message">
<g id="Group">
<path id="Vector" d="M19.2447 22.6522H4.25919C1.91067 22.6522 0 20.7712 0 18.4592V8.99277C0 6.68076 1.91067 4.7998 4.25919 4.7998H13.1676C13.5618 4.7998 13.8813 5.1168 13.8813 5.50781C13.8813 5.89883 13.5618 6.21582 13.1676 6.21582H4.25919C2.69773 6.21582 1.42734 7.46157 1.42734 8.99277V18.4592C1.42734 19.9904 2.69773 21.2362 4.25919 21.2362H19.2447C20.8062 21.2362 22.0765 19.9904 22.0765 18.4592V13.5471C22.0765 13.1561 22.3961 12.8391 22.7902 12.8391C23.1843 12.8391 23.5039 13.1561 23.5039 13.5471V18.4592C23.5039 20.7712 21.5933 22.6522 19.2447 22.6522Z" fill="white"/>
<g id="Group_2">
<path id="Vector_2" d="M11.8729 17.2356C11.6454 17.2356 11.4179 17.1497 11.2447 16.9778L1.36041 7.17203C1.08169 6.89552 1.08169 6.44728 1.36041 6.17076C1.63909 5.89425 2.09101 5.89425 2.36969 6.17076L11.8729 15.5985L20.9742 6.52181C21.2529 6.2453 21.7049 6.2453 21.9835 6.52181C22.2623 6.79832 22.2623 7.24657 21.9835 7.52308L12.5011 16.9778C12.3279 17.1497 12.1004 17.2356 11.8729 17.2356Z" fill="white"/>
</g>
<path id="Vector 17 (Stroke)" fill-rule="evenodd" clip-rule="evenodd" d="M19.75 6.25L12.75 6.21087V4.79788L19.75 4.75C21.8211 4.75 23.5 6.42893 23.5 8.5V13.5H22V8.5C22 7.25736 20.9926 6.25 19.75 6.25Z" fill="white"/>
</g>
</g>
</g>
</svg>
