<svg width="20" height="20" viewBox="0 0 20 20" fill="none" xmlns="http://www.w3.org/2000/svg">
<g id="Live area" clip-path="url(#clip0_15505_7358)">
<g id="Vector">
<path d="M10 11C9.44771 11 9 10.5523 9 10V6C9 5.44772 9.44772 5 10 5C10.5523 5 11 5.44772 11 6V10C11 10.5523 10.5523 11 10 11Z" fill="#CC3F48"/>
<path d="M10 12.5C9.30964 12.5 8.75 13.0596 8.75 13.75C8.75 14.4404 9.30964 15 10 15C10.6904 15 11.25 14.4404 11.25 13.75C11.25 13.0596 10.6904 12.5 10 12.5Z" fill="#CC3F48"/>
<path fill-rule="evenodd" clip-rule="evenodd" d="M0 10C0 4.47715 4.47715 0 10 0C15.5228 0 20 4.47715 20 10C20 15.5228 15.5228 20 10 20C4.47715 20 0 15.5228 0 10ZM10 2C5.58172 2 2 5.58172 2 10C2 14.4183 5.58172 18 10 18C14.4183 18 18 14.4183 18 10C18 5.58172 14.4183 2 10 2Z" fill="#CC3F48"/>
</g>
</g>
<defs>
<clipPath id="clip0_15505_7358">
<rect width="20" height="20" fill="white"/>
</clipPath>
</defs>
</svg>
