<svg width="20" height="20" viewBox="0 0 20 20" fill="none" xmlns="http://www.w3.org/2000/svg">
<g id="Live area">
<g id="Vector">
<path d="M10.9999 6.99991C10.9999 6.44763 10.5522 5.99991 9.99994 5.99991C9.44765 5.99991 8.99994 6.44763 8.99994 6.99991V10.9999C8.99994 11.5522 9.44765 11.9999 9.99994 11.9999C10.5522 11.9999 10.9999 11.5522 10.9999 10.9999V6.99991Z" fill="white"/>
<path d="M10 13.5C9.30964 13.5 8.75 14.0596 8.75 14.75C8.75 15.4404 9.30964 16 10 16C10.6904 16 11.25 15.4404 11.25 14.75C11.25 14.0596 10.6904 13.5 10 13.5Z" fill="white"/>
<path fill-rule="evenodd" clip-rule="evenodd" d="M12.6224 2.66123C11.4794 0.603804 8.52048 0.60381 7.37747 2.66124L0.776497 14.543C-0.334388 16.5426 1.11152 18.9999 3.39897 18.9999H16.6009C18.8884 18.9999 20.3343 16.5426 19.2234 14.543L12.6224 2.66123ZM9.12578 3.63252C9.50679 2.94671 10.4931 2.94671 10.8741 3.63252L17.4751 15.5143C17.8454 16.1808 17.3634 16.9999 16.6009 16.9999H3.39897C2.63648 16.9999 2.15452 16.1808 2.52481 15.5143L9.12578 3.63252Z" fill="white"/>
</g>
</g>
</svg>
