<svg width="20" height="20" viewBox="0 0 20 20" fill="none" xmlns="http://www.w3.org/2000/svg">
<path fill-rule="evenodd" clip-rule="evenodd" d="M9.29289 0.292893C9.68342 -0.0976311 10.3166 -0.097631 10.7071 0.292893L16.7071 6.29289C17.0976 6.68342 17.0976 7.31658 16.7071 7.70711C16.3166 8.09763 15.6834 8.09763 15.2929 7.70711L11 3.41421L11 15C11 15.5523 10.5523 16 10 16C9.44771 16 9 15.5523 9 15L9 3.41421L4.70711 7.70711C4.31658 8.09763 3.68342 8.09763 3.29289 7.70711C2.90237 7.31658 2.90237 6.68342 3.29289 6.29289L9.29289 0.292893ZM1 15C1.55228 15 2 15.4477 2 16V18H18V16C18 15.4477 18.4477 15 19 15C19.5523 15 20 15.4477 20 16V19C20 19.5523 19.5523 20 19 20H1C0.447715 20 0 19.5523 0 19V16C0 15.4477 0.447715 15 1 15Z" fill="#FAC3C8"/>
</svg>
