<svg width="20" height="20" viewBox="0 0 20 20" fill="none" xmlns="http://www.w3.org/2000/svg">
<g clip-path="url(#clip0_386_2970)">
<path fill-rule="evenodd" clip-rule="evenodd" d="M1 15C1.55228 15 2 15.4477 2 16V18H18V16C18 15.4477 18.4477 15 19 15C19.5523 15 20 15.4477 20 16V19C20 19.5523 19.5523 20 19 20H1C0.447715 20 0 19.5523 0 19V16C0 15.4477 0.447715 15 1 15Z" fill="#A1F0C3"/>
<path fill-rule="evenodd" clip-rule="evenodd" d="M10.7071 15.7071C10.3166 16.0976 9.68342 16.0976 9.29289 15.7071L3.29289 9.7071C2.90237 9.31658 2.90237 8.68342 3.29289 8.29289C3.68342 7.90237 4.31658 7.90237 4.70711 8.29289L9 12.5858L9 0.999999C9 0.447714 9.44772 -6.60242e-07 10 -6.11959e-07C10.5523 -5.63677e-07 11 0.447715 11 0.999999L11 12.5858L15.2929 8.29289C15.6834 7.90237 16.3166 7.90237 16.7071 8.29289C17.0976 8.68342 17.0976 9.31658 16.7071 9.70711L10.7071 15.7071Z" fill="#A1F0C3"/>
</g>
<defs>
<clipPath id="clip0_386_2970">
<rect width="20" height="20" fill="white"/>
</clipPath>
</defs>
</svg>
