<svg xmlns="http://www.w3.org/2000/svg" width="77" height="77" viewBox="0 0 77 77" fill="none">
  <g clip-path="url(#clip0_1515_19274)">
    <path d="M24.6567 51.4123C24.5163 51.7789 24.6511 52.1938 24.9803 52.4082L29.2803 55.2069C29.4523 55.319 29.577 55.4904 29.6302 55.6886L30.3653 58.4206H53.6639L54.399 55.6886C54.4524 55.4904 54.5769 55.319 54.7489 55.2069L59.0489 52.4082C59.3779 52.194 59.5129 51.7791 59.3725 51.4123L57.5388 46.6205C57.4654 46.4288 57.4654 46.2167 57.5388 46.0251L59.3725 41.2334C59.5129 40.8667 59.3781 40.4516 59.0489 40.2375L54.7489 37.4387C54.5769 37.3268 54.4522 37.1552 54.399 36.957L53.0659 32.0026C52.9639 31.6234 52.611 31.367 52.2188 31.3872L47.0949 31.6503C46.89 31.6609 46.6883 31.5953 46.5287 31.4664L42.5381 28.2417C42.2327 27.9949 41.7964 27.9949 41.4909 28.2417L37.5005 31.4664C37.3408 31.5954 37.1392 31.6609 36.9343 31.6503L31.8104 31.3872C31.4184 31.367 31.0654 31.6234 30.9633 32.0026L29.6302 36.957C29.5768 37.1552 29.4523 37.3267 29.2803 37.4387L24.9803 40.2375C24.6512 40.4516 24.5163 40.8666 24.6567 41.2334L26.4904 46.0251C26.5638 46.2169 26.5638 46.4289 26.4904 46.6205L24.6567 51.4123Z" fill="#4CD6B4"/>
    <path d="M62.1454 77.0002H19.8834C19.4414 77.0002 19.083 76.6418 19.083 76.1998V59.0709C19.083 58.6289 19.4414 58.2705 19.8834 58.2705H62.1454C62.5874 58.2705 62.9458 58.6289 62.9458 59.0709V76.1998C62.9458 76.6418 62.5874 77.0002 62.1454 77.0002Z" fill="#888888"/>
    <path d="M36.9836 58.27H45.0449V76.9998H36.9836V58.27Z" fill="#B8B8B8"/>
    <path d="M28.5379 11.1437L28.8977 11.7672L40.8105 4.88937L38.7422 1.30661C37.7918 -0.33926 35.4582 -0.452504 34.3532 1.09366L27.8137 10.2425C28.0954 10.5021 28.3416 10.8036 28.5379 11.1437Z" fill="#C5C5C5"/>
    <path d="M10.3147 22.4961L22.2274 15.6182L21.8675 14.9947C21.6684 14.65 21.529 14.2868 21.4458 13.9175L10.2563 15.006C8.3647 15.1901 7.29603 17.2676 8.24619 18.9135L10.3147 22.4961Z" fill="#C5C5C5"/>
    <path d="M22.0971 15.6933L29.028 11.6919L28.6681 11.0684C27.5631 9.15448 25.1159 8.49863 23.2019 9.6037C21.288 10.7086 20.6322 13.1559 21.7372 15.0699L22.0971 15.6933Z" fill="#888888"/>
    <path d="M26.7396 25.8341L21.1877 16.2181L20.9823 16.1631L6.49954 24.5248C6.07694 24.7687 5.93211 25.3091 6.1762 25.7317L10.9949 34.0779C11.2388 34.5005 11.7792 34.6453 12.2017 34.4013L26.6845 26.0397L26.7396 25.8341Z" fill="#888888"/>
    <path d="M50.5009 11.2691L45.6822 2.92288C45.4383 2.50028 44.8979 2.35545 44.4753 2.59954L29.9925 10.9613L29.9375 11.1667L35.4893 20.7825L35.6948 20.8377L50.1775 12.476C50.6 12.2321 50.7448 11.6917 50.5009 11.2691Z" fill="#888888"/>
    <path d="M20.9817 16.1631L29.9916 10.9611L35.6938 20.8373L26.6839 26.0393L20.9817 16.1631Z" fill="#B8B8B8"/>
    <path d="M38.4656 44.9492C40.1058 44.9492 41.4402 43.6148 41.4402 41.9746C41.4402 40.3345 40.1057 39 38.4656 39C36.8254 39 35.491 40.3345 35.491 41.9746C35.491 43.6148 36.8253 44.9492 38.4656 44.9492ZM38.4656 40.7505C39.1405 40.7505 39.6895 41.2996 39.6895 41.9745C39.6895 42.6494 39.1404 43.1984 38.4656 43.1984C37.7908 43.1984 37.2416 42.6494 37.2416 41.9745C37.2416 41.2996 37.7908 40.7505 38.4656 40.7505Z" fill="white"/>
    <path d="M45.563 47.6973C43.9227 47.6973 42.5884 49.0317 42.5884 50.6719C42.5884 52.312 43.9227 53.6464 45.563 53.6464C47.2033 53.6464 48.5376 52.3119 48.5376 50.6719C48.5376 49.0317 47.2033 47.6973 45.563 47.6973ZM45.563 51.8958C44.8882 51.8958 44.339 51.3468 44.339 50.672C44.339 49.9971 44.8882 49.448 45.563 49.448C46.2379 49.448 46.7869 49.9971 46.7869 50.672C46.7869 51.3468 46.2379 51.8958 45.563 51.8958Z" fill="white"/>
    <path d="M47.3887 39.1758C47.0022 38.8852 46.4535 38.9629 46.163 39.3493L36.4663 52.2448C36.1758 52.6312 36.2535 53.18 36.6398 53.4705C36.7975 53.5891 36.9821 53.6462 37.1651 53.6462C37.4309 53.6462 37.6934 53.5258 37.8654 53.297L47.5621 40.4015C47.8528 40.0152 47.7751 39.4664 47.3887 39.1758Z" fill="white"/>
  </g>
  <defs>
    <clipPath id="clip0_1515_19274">
      <rect width="77" height="77" fill="white"/>
    </clipPath>
  </defs>
</svg>