<svg xmlns="http://www.w3.org/2000/svg" width="32" height="32" viewBox="0 0 32 32" fill="none">
  <g clip-path="url(#clip0_2654_36175)">
    <path d="M7.09188 19.338L5.978 23.4962L1.90681 23.5823C0.690125 21.3257 0 18.7437 0 16C0 13.3468 0.64525 10.8448 1.789 8.64172H1.78988L5.41438 9.30622L7.00213 12.909C6.66981 13.8778 6.48869 14.9178 6.48869 16C6.48881 17.1745 6.70156 18.2998 7.09188 19.338Z" fill="#FBBB00"/>
    <path d="M31.7205 13.011C31.9042 13.9789 32.0001 14.9784 32.0001 16C32.0001 17.1455 31.8796 18.2629 31.6502 19.3407C30.8713 23.0084 28.8361 26.211 26.0168 28.4774L26.0159 28.4765L21.4507 28.2435L20.8046 24.2101C22.6753 23.113 24.1373 21.396 24.9074 19.3407H16.3518V13.011H25.0322H31.7205Z" fill="#518EF8"/>
    <path d="M26.0159 28.4764L26.0167 28.4773C23.2748 30.6813 19.7917 32 16 32C9.90686 32 4.6093 28.5943 1.90686 23.5824L7.09192 19.338C8.44311 22.9441 11.9218 25.5112 16 25.5112C17.753 25.5112 19.3952 25.0373 20.8044 24.2101L26.0159 28.4764Z" fill="#28B446"/>
    <path d="M26.2127 3.6835L21.0294 7.927C19.5709 7.01538 17.8469 6.48875 15.9999 6.48875C11.8294 6.48875 8.28563 9.17356 7.00213 12.909L1.78982 8.64175H1.78894C4.45182 3.50769 9.81619 0 15.9999 0C19.8821 0 23.4417 1.38288 26.2127 3.6835Z" fill="#F14336"/>
  </g>
  <defs>
    <clipPath id="clip0_2654_36175">
      <rect width="32" height="32" fill="white"/>
    </clipPath>
  </defs>
</svg>