<svg width="20" height="20" viewBox="0 0 20 20" fill="none" xmlns="http://www.w3.org/2000/svg">
<g id="Live area">
<path id="Vector" fill-rule="evenodd" clip-rule="evenodd" d="M8.7929 4.20715C7.25043 2.66468 4.74958 2.66467 3.20711 4.20715C1.66464 5.74962 1.66464 8.25046 3.20711 9.79293L10 16.5858L16.7929 9.79293C18.3354 8.25046 18.3354 5.74962 16.7929 4.20715C15.2504 2.66467 12.7496 2.66468 11.2071 4.20715L10.7071 4.70715C10.3166 5.09767 9.68342 5.09767 9.2929 4.70715L8.7929 4.20715ZM10 2.59539C7.66487 0.471395 4.04859 0.53724 1.7929 2.79293C-0.530626 5.11645 -0.530626 8.88363 1.7929 11.2071L9.2929 18.7071C9.68342 19.0977 10.3166 19.0977 10.7071 18.7071L18.2071 11.2071C20.5306 8.88363 20.5306 5.11645 18.2071 2.79293C15.9514 0.537241 12.3351 0.471395 10 2.59539Z" fill="white"/>
</g>
</svg>
