<svg width="24" height="24" viewBox="0 0 24 24" fill="none" xmlns="http://www.w3.org/2000/svg">
<path fill-rule="evenodd" clip-rule="evenodd" d="M10.7929 6.20666C9.25043 4.66419 6.74958 4.66419 5.20711 6.20666C3.66464 7.74913 3.66464 10.25 5.20711 11.7924L12 18.5853L18.7929 11.7924C20.3354 10.25 20.3354 7.74913 18.7929 6.20666C17.2504 4.66419 14.7496 4.66419 13.2071 6.20666L12.7071 6.70666C12.3166 7.09718 11.6834 7.09718 11.2929 6.70666L10.7929 6.20666ZM12 4.5949C9.66487 2.47091 6.04859 2.53675 3.7929 4.79244C1.46937 7.11596 1.46937 10.8831 3.7929 13.2067L11.2929 20.7067C11.6834 21.0972 12.3166 21.0972 12.7071 20.7067L20.2071 13.2067C22.5306 10.8831 22.5306 7.11596 20.2071 4.79244C17.9514 2.53675 14.3351 2.47091 12 4.5949Z" fill="white"/>
<path d="M3.5 11L11.5 19.5L12 20L17 15.5L19.5 12.5L21 9.5L20 6.5L17.5 4.5L15 4L12 6L10.5 5L8.5 4L4.5 5.5L3 7.5L3.5 11Z" fill="white"/>
</svg>
