<svg width="21" height="20" viewBox="0 0 21 20" fill="none" xmlns="http://www.w3.org/2000/svg">
<g clip-path="url(#clip0_364_2876)">
<path d="M18.8333 4.76984V1.66651C18.8333 1.20651 18.4608 0.833177 18 0.833177C17.5392 0.833177 17.1667 1.20651 17.1667 1.66651V3.63818L12.8308 0.712344C11.415 -0.242656 9.585 -0.242656 8.16917 0.712344L2.33583 4.64901C1.18667 5.42484 0.5 6.71568 0.5 8.10318V15.8332C0.5 18.1307 2.36917 19.9998 4.66667 19.9998H7.16667C7.6275 19.9998 8 19.6265 8 19.1665V12.4998C8 12.0407 8.37333 11.6665 8.83333 11.6665H12.1667C12.6267 11.6665 13 12.0407 13 12.4998V19.1665C13 19.6265 13.3725 19.9998 13.8333 19.9998H16.3333C18.6308 19.9998 20.5 18.1307 20.5 15.8332V8.10318C20.5 6.78568 19.88 5.55484 18.8333 4.76984ZM18.8333 15.8332C18.8333 17.2115 17.7117 18.3332 16.3333 18.3332H14.6667V12.4998C14.6667 11.1215 13.545 9.99984 12.1667 9.99984H8.83333C7.455 9.99984 6.33333 11.1215 6.33333 12.4998V18.3332H4.66667C3.28833 18.3332 2.16667 17.2115 2.16667 15.8332V8.10318C2.16667 7.27068 2.57833 6.49568 3.26833 6.03068L9.10167 2.09401C9.95167 1.52068 11.0483 1.52068 11.8975 2.09401L17.7308 6.03068C18.4208 6.49568 18.8325 7.27068 18.8325 8.10318L18.8333 15.8332Z" fill="white"/>
<path d="M1.5 6.5L10.5 0.5L19.5 6.5V16.5C19.5 18.9 17.8333 19.1667 17 19H14L13.5 11H7.5L7 19C6.66667 19.1667 5.6 19.5 4 19.5C2.4 19.5 1.66667 17.8333 1.5 17V6.5Z" fill="white"/>
</g>
<defs>
<clipPath id="clip0_364_2876">
<rect width="20" height="20" fill="white" transform="translate(0.5)"/>
</clipPath>
</defs>
</svg>
