<svg width="24" height="24" viewBox="0 0 24 24" fill="none" xmlns="http://www.w3.org/2000/svg">
<g clip-path="url(#clip0_933_31333)">
<path fill-rule="evenodd" clip-rule="evenodd" d="M7.53728 4.26749C7.82643 4.20395 8.12701 4.21454 8.41099 4.29827C8.69435 4.38182 8.95197 4.53543 9.16023 4.74492C9.16067 4.74543 9.1612 4.74594 9.16173 4.74645L19.4991 15.0839C19.4998 15.0844 19.5003 15.0851 19.5009 15.0856C19.7103 15.2938 19.8638 15.5514 19.9473 15.8346C20.0311 16.1186 20.0416 16.4191 19.9781 16.7084C19.9146 16.9975 19.779 17.266 19.5839 17.4888C19.3888 17.7116 19.1406 17.8813 18.8623 17.9825L2.60706 23.8875C2.29443 24.0052 1.95452 24.0308 1.62768 23.9611C1.29802 23.8908 0.995761 23.7265 0.757416 23.4882C0.519063 23.2498 0.354817 22.9476 0.284504 22.6179C0.214779 22.2911 0.240366 21.9511 0.358129 21.6385L6.26312 5.38337C6.36422 5.10508 6.53409 4.85677 6.75685 4.6617C6.9796 4.46662 7.24803 4.33102 7.53728 4.26749ZM1.18164 21.944L2.00211 22.2577C2.00286 22.2557 2.00303 22.2535 2.00259 22.2515C2.00215 22.2494 2.00111 22.2475 1.99961 22.246C1.99812 22.2444 1.99622 22.2435 1.99414 22.243C1.99213 22.2426 1.99004 22.2427 1.9881 22.2434L1.99684 22.2401L1.18164 21.944ZM2.0104 22.2352L18.2623 16.3314L18.2596 16.3287L7.91691 5.98598L7.91418 5.9833L2.0104 22.2352Z" fill="#59B2FF"/>
<path fill-rule="evenodd" clip-rule="evenodd" d="M21.6486 0C22.1337 0 22.5269 0.393262 22.5269 0.878367H21.6486C22.5269 0.878367 22.5269 0.878367 22.5269 0.878367V0.880212V0.882302V0.887247L22.5268 0.900089C22.5266 0.909944 22.5263 0.922382 22.5258 0.937226C22.5248 0.96688 22.523 1.00633 22.5196 1.05417C22.5127 1.14958 22.6568 0.336833 22.4738 1.43451C22.423 1.73907 22.3199 2.15859 22.1048 2.58873C21.888 3.02232 21.549 3.48263 21.0241 3.83258C20.4937 4.18619 19.826 4.39183 19.0135 4.39183C18.5084 4.39183 18.188 4.51558 17.9773 4.65605C17.7611 4.80018 17.606 4.99865 17.4934 5.22383C17.3791 5.45246 17.3175 5.69172 17.286 5.88124C17.2705 5.97391 17.2631 6.04922 17.2596 6.09792C17.258 6.12212 17.2572 6.13929 17.2569 6.14824L17.2567 6.15471C17.2534 6.63699 16.8615 7.02694 16.3784 7.02694C15.8932 7.02694 15.5 6.63367 15.5 6.14857H16.3784C15.5 6.14857 15.5 6.14857 15.5 6.14857V6.14672V6.14463V6.13969L15.5002 6.12685C15.5004 6.11699 15.5006 6.10455 15.5011 6.08971C15.5021 6.06006 15.504 6.02061 15.5074 5.97276C15.5142 5.87736 15.5274 5.74679 15.5531 5.59243C15.6039 5.28787 15.707 4.86835 15.9221 4.4382C16.1389 4.00462 16.4779 3.54431 17.0028 3.19436C17.5332 2.84074 18.201 2.6351 19.0135 2.6351C19.5185 2.6351 19.839 2.51136 20.0497 2.37089C20.2658 2.22676 20.421 2.02829 20.5336 1.8031C20.6478 1.57447 20.7094 1.33521 20.741 1.1457C20.7564 1.05302 20.7638 0.977719 20.7673 0.929014C20.7691 0.904815 20.7698 0.887643 20.77 0.878701L20.7702 0.872236C20.7735 0.389951 21.1655 0 21.6486 0Z" fill="#59B2FF"/>
<path fill-rule="evenodd" clip-rule="evenodd" d="M2.72309 15.3617C3.06611 15.0187 3.62226 15.0187 3.96529 15.3617L8.88418 20.2806C9.22718 20.6236 9.22718 21.1798 8.88418 21.5228C8.54109 21.8658 7.98499 21.8658 7.6419 21.5228L2.72309 16.6039C2.38007 16.2609 2.38007 15.7047 2.72309 15.3617Z" fill="#59B2FF"/>
<path fill-rule="evenodd" clip-rule="evenodd" d="M12.8305 -0.00390625C13.3156 -0.00390625 13.7089 0.389356 13.7089 0.874461V3.50956C13.7089 3.99467 13.3156 4.38793 12.8305 4.38793C12.3454 4.38793 11.9521 3.99467 11.9521 3.50956V0.874461C11.9521 0.389356 12.3454 -0.00390625 12.8305 -0.00390625Z" fill="#59B2FF"/>
<path fill-rule="evenodd" clip-rule="evenodd" d="M20.1157 10.7934C20.4587 10.4504 21.0148 10.4504 21.3578 10.7934L23.1146 12.5501C23.4576 12.8931 23.4576 13.4493 23.1146 13.7923C22.7716 14.1353 22.2154 14.1353 21.8724 13.7923L20.1157 12.0356C19.7726 11.6926 19.7726 11.1364 20.1157 10.7934Z" fill="#59B2FF"/>
<path fill-rule="evenodd" clip-rule="evenodd" d="M23.2054 6.74537C23.3589 7.20559 23.1101 7.70302 22.6499 7.85643L20.0148 8.73481C19.5546 8.88818 19.0571 8.63951 18.9037 8.17925C18.7503 7.71905 18.9991 7.22161 19.4593 7.06821L22.0944 6.18984C22.5545 6.03644 23.052 6.28516 23.2054 6.74537Z" fill="#59B2FF"/>
<path fill-rule="evenodd" clip-rule="evenodd" d="M4.83149 9.56389C5.17451 9.22089 5.73067 9.22089 6.0737 9.56389L14.6817 18.1719C15.0247 18.5149 15.0247 19.0711 14.6817 19.4141C14.3387 19.7571 13.7825 19.7571 13.4395 19.4141L4.83149 10.8061C4.48846 10.4631 4.48846 9.90689 4.83149 9.56389Z" fill="#59B2FF"/>
</g>
<defs>
<clipPath id="clip0_933_31333">
<rect width="24" height="24" fill="white"/>
</clipPath>
</defs>
</svg>
