<svg xmlns="http://www.w3.org/2000/svg" width="15" height="14" viewBox="0 0 15 14" fill="none">
  <g clip-path="url(#clip0_2880_6503)">
    <path d="M7.49992 6.33301C7.86811 6.33301 8.16659 6.63148 8.16659 6.99967L8.16658 9.66634C8.16658 10.0345 7.86811 10.333 7.49992 10.333C7.13173 10.333 6.83325 10.0345 6.83325 9.66634L6.83325 6.99967C6.83325 6.63148 7.13173 6.33301 7.49992 6.33301Z" fill="#E4E4ED"/>
    <path d="M7.49992 5.33301C7.96016 5.33301 8.33325 4.95991 8.33325 4.49967C8.33325 4.03944 7.96016 3.66634 7.49992 3.66634C7.03968 3.66634 6.66659 4.03944 6.66659 4.49967C6.66659 4.95991 7.03968 5.33301 7.49992 5.33301Z" fill="#E4E4ED"/>
    <path fill-rule="evenodd" clip-rule="evenodd" d="M0.833252 6.99967C0.833252 3.31778 3.81802 0.333008 7.49992 0.333008C11.1818 0.333008 14.1666 3.31778 14.1666 6.99967C14.1666 10.6816 11.1818 13.6663 7.49992 13.6663C3.81802 13.6663 0.833252 10.6816 0.833252 6.99967ZM7.49992 1.66634C4.5544 1.66634 2.16659 4.05416 2.16659 6.99967C2.16659 9.94519 4.5544 12.333 7.49992 12.333C10.4454 12.333 12.8333 9.94519 12.8333 6.99967C12.8333 4.05416 10.4454 1.66634 7.49992 1.66634Z" fill="#E4E4ED"/>
  </g>
  <defs>
    <clipPath id="clip0_2880_6503">
      <rect width="13.3333" height="13.3333" fill="white" transform="translate(0.833252 0.333008)"/>
    </clipPath>
  </defs>
</svg>