<svg width="54" height="40" viewBox="0 0 54 40" fill="none" xmlns="http://www.w3.org/2000/svg">
<g clip-path="url(#clip0_386_3634)">
<path fill-rule="evenodd" clip-rule="evenodd" d="M12.3074 -0.38486C5.72251 -0.38486 0.384371 4.95329 0.384371 11.5382V27.6921C0.384371 34.277 5.72251 39.6151 12.3074 39.6151H40.769C47.3539 39.6151 52.6921 34.277 52.6921 27.6921V11.5382C52.6921 4.95328 47.3539 -0.38486 40.769 -0.38486H12.3074ZM2.69206 11.5382C2.69206 6.22779 6.99702 1.92283 12.3074 1.92283H40.769C46.0794 1.92283 50.3844 6.22779 50.3844 11.5382V13.8459H49.9998H43.4613C40.275 13.8459 37.6921 16.4289 37.6921 19.6151C37.6921 22.8014 40.275 25.3844 43.4613 25.3844H49.9998H50.3844V27.6921C50.3844 33.0025 46.0794 37.3074 40.769 37.3074H12.3074C6.99702 37.3074 2.69206 33.0025 2.69206 27.6921V11.5382ZM39.9998 19.6151C39.9998 17.7034 41.5495 16.1536 43.4613 16.1536H47.6921H49.9998V18.4613V20.769V23.0767H47.6921H43.4613C41.5495 23.0767 39.9998 21.5269 39.9998 19.6151Z" fill="#FAB97A"/>
<path d="M22.4999 17.115C22.4999 16.584 22.0694 16.1535 21.5383 16.1535C21.0073 16.1535 20.5768 16.584 20.5768 17.115V20.9612C20.5768 21.4922 21.0073 21.9227 21.5383 21.9227C22.0694 21.9227 22.4999 21.4922 22.4999 20.9612V17.115Z" fill="#FAB97A"/>
<path d="M21.5384 23.3651C20.8746 23.3651 20.3365 23.9032 20.3365 24.567C20.3365 25.2308 20.8746 25.7689 21.5384 25.7689C22.2022 25.7689 22.7403 25.2308 22.7403 24.567C22.7403 23.9032 22.2022 23.3651 21.5384 23.3651Z" fill="#FAB97A"/>
<path fill-rule="evenodd" clip-rule="evenodd" d="M24.0599 12.9432C22.9609 10.9649 20.1158 10.9649 19.0167 12.9432L12.6696 24.368C11.6015 26.2906 12.9918 28.6535 15.1913 28.6535H27.8854C30.0849 28.6535 31.4752 26.2906 30.407 24.368L24.0599 12.9432ZM20.6978 13.8771C21.0642 13.2177 22.0125 13.2177 22.3789 13.8771L28.726 25.3019C29.082 25.9428 28.6186 26.7304 27.8854 26.7304H15.1913C14.4581 26.7304 13.9947 25.9428 14.3507 25.3019L20.6978 13.8771Z" fill="#FAB97A"/>
</g>
<defs>
<clipPath id="clip0_386_3634">
<rect width="53.0769" height="40" fill="white"/>
</clipPath>
</defs>
</svg>
