<svg width="46" height="32" viewBox="0 0 46 32" fill="none" xmlns="http://www.w3.org/2000/svg">
<path id="Subtract" fill-rule="evenodd" clip-rule="evenodd" d="M15.165 0.673828C6.7896 0.673828 0 7.46343 0 15.8388C0 24.2142 6.78961 31.0038 15.165 31.0038H30.023C38.3984 31.0038 45.188 24.2142 45.188 15.8388C45.188 7.46343 38.3984 0.673828 30.023 0.673828H15.165ZM29.8487 20.5428L23.7131 9.856C23.2186 8.99299 21.9697 8.99074 21.4752 9.856L15.3396 20.5428C14.7453 21.5793 15.769 22.7963 16.8973 22.389C20.5794 21.0626 24.609 21.0626 28.2911 22.389C29.417 22.7962 30.443 21.5793 29.8487 20.5428Z" fill="white"/>
</svg>
