<svg width="25" height="26" viewBox="0 0 25 26" fill="none" xmlns="http://www.w3.org/2000/svg">
<path fill-rule="evenodd" clip-rule="evenodd" d="M12.0029 3.5C8.13828 3.50158 5.00586 6.63498 5.00586 10.5V14.2648L3.67296 15.4563C3.2485 15.8357 3.00586 16.3781 3.00586 16.9474V18.5C3.00586 19.6046 3.90129 20.5 5.00586 20.5H8.13188C8.57592 22.2252 10.142 23.5 12.0059 23.5C13.8697 23.5 15.4358 22.2252 15.8798 20.5H19.0059C20.1104 20.5 21.0059 19.6046 21.0059 18.5V16.96C21.0059 16.3761 20.7506 15.8213 20.3072 15.4413L19.0059 14.3262V10.5H17.0059V14.7862C17.0059 15.0782 17.1335 15.3556 17.3552 15.5456L19.0059 16.96V18.5H5.00586L5.00586 16.9474L6.67231 15.4577C6.88454 15.268 7.00586 14.9969 7.00586 14.7122V10.5C7.00586 7.73955 9.24285 5.50158 12.0029 5.5V3.5ZM12.0059 21.5C12.7461 21.5 13.3925 21.0978 13.7383 20.5H10.2734C10.6192 21.0978 11.2656 21.5 12.0059 21.5Z" fill="white"/>
<rect x="14.5059" y="1" width="7" height="7" rx="3.5" fill="white"/>
</svg>
