<svg width="19" height="20" viewBox="0 0 19 20" fill="none" xmlns="http://www.w3.org/2000/svg">
<path fill-rule="evenodd" clip-rule="evenodd" d="M9.00293 0C5.13694 0 2.00293 3.13401 2.00293 7V10.7648L0.670029 11.9563C0.245567 12.3357 0.00292969 12.8781 0.00292969 13.4474V15C0.00292969 16.1046 0.89836 17 2.00293 17H5.12895C5.57299 18.7252 7.13909 20 9.00293 20C10.8668 20 12.4329 18.7252 12.8769 17H16.0029C17.1075 17 18.0029 16.1046 18.0029 15V13.46C18.0029 12.8761 17.7477 12.3213 17.3043 11.9413L16.0029 10.8262V7C16.0029 3.13401 12.8689 0 9.00293 0ZM10.7354 17C10.3896 17.5978 9.74321 18 9.00293 18C8.26265 18 7.6163 17.5978 7.27049 17H10.7354ZM16.0029 15V13.46L14.3523 12.0456C14.1305 11.8556 14.0029 11.5782 14.0029 11.2862V7C14.0029 4.23858 11.7644 2 9.00293 2C6.24151 2 4.00293 4.23858 4.00293 7V11.2122C4.00293 11.4969 3.88161 11.768 3.66938 11.9577L2.00293 13.4474L2.00293 15H16.0029Z" fill="white"/>
</svg>
