<svg width="54" height="54" viewBox="0 0 54 54" fill="none" xmlns="http://www.w3.org/2000/svg">
<path d="M4.87717 2.33146C5.06305 2.21679 5.27712 2.15576 5.49536 2.15576H40.7435C43.7738 2.15576 46.2392 4.59706 46.2392 7.58904L46.4463 37.943H52.8163C53.4701 37.943 54 38.4729 54 39.1266V44.5951C53.9958 48.6107 50.7417 51.8649 46.726 51.8695C46.6447 51.8695 46.5628 51.8612 46.4828 51.8445H17.074C16.8987 51.857 16.7221 51.8653 16.5441 51.8653C12.466 51.8579 9.16378 48.5511 9.1624 44.473V26.7292H1.18378C0.529999 26.7292 0.000125885 26.1993 0.000125885 25.5455V7.97465C0.0144577 5.14913 2.08355 2.75453 4.87717 2.33146ZM51.6327 44.5955V40.3108H23.9258V44.4735C23.9272 46.328 23.2295 48.1146 21.9714 49.4772H46.8879C46.9438 49.4777 46.9993 49.4818 47.0543 49.4901C49.6292 49.3149 51.6294 47.1765 51.6327 44.5955ZM11.5297 7.97465V44.473C11.532 45.7963 12.0577 47.0641 12.9922 48.0004C13.8869 48.9182 15.1024 49.4541 16.3832 49.4948C16.447 49.4837 16.5117 49.4781 16.5769 49.4777H16.993C19.5712 49.2238 21.5414 47.0646 21.5585 44.4739V39.1266C21.5585 38.4733 22.0883 37.943 22.7421 37.943H44.079L43.8718 7.59736C43.8547 5.88568 42.4556 4.51014 40.7435 4.52308H10.3539C11.1164 5.51209 11.5302 6.7258 11.5297 7.97465ZM2.36745 24.3619H9.1624V7.97465C9.13142 6.1201 7.61948 4.63359 5.76492 4.63359C3.91037 4.63359 2.39842 6.1201 2.36745 7.97465V24.3619Z" fill="#F59AA0"/>
<g clip-path="url(#clip0_386_3585)">
<path d="M29.0833 18.7498C29.0833 18.1515 28.5983 17.6665 28 17.6665C27.4017 17.6665 26.9166 18.1515 26.9166 18.7498V23.0832C26.9166 23.6815 27.4017 24.1665 28 24.1665C28.5983 24.1665 29.0833 23.6815 29.0833 23.0832V18.7498Z" fill="#F59AA0"/>
<path d="M28 25.7916C27.2521 25.7916 26.6459 26.3979 26.6459 27.1458C26.6459 27.8936 27.2521 28.4999 28 28.4999C28.7479 28.4999 29.3542 27.8936 29.3542 27.1458C29.3542 26.3979 28.7479 25.7916 28 25.7916Z" fill="#F59AA0"/>
<path fill-rule="evenodd" clip-rule="evenodd" d="M30.841 14.0496C29.6027 11.8207 26.3972 11.8207 25.159 14.0496L18.0079 26.9215C16.8044 29.0877 18.3708 31.7498 20.8489 31.7498H35.151C37.6291 31.7498 39.1955 29.0877 37.992 26.9215L30.841 14.0496ZM27.053 15.1018C27.4657 14.3589 28.5342 14.3589 28.947 15.1018L36.098 27.9737C36.4992 28.6958 35.977 29.5832 35.151 29.5832H20.8489C20.0229 29.5832 19.5008 28.6958 19.9019 27.9737L27.053 15.1018Z" fill="#F59AA0"/>
</g>
<defs>
<clipPath id="clip0_386_3585">
<rect width="21.6667" height="21.6667" fill="white" transform="translate(17.1667 11.1665)"/>
</clipPath>
</defs>
</svg>
