<svg xmlns="http://www.w3.org/2000/svg" width="13" height="12" viewBox="0 0 13 12" fill="none">
  <path d="M9.88098 2H9.33098C9.10098 0.86 8.09098 0 6.88098 0H5.88098C4.67598 0 3.66598 0.86 3.43098 2H2.88098C1.50098 2 0.380981 3.12 0.380981 4.5V9.5C0.380981 10.88 1.50098 12 2.88098 12H9.88098C11.261 12 12.381 10.88 12.381 9.5V4.5C12.381 3.12 11.261 2 9.88098 2ZM5.88098 1H6.88098C7.53098 1 8.09098 1.42 8.29598 2H4.46598C4.67098 1.42 5.22598 1 5.88098 1ZM11.381 9.5C11.381 10.325 10.706 11 9.88098 11H2.88098C2.05598 11 1.38098 10.325 1.38098 9.5V4.5C1.38098 3.675 2.05598 3 2.88098 3H9.88098C10.706 3 11.381 3.675 11.381 4.5V9.5Z" fill="#E4E4ED"/>
</svg>