<svg width="16" height="17" viewBox="0 0 16 17" fill="none" xmlns="http://www.w3.org/2000/svg">
<g clip-path="url(#clip0_659_12655)">
<path d="M13.3335 8.49967C13.3335 5.55416 10.9457 3.16634 8.00014 3.16634C6.53046 3.16634 5.19918 3.76058 4.23397 4.72326L5.1918 4.51492C5.55157 4.43666 5.90667 4.66487 5.98493 5.02465C6.06319 5.38443 5.83497 5.73953 5.47519 5.81778L2.80849 6.39784C2.61141 6.44071 2.40551 6.39205 2.24847 6.26549C2.09143 6.13894 2.00012 5.94809 2.00012 5.7464L2.00014 3.16634C2.00014 2.79815 2.29862 2.49967 2.66681 2.49967C3.035 2.49968 3.33348 2.79816 3.33347 3.16635L3.33347 3.73884C4.53551 2.5605 6.18268 1.83301 8.00014 1.83301C11.682 1.83301 14.6668 4.81778 14.6668 8.49967C14.6668 12.1816 11.682 15.1663 8.00014 15.1663C5.41924 15.1663 3.18205 13.6996 2.07459 11.5573C1.90551 11.2302 2.03359 10.828 2.36066 10.6589C2.68773 10.4898 3.08994 10.6179 3.25902 10.945C4.14654 12.6618 5.93713 13.833 8.00014 13.833C10.9457 13.833 13.3335 11.4452 13.3335 8.49967Z" fill="#D3D3DE"/>
</g>
<defs>
<clipPath id="clip0_659_12655">
<rect width="13.3333" height="13.3333" fill="white" transform="matrix(-1 0 0 1 14.6667 1.83301)"/>
</clipPath>
</defs>
</svg>
