<svg width="21" height="20" viewBox="0 0 21 20" fill="none" xmlns="http://www.w3.org/2000/svg">
<g id="Group">
<path id="Vector" d="M8.0506 16.0928C9.83851 16.0928 11.5753 15.4963 12.9858 14.3977L18.3072 19.7191C18.7048 20.103 19.3382 20.092 19.7221 19.6945C20.0967 19.3067 20.0967 18.6919 19.7221 18.3042L14.4007 12.9828C17.1269 9.47344 16.492 4.41858 12.9827 1.69241C9.47339 -1.03376 4.41858 -0.398932 1.69241 3.11039C-1.03376 6.61971 -0.398932 11.6746 3.11039 14.4007C4.52321 15.4983 6.26153 16.0937 8.0506 16.0928ZM3.77486 3.77179C6.13631 1.4103 9.96498 1.41025 12.3265 3.7717C14.688 6.13315 14.688 9.96181 12.3266 12.3233C9.96511 14.6848 6.13644 14.6848 3.77495 12.3234C3.77491 12.3234 3.77491 12.3234 3.77486 12.3233C1.41342 9.97906 1.3995 6.16436 3.74375 3.80291C3.7541 3.79251 3.76446 3.78215 3.77486 3.77179Z" fill="#9D9DA8"/>
</g>
</svg>
