<svg width="15" height="16" viewBox="0 0 15 16" fill="none" xmlns="http://www.w3.org/2000/svg">
<path d="M13.2953 2.46213C12.3457 2.36152 11.411 2.15027 10.5104 1.83267C9.6842 1.54069 8.89158 1.1612 8.14608 0.700651C7.95161 0.581573 7.72802 0.518555 7.5 0.518555C7.27197 0.518555 7.04838 0.581573 6.85392 0.700651C6.10842 1.16121 5.3158 1.54071 4.48958 1.83267C3.58897 2.15028 2.65433 2.36154 1.70467 2.46215C1.39987 2.49344 1.11751 2.63672 0.912284 2.86424C0.707055 3.09177 0.593552 3.38735 0.59375 3.69376V7.37377C0.594239 8.73164 0.957582 10.0647 1.64618 11.235C2.33477 12.4054 3.3236 13.3704 4.51034 14.0303L6.8975 15.3564C7.08143 15.4595 7.28874 15.5137 7.49961 15.5137C7.71047 15.5138 7.91782 15.4597 8.10181 15.3567L10.4897 14.0303C11.6764 13.3704 12.6652 12.4054 13.3538 11.235C14.0424 10.0647 14.4058 8.73164 14.4062 7.37377V3.69376C14.4065 3.38734 14.293 3.09176 14.0877 2.86423C13.8825 2.6367 13.6001 2.49342 13.2953 2.46213Z" fill="#0DB561"/>
<path d="M7.00397 10.2906C6.79575 10.2909 6.59475 10.2142 6.43953 10.0755L4.42105 8.28147C4.33729 8.20745 4.26896 8.11762 4.21997 8.01714C4.17099 7.91666 4.14231 7.8075 4.13558 7.69592C4.12884 7.58434 4.1442 7.47253 4.18075 7.36689C4.2173 7.26125 4.27434 7.16386 4.3486 7.0803C4.42285 6.99674 4.51286 6.92866 4.61347 6.87994C4.71409 6.83123 4.82332 6.80285 4.93492 6.79642C5.04652 6.78999 5.15829 6.80565 5.26383 6.84249C5.36937 6.87933 5.4666 6.93663 5.54996 7.01111L6.95002 8.25519L9.74877 5.27C9.90303 5.10589 10.1161 5.00966 10.3412 5.0024C10.5663 4.99513 10.7851 5.07744 10.9496 5.23126C11.1141 5.3855 11.2106 5.5987 11.218 5.82405C11.2254 6.04939 11.143 6.26846 10.989 6.43315L7.62446 10.0222C7.54508 10.1072 7.449 10.175 7.34223 10.2211C7.23546 10.2673 7.1203 10.291 7.00397 10.2906Z" fill="white"/>
</svg>
