<svg width="44" height="44" viewBox="0 0 44 44" fill="none" xmlns="http://www.w3.org/2000/svg">
<rect width="44" height="44" rx="8" fill="#5C1217"/>
<path d="M21.864 30.286C21.0133 30.286 20.1957 30.154 19.411 29.89C18.6337 29.6187 17.9517 29.2337 17.365 28.735C16.7783 28.229 16.3567 27.624 16.1 26.92L18.619 25.996C18.7217 26.2893 18.9307 26.557 19.246 26.799C19.5613 27.041 19.9463 27.2353 20.401 27.382C20.8557 27.5287 21.3433 27.602 21.864 27.602C22.3993 27.602 22.898 27.5213 23.36 27.36C23.8293 27.1913 24.207 26.9603 24.493 26.667C24.779 26.3663 24.922 26.018 24.922 25.622C24.922 25.2187 24.7717 24.8887 24.471 24.632C24.1703 24.368 23.7853 24.159 23.316 24.005C22.8467 23.851 22.3627 23.7337 21.864 23.653C20.7713 23.4843 19.7923 23.224 18.927 22.872C18.0617 22.52 17.376 22.0323 16.87 21.409C16.3713 20.7857 16.122 19.979 16.122 18.989C16.122 18.0577 16.3897 17.2437 16.925 16.547C17.4603 15.8503 18.1643 15.3077 19.037 14.919C19.9097 14.5303 20.852 14.336 21.864 14.336C22.7073 14.336 23.5213 14.468 24.306 14.732C25.0907 14.996 25.7763 15.381 26.363 15.887C26.957 16.393 27.3823 17.0017 27.639 17.713L25.109 18.626C25.0063 18.3327 24.7973 18.065 24.482 17.823C24.1667 17.581 23.7817 17.3903 23.327 17.251C22.8723 17.1043 22.3847 17.031 21.864 17.031C21.3433 17.0237 20.8483 17.108 20.379 17.284C19.917 17.4527 19.5393 17.6837 19.246 17.977C18.9527 18.2703 18.806 18.6077 18.806 18.989C18.806 19.4803 18.9417 19.8507 19.213 20.1C19.4917 20.3493 19.862 20.5327 20.324 20.65C20.786 20.76 21.2993 20.8627 21.864 20.958C22.8907 21.1193 23.8403 21.3907 24.713 21.772C25.5857 22.1533 26.286 22.663 26.814 23.301C27.342 23.9317 27.606 24.7053 27.606 25.622C27.606 26.5533 27.342 27.371 26.814 28.075C26.286 28.7717 25.5857 29.3143 24.713 29.703C23.8403 30.0917 22.8907 30.286 21.864 30.286Z" fill="#F59AA0"/>
</svg>
