<svg width="38" height="38" viewBox="0 0 38 38" fill="none" xmlns="http://www.w3.org/2000/svg">
<g id="suitcase 1">
<g id="Group">
<g id="Group_2">
<path id="Vector" d="M34.6602 9.17115H24.2447V7.78809C24.2447 5.9465 22.7465 4.44824 20.9049 4.44824H17.0952C15.2536 4.44824 13.7553 5.9465 13.7553 7.78809V9.17115H3.33984C1.49825 9.17115 0 10.6694 0 12.511V30.2118C0 32.0534 1.49825 33.5516 3.33984 33.5516H34.6602C36.5017 33.5516 38 32.0534 38 30.2118V12.511C38 10.6694 36.5017 9.17115 34.6602 9.17115ZM17.0951 6.6748H20.9048C21.5187 6.6748 22.0181 7.17422 22.0181 7.78809V9.17115H15.9818V7.78809C15.9818 7.17422 16.4812 6.6748 17.0951 6.6748ZM6.52969 31.3251H3.33984C2.72598 31.3251 2.22656 30.8257 2.22656 30.2118V12.511C2.22656 11.8971 2.72598 11.3977 3.33984 11.3977H6.52969V31.3251ZM29.2437 31.3251H8.75625V11.3977H29.2437V31.3251ZM35.7734 30.2118C35.7734 30.8257 35.274 31.3251 34.6602 31.3251H31.4703V11.3977H34.6602C35.274 11.3977 35.7734 11.8971 35.7734 12.511V30.2118Z" fill="#B7B7C2"/>
</g>
</g>
</g>
</svg>
