<svg xmlns="http://www.w3.org/2000/svg" width="24" height="24" viewBox="0 0 24 24" fill="none">
  <path fill-rule="evenodd" clip-rule="evenodd" d="M14.4071 5.74915L14.4841 6.21659C13.1077 6.17119 11.7338 6.16135 10.3629 6.19483L10.4377 5.73513C10.4657 5.53877 10.5218 5.23017 10.5499 5.17407C10.5499 5.17407 10.6902 5.08991 11.2091 5.08991H13.6217C14.1266 5.08991 14.2669 5.17407 14.2669 5.17407C14.323 5.2442 14.3791 5.55278 14.4071 5.74915ZM8.36178 5.39849L8.21765 6.28384C7.45577 6.32888 6.69483 6.38861 5.93491 6.46439L4.05538 6.64673C3.4803 6.70284 3.05951 7.22183 3.11561 7.79691C3.17172 8.37199 3.67667 8.79278 4.26577 8.73667L5.11727 8.65406L5.66824 17.1239C5.76643 18.5405 5.92073 20.6725 9.46939 20.6725H15.3745C18.9311 20.6725 19.0769 18.5477 19.1751 17.1171L19.1756 17.1098L19.7266 8.65335C20.0197 8.68004 20.313 8.70784 20.6064 8.73667H20.7046C21.2376 8.73667 21.7005 8.32991 21.7566 7.79691C21.8127 7.22183 21.3919 6.70284 20.8168 6.64673C19.4147 6.50889 18.0149 6.39537 16.6175 6.31426L16.469 5.41251L16.4674 5.40297C16.3268 4.55912 16.067 3 13.6217 3H11.2091C8.77399 3 8.51721 4.49411 8.36281 5.39247L8.36178 5.39849ZM17.6246 8.48219C14.1378 8.23388 10.667 8.17437 7.21751 8.45566L7.77219 16.9696L7.77237 16.9721C7.87039 18.3444 7.8854 18.5545 9.46939 18.5545H15.3745C16.9584 18.5545 16.9735 18.3444 17.0715 16.9722L17.0717 16.9696L17.6246 8.48219Z" fill="#FAC3C8"/>
</svg>