<svg width="498" height="155" viewBox="0 0 498 155" fill="none" xmlns="http://www.w3.org/2000/svg">
<g filter="url(#filter0_d_3016_10107)">
<path fill-rule="evenodd" clip-rule="evenodd" d="M54 105.896C85.66 105.896 92.0069 100.08 104.157 85.6127C104.494 85.2125 104.825 84.8172 105.153 84.4267C118.115 68.9711 124.713 61.1035 154.597 61.1035H222.891H275.109H343.403C373.287 61.1035 379.885 68.971 392.847 84.4267C393.175 84.8172 393.506 85.2125 393.843 85.6127C405.993 100.08 412.34 105.896 444 105.896H278.173H219.827H54Z" fill="#17171A" shape-rendering="crispEdges"/>
<path d="M104.157 85.6127L104.54 85.9343L104.54 85.9343L104.157 85.6127ZM105.153 84.4267L105.536 84.748L105.536 84.748L105.153 84.4267ZM392.847 84.4267L392.464 84.748L392.464 84.748L392.847 84.4267ZM393.843 85.6127L394.225 85.2911L394.225 85.2911L393.843 85.6127ZM103.775 85.2911C97.6978 92.5264 93.1361 97.5149 86.1851 100.726C79.2243 103.941 69.8131 105.396 54 105.396V106.396C69.8469 106.396 79.4392 104.943 86.6044 101.633C93.7796 98.3191 98.4666 93.1659 104.54 85.9343L103.775 85.2911ZM104.77 84.1054C104.442 84.4959 104.111 84.8911 103.775 85.2911L104.54 85.9343C104.877 85.5339 105.208 85.1385 105.536 84.748L104.77 84.1054ZM154.597 60.6035C139.617 60.6035 130.399 62.574 123.286 66.5324C116.186 70.4842 111.238 76.3932 104.77 84.1054L105.536 84.748C112.03 77.0046 116.862 71.252 123.773 67.4061C130.671 63.5668 139.693 61.6035 154.597 61.6035V60.6035ZM222.891 60.6035H154.597V61.6035H222.891V60.6035ZM222.891 61.6035H275.109V60.6035H222.891V61.6035ZM275.109 61.6035H343.403V60.6035H275.109V61.6035ZM343.403 61.6035C358.307 61.6035 367.329 63.5668 374.227 67.4061C381.138 71.252 385.97 77.0046 392.464 84.748L393.23 84.1054C386.762 76.3931 381.814 70.4841 374.714 66.5323C367.601 62.574 358.383 60.6035 343.403 60.6035V61.6035ZM392.464 84.748C392.792 85.1384 393.123 85.5339 393.46 85.9343L394.225 85.2911C393.889 84.8911 393.558 84.4959 393.23 84.1054L392.464 84.748ZM393.46 85.9343C399.533 93.1659 404.22 98.3191 411.396 101.633C418.561 104.943 428.153 106.396 444 106.396V105.396C428.187 105.396 418.776 103.941 411.815 100.726C404.864 97.5149 400.302 92.5264 394.225 85.2911L393.46 85.9343ZM444 105.396H278.173V106.396H444V105.396ZM278.173 105.396H219.827V106.396H278.173V105.396ZM54 106.396H219.827V105.396H54V106.396Z" fill="url(#paint0_linear_3016_10107)" fill-opacity="0.38"/>
</g>
<defs>
<filter id="filter0_d_3016_10107" x="0" y="0.603516" width="498" height="153.793" filterUnits="userSpaceOnUse" color-interpolation-filters="sRGB">
<feFlood flood-opacity="0" result="BackgroundImageFix"/>
<feColorMatrix in="SourceAlpha" type="matrix" values="0 0 0 0 0 0 0 0 0 0 0 0 0 0 0 0 0 0 127 0" result="hardAlpha"/>
<feOffset dy="-6"/>
<feGaussianBlur stdDeviation="27"/>
<feComposite in2="hardAlpha" operator="out"/>
<feColorMatrix type="matrix" values="0 0 0 0 0 0 0 0 0 0 0 0 0 0 0 0 0 0 0.45 0"/>
<feBlend mode="normal" in2="BackgroundImageFix" result="effect1_dropShadow_3016_10107"/>
<feBlend mode="normal" in="SourceGraphic" in2="effect1_dropShadow_3016_10107" result="shape"/>
</filter>
<linearGradient id="paint0_linear_3016_10107" x1="249" y1="61.1035" x2="249" y2="105.896" gradientUnits="userSpaceOnUse">
<stop stop-color="#E4E4ED"/>
<stop offset="1" stop-color="#E4E4ED" stop-opacity="0"/>
</linearGradient>
</defs>
</svg>
