<svg width="390" height="47" viewBox="0 0 390 47" fill="none" xmlns="http://www.w3.org/2000/svg">
<path fill-rule="evenodd" clip-rule="evenodd" d="M0 45.7927C31.66 45.7927 38.0069 39.9761 50.1575 25.5092C50.4936 25.109 50.8251 24.7137 51.1526 24.3232C64.115 8.86755 70.7134 1 100.597 1H168.891H221.109H289.403C319.287 1 325.885 8.86753 338.847 24.3231C339.175 24.7137 339.506 25.109 339.843 25.5092C351.993 39.9761 358.34 45.7927 390 45.7927H224.173H165.827H0Z" fill="#17171A"/>
<path d="M50.1575 25.5092L50.5404 25.8308L50.5404 25.8308L50.1575 25.5092ZM51.1526 24.3232L51.5357 24.6445L51.5357 24.6445L51.1526 24.3232ZM338.847 24.3231L338.464 24.6444L338.464 24.6444L338.847 24.3231ZM339.843 25.5092L340.225 25.1876L340.225 25.1876L339.843 25.5092ZM49.7746 25.1876C43.6978 32.4229 39.1361 37.4114 32.1851 40.6221C25.2243 43.8374 15.8131 45.2927 0 45.2927V46.2927C15.8469 46.2927 25.4392 44.8396 32.6044 41.5299C39.7796 38.2156 44.4666 33.0623 50.5404 25.8308L49.7746 25.1876ZM50.7695 24.0019C50.442 24.3924 50.1106 24.7876 49.7746 25.1876L50.5404 25.8308C50.8766 25.4304 51.2083 25.035 51.5357 24.6445L50.7695 24.0019ZM100.597 0.5C85.6175 0.5 76.3985 2.47048 69.2862 6.42884C62.1857 10.3806 57.2377 16.2897 50.7695 24.0019L51.5357 24.6445C58.03 16.9011 62.8623 11.1485 69.7725 7.30262C76.6709 3.4633 85.6931 1.5 100.597 1.5V0.5ZM168.891 0.5H100.597V1.5H168.891V0.5ZM168.891 1.5H221.109V0.5H168.891V1.5ZM221.109 1.5H289.403V0.5H221.109V1.5ZM289.403 1.5C304.307 1.5 313.329 3.46329 320.227 7.30261C327.138 11.1485 331.97 16.9011 338.464 24.6444L339.23 24.0018C332.762 16.2896 327.814 10.3806 320.714 6.42882C313.601 2.47047 304.383 0.5 289.403 0.5V1.5ZM338.464 24.6444C338.792 25.0349 339.123 25.4304 339.46 25.8308L340.225 25.1876C339.889 24.7876 339.558 24.3924 339.23 24.0018L338.464 24.6444ZM339.46 25.8308C345.533 33.0623 350.22 38.2156 357.396 41.5299C364.561 44.8396 374.153 46.2927 390 46.2927V45.2927C374.187 45.2927 364.776 43.8374 357.815 40.6221C350.864 37.4114 346.302 32.4229 340.225 25.1876L339.46 25.8308ZM390 45.2927H224.173V46.2927H390V45.2927ZM224.173 45.2927H165.827V46.2927H224.173V45.2927ZM0 46.2927H165.827V45.2927H0V46.2927Z" fill="url(#paint0_linear_3024_10133)" fill-opacity="0.38"/>
<defs>
<linearGradient id="paint0_linear_3024_10133" x1="195" y1="1" x2="195" y2="45.7927" gradientUnits="userSpaceOnUse">
<stop stop-color="#E4E4ED"/>
<stop offset="1" stop-color="#E4E4ED" stop-opacity="0"/>
</linearGradient>
</defs>
</svg>
