<svg width="21" height="20" viewBox="0 0 21 20" fill="none" xmlns="http://www.w3.org/2000/svg">
<g id="user-xmark">
<path id="Vector" d="M5.25 5C5.25 2.2425 7.60463 0 10.5 0C13.3954 0 15.75 2.2425 15.75 5C15.75 7.7575 13.3954 10 10.5 10C7.60463 10 5.25 7.7575 5.25 5ZM7 5C7 6.83833 8.56975 8.33333 10.5 8.33333C12.4303 8.33333 14 6.83833 14 5C14 3.16167 12.4303 1.66667 10.5 1.66667C8.56975 1.66667 7 3.16167 7 5ZM10.5 11.6667C6.64038 11.6667 3.5 14.6575 3.5 18.3333V19.1667C3.5 19.6275 3.892 20 4.375 20C4.858 20 5.25 19.6275 5.25 19.1667V18.3333C5.25 15.5758 7.60463 13.3333 10.5 13.3333C13.3954 13.3333 15.75 15.5758 15.75 18.3333V19.1667C15.75 19.6275 16.142 20 16.625 20C17.108 20 17.5 19.6275 17.5 19.1667V18.3333C17.5 14.6575 14.3596 11.6667 10.5 11.6667Z" fill="#6A6A75"/>
</g>
</svg>
