<svg width="21" height="20" viewBox="0 0 21 20" fill="none" xmlns="http://www.w3.org/2000/svg">
<g id="user-xmark">
<path id="Vector" d="M5.25 5C5.25 2.2425 7.60462 0 10.5 0C13.3954 0 15.75 2.2425 15.75 5C15.75 7.7575 13.3954 10 10.5 10C7.60462 10 5.25 7.7575 5.25 5ZM10.5 11.6667C6.64038 11.6667 3.5 14.6575 3.5 18.3333V19.1667C3.5 19.6275 3.892 20 4.375 20C5.91398 20 7.2748 20 10.5 20C13.7252 20 15.086 20 16.625 20C17.108 20 17.5 19.6275 17.5 19.1667V18.3333C17.5 14.6575 14.3596 11.6667 10.5 11.6667Z" fill="white"/>
</g>
</svg>
