<svg width="89" height="78" viewBox="0 0 89 78" fill="none" xmlns="http://www.w3.org/2000/svg">
<g clip-path="url(#clip0_413_4062)">
<path d="M80.7 16.7C80.7 17.4186 81.2814 18 82 18C82.7186 18 83.3 17.4186 83.3 16.7C83.3 14.5495 85.0495 12.8 87.2 12.8C87.9186 12.8 88.5 12.2186 88.5 11.5C88.5 10.7814 87.9186 10.2 87.2 10.2C85.0495 10.2 83.3 8.45055 83.3 6.3C83.3 5.58145 82.7186 5 82 5C81.2814 5 80.7 5.58145 80.7 6.3C80.7 8.45055 78.9505 10.2 76.8 10.2C76.0814 10.2 75.5 10.7814 75.5 11.5C75.5 12.2186 76.0814 12.8 76.8 12.8C78.9505 12.8 80.7 14.5495 80.7 16.7Z" fill="#FAB97A"/>
<path fill-rule="evenodd" clip-rule="evenodd" d="M22.5 19.5C13.9396 19.5 7 26.4396 7 35V56C7 64.5604 13.9396 71.5 22.5 71.5H59.5C68.0604 71.5 75 64.5604 75 56V35C75 26.4396 68.0604 19.5 59.5 19.5H22.5ZM10 35C10 28.0964 15.5964 22.5 22.5 22.5H59.5C66.4036 22.5 72 28.0964 72 35V38H71.5H63C58.8579 38 55.5 41.3579 55.5 45.5C55.5 49.6421 58.8579 53 63 53H71.5H72V56C72 62.9036 66.4036 68.5 59.5 68.5H22.5C15.5964 68.5 10 62.9036 10 56V35ZM58.5 45.5C58.5 43.0147 60.5147 41 63 41H68.5H71.5V44V47V50H68.5H63C60.5147 50 58.5 47.9853 58.5 45.5Z" fill="#6A6A75"/>
<path d="M33.5 37C31.114 37.003 28.8266 37.9522 27.1394 39.6393C25.4522 41.3265 24.503 43.6139 24.5 46C24.4954 47.6336 24.9454 49.2363 25.7998 50.6288C26.5944 51.9598 27.7204 53.0622 29.068 53.8283C30.4156 54.5944 31.9388 54.9981 33.489 55C35.0391 55.0019 36.5633 54.602 37.9128 53.8392C39.2623 53.0764 40.391 51.9768 41.1888 50.6477C42.0496 49.2505 42.5036 47.641 42.5 46C42.497 43.6139 41.5478 41.3265 39.8606 39.6393C38.1735 37.9522 35.886 37.003 33.5 37ZM38.7579 49.1755C38.2131 50.0865 37.4409 50.8404 36.5171 51.3632C35.5933 51.8861 34.5495 52.1599 33.488 52.158C32.4265 52.1561 31.3837 51.8785 30.4618 51.3523C29.5398 50.8262 28.7704 50.0695 28.2289 49.1566C27.6463 48.2069 27.3393 47.114 27.3421 46C27.3421 44.3668 27.9909 42.8005 29.1457 41.6457C30.3006 40.4909 31.8668 39.8421 33.5 39.8421C35.1332 39.8421 36.6995 40.4909 37.8543 41.6457C39.0091 42.8005 39.6579 44.3668 39.6579 46C39.6598 47.1217 39.3481 48.2216 38.7579 49.1755ZM37.7537 45.9677C37.7537 46.3446 37.604 46.7061 37.3375 46.9726C37.071 47.2391 36.7095 47.3888 36.3326 47.3888H34.9211V48.8648C34.9211 49.2417 34.7713 49.6031 34.5048 49.8696C34.2383 50.1361 33.8769 50.2858 33.5 50.2858C33.1231 50.2858 32.7617 50.1361 32.4952 49.8696C32.2287 49.6031 32.079 49.2417 32.079 48.8648V47.3888H30.6674C30.2905 47.3888 29.9291 47.2391 29.6626 46.9726C29.3961 46.7061 29.2463 46.3446 29.2463 45.9677C29.2463 45.5909 29.3961 45.2294 29.6626 44.9629C29.9291 44.6964 30.2905 44.5467 30.6674 44.5467H32.079V43.1995C32.079 42.8227 32.2287 42.4612 32.4952 42.1947C32.7617 41.9282 33.1231 41.7785 33.5 41.7785C33.8769 41.7785 34.2383 41.9282 34.5048 42.1947C34.7713 42.4612 34.9211 42.8227 34.9211 43.1995V44.5467H36.3421C36.7173 44.5492 37.0764 44.7 37.3408 44.9662C37.6053 45.2325 37.7537 45.5925 37.7537 45.9677Z" fill="#73DEA1"/>
</g>
<defs>
<clipPath id="clip0_413_4062">
<rect width="88" height="78" fill="white" transform="translate(0.5)"/>
</clipPath>
</defs>
</svg>
