<svg width="20" height="20" viewBox="0 0 20 20" fill="none" xmlns="http://www.w3.org/2000/svg">
<g id="Live area">
<path id="Vector" fill-rule="evenodd" clip-rule="evenodd" d="M7.37735 2.66124C8.52036 0.60381 11.4793 0.603804 12.6223 2.66123L19.2233 14.543C20.3341 16.5426 18.8882 18.9999 16.6008 18.9999H3.39885C1.11139 18.9999 -0.334511 16.5426 0.776375 14.543L7.37735 2.66124ZM9.99988 12.2499C10.6902 12.2499 11.2499 11.6903 11.2499 10.9999V5.99994C11.2499 5.30958 10.6902 4.74994 9.99988 4.74994C9.30952 4.74994 8.74988 5.30958 8.74988 5.99994V10.9999C8.74988 11.6903 9.30952 12.2499 9.99988 12.2499ZM11.4999 15.4999C11.4999 14.6715 10.8283 13.9999 9.99988 13.9999C9.17145 13.9999 8.49988 14.6715 8.49988 15.4999C8.49988 16.3284 9.17145 16.9999 9.99988 16.9999C10.8283 16.9999 11.4999 16.3284 11.4999 15.4999Z" fill="white"/>
</g>
</svg>
