<svg width="23" height="24" viewBox="0 0 23 24" fill="none" xmlns="http://www.w3.org/2000/svg">
<g clip-path="url(#clip0_493_10283)">
<path d="M19.5824 3.84001C17.4218 1.68745 14.5475 0.501228 11.4884 0.5C8.43619 0.5 5.55733 1.68517 3.38248 3.8372C1.20377 5.99293 0.00280762 8.85775 0 11.8935V11.897V11.8991C0.000350952 13.7365 0.483086 15.5901 1.39942 17.282L0.0314102 23.5L6.321 22.0693C7.91397 22.8721 9.69137 23.2954 11.484 23.2961H11.4886C14.5403 23.2961 17.4192 22.1108 19.5944 19.9585C21.775 17.8011 22.9765 14.9399 22.9779 11.9023C22.9788 8.886 21.7731 6.02276 19.5824 3.84001ZM11.4884 21.501H11.4844C9.87474 21.5003 8.27984 21.0962 6.87234 20.332L6.57491 20.1705L2.39262 21.1218L3.30106 16.9932L3.12593 16.6912C2.25522 15.1896 1.79512 13.5321 1.79512 11.8972C1.79845 6.60534 6.1464 2.29512 11.4881 2.29512C14.0686 2.29617 16.4933 3.29656 18.3155 5.11169C20.1652 6.95489 21.1835 9.36628 21.1826 11.9017C21.1805 17.1948 16.8317 21.501 11.4884 21.501Z" fill="#D3D3DE"/>
<path d="M8.36242 6.87256H7.8588C7.6835 6.87256 7.39888 6.93819 7.15813 7.20017C6.9172 7.46233 6.23828 8.09598 6.23828 9.38467C6.23828 10.6734 7.18006 11.9185 7.31132 12.0935C7.44275 12.2683 9.12925 14.9973 11.8003 16.0471C14.0203 16.9196 14.4721 16.7461 14.9538 16.7024C15.4357 16.6589 16.5087 16.0689 16.7277 15.4574C16.9467 14.8458 16.9467 14.3215 16.8811 14.212C16.8153 14.1029 16.64 14.0374 16.3773 13.9065C16.1144 13.7754 14.8264 13.1311 14.5855 13.0435C14.3446 12.9563 14.1694 12.9126 13.9941 13.175C13.8188 13.4368 13.3028 14.0425 13.1494 14.2173C12.9962 14.3922 12.8429 14.4142 12.58 14.2831C12.3171 14.1517 11.4794 13.8702 10.4755 12.9781C9.69411 12.2837 9.15189 11.3983 8.99852 11.1361C8.84533 10.8741 8.9822 10.7323 9.11398 10.6016C9.23208 10.4844 9.39159 10.324 9.52302 10.1712C9.65427 10.0181 9.69165 9.909 9.77939 9.73422C9.86695 9.55945 9.82308 9.40643 9.75745 9.27553C9.69165 9.14445 9.18733 7.84926 8.9536 7.33125H8.95377C8.75689 6.89502 8.54965 6.88028 8.36242 6.87256Z" fill="#D3D3DE"/>
</g>
<defs>
<clipPath id="clip0_493_10283">
<rect width="23" height="23" fill="white" transform="translate(0 0.5)"/>
</clipPath>
</defs>
</svg>
