<svg width="19" height="20" viewBox="0 0 19 20" fill="none" xmlns="http://www.w3.org/2000/svg">
<path d="M17 10C17 5.58172 13.4182 2 8.99996 2C6.79545 2 4.79853 2.89135 3.35071 4.33538L4.78745 4.02286C5.32712 3.90547 5.85976 4.2478 5.97715 4.78747C6.09454 5.32713 5.75221 5.85978 5.21255 5.97716L1.21249 6.84725C0.916865 6.91155 0.608025 6.83856 0.372462 6.64873C0.136898 6.45889 -6.2566e-05 6.17262 -5.87513e-05 5.87009L-3.20484e-05 1.99999C-2.82337e-05 1.44771 0.447691 0.999996 0.999976 1C1.55226 1 1.99997 1.44772 1.99997 2.00001L1.99996 2.85875C3.80302 1.09124 6.27377 0 8.99996 0C14.5228 0 19 4.47715 19 10C19 15.5228 14.5228 20 8.99996 20C5.12862 20 1.77282 17.7999 0.111639 14.5864C-0.141979 14.0958 0.0501407 13.4925 0.540749 13.2389C1.03136 12.9853 1.63467 13.1774 1.88829 13.668C3.21956 16.2432 5.90545 18 8.99996 18C13.4182 18 17 14.4183 17 10Z" fill="#D3D3DE"/>
</svg>
