<svg width="14" height="15" viewBox="0 0 14 15" fill="none" xmlns="http://www.w3.org/2000/svg">
<g id="Live area">
<path id="Vector" d="M1.86177 11.6952C1.60142 11.9556 1.60142 12.3777 1.86177 12.638C2.12212 12.8984 2.54423 12.8984 2.80458 12.638L6.99984 8.44277L11.1951 12.638C11.4555 12.8984 11.8776 12.8984 12.1379 12.638C12.3983 12.3777 12.3983 11.9556 12.1379 11.6952L7.94265 7.49996L12.1379 3.3047C12.3983 3.04435 12.3983 2.62224 12.1379 2.36189C11.8776 2.10154 11.4554 2.10154 11.1951 2.36189L6.99984 6.55715L2.80458 2.36189C2.54423 2.10154 2.12212 2.10154 1.86177 2.36189C1.60142 2.62224 1.60142 3.04435 1.86177 3.3047L6.05703 7.49996L1.86177 11.6952Z" fill="#9D9DA8"/>
</g>
</svg>
