<svg width="390" height="1010" viewBox="0 0 390 1010" fill="none" xmlns="http://www.w3.org/2000/svg">
<path fill-rule="evenodd" clip-rule="evenodd" d="M-485.06 -239C-577.258 -239 -652 -164.258 -652 -72.06V1013.06C-652 1105.26 -577.258 1180 -485.06 1180H884.06C976.258 1180 1051 1105.26 1051 1013.06V-72.06C1051 -164.258 976.258 -239 884.06 -239H-485.06ZM472.889 579.695L241.624 176.887C222.986 144.358 175.91 144.273 157.272 176.887L-73.9932 579.695C-96.3929 618.763 -57.8062 664.634 -15.2785 649.285L192.672 574.375C197.053 572.797 201.847 572.797 206.228 574.375L414.177 649.285C456.615 664.634 495.289 618.763 472.889 579.695Z" fill="#131313"/>
</svg>
