<svg width="43" height="42" viewBox="0 0 43 42" fill="none" xmlns="http://www.w3.org/2000/svg">
<g id="Frame 6093">
<path id="Vector" d="M35.1556 14.9619C38.2817 22.5036 34.7021 31.1517 27.1603 34.2777C19.6185 37.4038 10.9705 33.8242 7.84442 26.2824C4.71833 18.7406 8.29796 10.0926 15.8397 6.96653C23.3815 3.84045 32.0295 7.42008 35.1556 14.9619Z" stroke="#5CEFB1" stroke-width="2"/>
<path id="Vector_2" d="M18.0946 25.2188C18.3388 25.5174 18.7001 25.6993 19.0865 25.7178C19.1091 25.7183 19.1302 25.7191 19.1515 25.7191C19.5155 25.7191 19.8658 25.574 20.1223 25.3143L28.0671 17.2758C28.5929 16.7437 28.5849 15.8889 28.0485 15.3666C27.5134 14.8437 26.653 14.8512 26.1256 15.3851L19.2483 22.3426L17.2046 19.8356C16.7332 19.2562 15.8755 19.1651 15.2924 19.6358C14.7082 20.1051 14.6178 20.9554 15.0906 21.5349L18.0946 25.2188Z" fill="#5CEFB1"/>
</g>
</svg>
