<svg width="204" height="183" viewBox="0 0 204 183" fill="none" xmlns="http://www.w3.org/2000/svg">
<g clip-path="url(#clip0_2115_46183)">
<path d="M0 16C0 7.16344 7.16344 0 16 0H188C196.837 0 204 7.16344 204 16V167C204 175.837 196.837 183 188 183H16C7.16344 183 0 175.837 0 167V16Z" fill="#2E2E2E"/>
<g filter="url(#filter0_d_2115_46183)">
<rect x="158.611" y="21.8057" width="32.7963" height="32.7963" rx="16.3981" fill="black"/>
</g>
<rect x="17.8704" y="29.6484" width="64.1667" height="14.2593" rx="3.56481" fill="#4B4B4B"/>
<rect x="17.8704" y="49.6113" width="17.1111" height="9.26" rx="3.56481" fill="#3E3E3E"/>
<rect x="40.6852" y="49.6113" width="72.7222" height="9.26" rx="3.56481" fill="#3E3E3E"/>
<g clip-path="url(#clip1_2115_46183)">
<path fill-rule="evenodd" clip-rule="evenodd" d="M173.862 35.074C172.762 33.9742 170.979 33.9742 169.879 35.074C168.779 36.1737 168.779 37.9567 169.879 39.0564L174.722 43.8995L179.565 39.0564C180.665 37.9567 180.665 36.1737 179.565 35.074C178.466 33.9742 176.683 33.9742 175.583 35.074L175.226 35.4304C174.948 35.7089 174.497 35.7089 174.218 35.4304L173.862 35.074ZM174.722 33.9248C173.057 32.4105 170.479 32.4575 168.871 34.0657C167.214 35.7223 167.214 38.4081 168.871 40.0647L174.218 45.4119C174.497 45.6904 174.948 45.6904 175.226 45.4119L180.574 40.0647C182.23 38.4081 182.23 35.7223 180.574 34.0657C178.965 32.4575 176.387 32.4105 174.722 33.9248Z" fill="white"/>
</g>
<rect x="-73.7454" y="80.1894" width="278.768" height="152.574" fill="#2E2E2E"/>
<rect x="-73.7454" y="80.1894" width="278.768" height="152.574" stroke="#29292E" stroke-width="0.712963"/>
<g opacity="0.4">
<path d="M20.7979 100.982L39.2984 117.635C42.3324 120.366 47.0626 119.874 49.4692 116.577L65.1862 95.0431C67.6848 91.6199 72.6528 91.244 75.638 94.2523L91.6951 110.434C94.0344 112.791 97.7231 113.143 100.466 111.271L116.342 100.436C119.102 98.5525 122.815 98.9215 125.15 101.311L140.775 117.301C143.622 120.214 148.361 120.034 150.979 116.913L168.647 95.8429C170.157 94.0434 172.478 93.1369 174.808 93.4379L183.634 94.5787" stroke="#D3D3DE" stroke-width="0.631934"/>
<rect x="17.1573" y="99.9258" width="3.56481" height="3.56481" rx="1.78241" fill="#B7B7C2"/>
<rect x="25" y="104.204" width="3.56481" height="3.56481" rx="1.78241" fill="#B7B7C2"/>
<rect x="32.8425" y="111.333" width="3.56481" height="3.56481" rx="1.78241" fill="#B7B7C2"/>
<rect x="40.6852" y="117.037" width="3.56481" height="3.56481" rx="1.78241" fill="#B7B7C2"/>
<rect x="48.5277" y="113.473" width="3.56481" height="3.56481" rx="1.78241" fill="#B7B7C2"/>
<rect x="56.3704" y="103.491" width="3.56481" height="3.56481" rx="1.78241" fill="#B7B7C2"/>
<rect x="64.2129" y="92.083" width="3.56481" height="3.56481" rx="1.78241" fill="#B7B7C2"/>
<rect x="72.0555" y="91.3701" width="3.56481" height="3.56481" rx="1.78241" fill="#B7B7C2"/>
<rect x="79.8981" y="98.5" width="3.56481" height="3.56481" rx="1.78241" fill="#B7B7C2"/>
<rect x="87.7407" y="106.343" width="3.56481" height="3.56481" rx="1.78241" fill="#B7B7C2"/>
<rect x="95.5833" y="110.62" width="3.56481" height="3.56481" rx="1.78241" fill="#B7B7C2"/>
<rect x="103.426" y="106.343" width="3.56481" height="3.56481" rx="1.78241" fill="#B7B7C2"/>
<rect x="111.269" y="100.639" width="3.56481" height="3.56481" rx="1.78241" fill="#B7B7C2"/>
<rect x="119.111" y="97.7871" width="3.56481" height="3.56481" rx="1.78241" fill="#B7B7C2"/>
<rect x="126.954" y="102.777" width="3.56481" height="3.56481" rx="1.78241" fill="#B7B7C2"/>
<rect x="134.796" y="111.333" width="3.56481" height="3.56481" rx="1.78241" fill="#B7B7C2"/>
<rect x="142.639" y="117.75" width="3.56481" height="3.56481" rx="1.78241" fill="#B7B7C2"/>
<rect x="150.481" y="113.473" width="3.56481" height="3.56481" rx="1.78241" fill="#B7B7C2"/>
<rect x="158.324" y="104.204" width="3.56481" height="3.56481" rx="1.78241" fill="#B7B7C2"/>
<rect x="166.167" y="94.9355" width="3.56481" height="3.56481" rx="1.78241" fill="#B7B7C2"/>
<rect x="174.009" y="92.083" width="3.56481" height="3.56481" rx="1.78241" fill="#B7B7C2"/>
<rect x="180.782" y="91.0137" width="7.84259" height="7.84259" rx="3.9213" stroke="#9D9DA8" stroke-width="0.712963"/>
<rect x="181.852" y="92.083" width="5.7037" height="5.7037" rx="2.85185" fill="white"/>
</g>
<rect width="62" height="3.1" rx="1.55" transform="matrix(1 0 0 -1 71 9.0498)" fill="#6A6A75"/>
</g>
<path d="M0.356481 16C0.356481 7.36032 7.36032 0.356481 16 0.356481H188C196.64 0.356481 203.644 7.36032 203.644 16V167C203.644 175.64 196.64 182.644 188 182.644H16C7.36032 182.644 0.356481 175.64 0.356481 167V16Z" stroke="#404047" stroke-width="0.712963"/>
<defs>
<filter id="filter0_d_2115_46183" x="114.371" y="-22.4343" width="121.276" height="121.276" filterUnits="userSpaceOnUse" color-interpolation-filters="sRGB">
<feFlood flood-opacity="0" result="BackgroundImageFix"/>
<feColorMatrix in="SourceAlpha" type="matrix" values="0 0 0 0 0 0 0 0 0 0 0 0 0 0 0 0 0 0 127 0" result="hardAlpha"/>
<feOffset/>
<feGaussianBlur stdDeviation="22.12"/>
<feComposite in2="hardAlpha" operator="out"/>
<feColorMatrix type="matrix" values="0 0 0 0 1 0 0 0 0 1 0 0 0 0 1 0 0 0 0.4 0"/>
<feBlend mode="normal" in2="BackgroundImageFix" result="effect1_dropShadow_2115_46183"/>
<feBlend mode="normal" in="SourceGraphic" in2="effect1_dropShadow_2115_46183" result="shape"/>
</filter>
<clipPath id="clip0_2115_46183">
<path d="M0 16C0 7.16344 7.16344 0 16 0H188C196.837 0 204 7.16344 204 16V167C204 175.837 196.837 183 188 183H16C7.16344 183 0 175.837 0 167V16Z" fill="white"/>
</clipPath>
<clipPath id="clip1_2115_46183">
<rect width="14.2593" height="14.2593" fill="white" transform="translate(167.593 32.0742)"/>
</clipPath>
</defs>
</svg>
