<svg width="25" height="16" viewBox="0 0 25 16" fill="none" xmlns="http://www.w3.org/2000/svg">
<g id="Frame 250">
<path id="Vector" d="M1.84029 16.0992H8.19082V0H1.84029C0.823896 0 0 0.823896 0 1.84029V14.2589C0 15.2753 0.823896 16.0992 1.84029 16.0992Z" fill="#464655"/>
<path id="Vector_2" d="M16.3819 0H8.19092V16.0993H16.3819V0Z" fill="#FF4B55"/>
<path id="Vector_3" d="M22.7323 16.0992C23.7487 16.0992 24.5726 15.2753 24.5726 14.2589V1.84029C24.5726 0.823943 23.7487 0 22.7323 0H16.3818V16.0992H22.7323Z" fill="#73AF00"/>
<g id="Group">
<path id="Vector_4" d="M11.6719 7.65137H11.3033V7.77423H11.6719V7.65137Z" fill="#F5F5F5"/>
<path id="Vector_5" d="M13.3916 8.87942H11.1803L11.3032 8.63379H13.2688L13.3916 8.87942Z" fill="#F5F5F5"/>
<path id="Vector_6" d="M13.3916 6.91406H11.1803L11.3032 7.15979H13.2688L13.3916 6.91406Z" fill="#F5F5F5"/>
<path id="Vector_7" d="M12.9003 7.03674H11.6718L11.9175 6.79102H12.6546L12.9003 7.03674Z" fill="#F5F5F5"/>
<path id="Vector_8" d="M11.6719 8.26562H11.3033V8.51135H11.6719V8.26562Z" fill="#F5F5F5"/>
<path id="Vector_9" d="M11.6719 7.89648H11.3033V8.14221H11.6719V7.89648Z" fill="#F5F5F5"/>
<path id="Vector_10" d="M11.6719 7.2832H11.3033V7.52893H11.6719V7.2832Z" fill="#F5F5F5"/>
<path id="Vector_11" d="M13.2689 8.26562H12.9004V8.51135H13.2689V8.26562Z" fill="#F5F5F5"/>
<path id="Vector_12" d="M13.2689 7.89648H12.9004V8.14221H13.2689V7.89648Z" fill="#F5F5F5"/>
<path id="Vector_13" d="M13.2689 7.2832H12.9004V7.52893H13.2689V7.2832Z" fill="#F5F5F5"/>
<path id="Vector_14" d="M13.2689 7.65137H12.9004V7.77423H13.2689V7.65137Z" fill="#F5F5F5"/>
<path id="Vector_15" d="M11.6717 6.2998H11.426V6.7912H11.6717V6.2998Z" fill="#F5F5F5"/>
<path id="Vector_16" d="M11.6718 6.17639H11.426V6.05353C11.426 5.98566 11.481 5.93066 11.5489 5.93066C11.6168 5.93066 11.6718 5.98566 11.6718 6.05353V6.17639Z" fill="#F5F5F5"/>
<path id="Vector_17" d="M13.1461 6.2998H12.9004V6.7912H13.1461V6.2998Z" fill="#F5F5F5"/>
<path id="Vector_18" d="M13.1461 6.17639H12.9004V6.05353C12.9004 5.98566 12.9554 5.93066 13.0233 5.93066C13.0911 5.93066 13.1461 5.98566 13.1461 6.05353V6.17639Z" fill="#F5F5F5"/>
<path id="Vector_19" d="M12.2862 7.2832C12.0148 7.2832 11.7948 7.5032 11.7948 7.7746V8.51173H12.7776V7.7746C12.7776 7.50325 12.5576 7.2832 12.2862 7.2832Z" fill="#F5F5F5"/>
<path id="Vector_20" d="M11.4726 8.0561L10.8037 7.27579C10.808 7.26316 10.8117 7.25021 10.8117 7.23614C10.8117 7.16828 10.7567 7.11328 10.6888 7.11328C10.621 7.11328 10.566 7.16828 10.566 7.23614C10.566 7.30401 10.621 7.35901 10.6888 7.35901C10.6962 7.35901 10.7027 7.35603 10.7097 7.35483L10.7789 7.4356L10.4431 8.21899L10.8117 8.58753L11.1299 7.84508L11.3793 8.13606L11.4726 8.0561ZM10.875 8.31277L10.5809 8.01872L10.7136 7.70911L11.0076 8.00317L10.875 8.31277Z" fill="#F5F5F5"/>
<path id="Vector_21" d="M13.1954 8.13606L13.4448 7.84508L13.7631 8.58753L14.1316 8.21899L13.7959 7.4356L13.8651 7.35483C13.8721 7.35603 13.8785 7.35901 13.8859 7.35901C13.9538 7.35901 14.0088 7.30401 14.0088 7.23614C14.0088 7.16828 13.9538 7.11328 13.8859 7.11328C13.818 7.11328 13.763 7.16828 13.763 7.23614C13.763 7.25025 13.7667 7.26321 13.7711 7.27579L13.1022 8.0561L13.1954 8.13606ZM13.5671 8.00322L13.8612 7.70916L13.9938 8.01876L13.6998 8.31282L13.5671 8.00322Z" fill="#F5F5F5"/>
<path id="Vector_22" d="M12.4252 6.07488C12.3867 6.06351 12.3522 6.04244 12.3304 6.00865C12.3159 5.98605 12.301 5.96037 12.2862 5.93066C12.2714 5.96037 12.2565 5.98605 12.242 6.00865C12.2202 6.04249 12.1858 6.06356 12.1472 6.07488C11.9436 6.13483 11.7948 6.32195 11.7948 6.54488C11.7948 6.58754 11.802 6.62824 11.8122 6.66774H12.7602C12.7704 6.62824 12.7776 6.58754 12.7776 6.54488C12.7776 6.3219 12.6287 6.13483 12.4252 6.07488Z" fill="#F5F5F5"/>
<path id="Vector_23" d="M9.47052 7.88294C9.46428 7.80659 9.46025 7.72965 9.46025 7.65166C9.46025 7.49386 9.47455 7.33865 9.49989 7.18637C9.53531 7.2109 9.57241 7.23787 9.61095 7.26815C9.59295 7.39413 9.58302 7.52208 9.58302 7.65166C9.58302 7.74247 9.58767 7.83226 9.59645 7.92081L9.85614 7.9988C9.83992 7.88505 9.82869 7.76977 9.82869 7.65166C9.82869 7.59292 9.8322 7.5349 9.83685 7.47707C9.97248 7.62748 10.0795 7.80918 10.0795 8.00998C10.0795 8.01512 10.4737 7.42643 9.75704 6.77637L9.7519 7.05276L9.33916 7.04844C9.30197 7.04806 9.26924 7.07445 9.26276 7.11107C9.23137 7.28764 9.21448 7.46819 9.21448 7.65166C9.21448 7.70383 9.21587 7.75566 9.21841 7.80721L9.47052 7.88294Z" fill="#F5F5F5"/>
<path id="Vector_24" d="M10.561 5.41433C10.6147 5.37291 10.6246 5.29579 10.5831 5.24204C10.5415 5.18828 10.4645 5.17859 10.4108 5.21996C9.85477 5.64935 9.47322 6.23928 9.30798 6.9001L9.56119 6.90336C9.72053 6.31852 10.0654 5.79712 10.561 5.41433Z" fill="#F5F5F5"/>
<path id="Vector_25" d="M10.3962 5.72064C10.129 5.9823 9.92678 6.29027 9.78918 6.62478C9.86516 6.68722 9.9274 6.75028 9.97909 6.81301C10.1029 6.47192 10.3001 6.15877 10.5682 5.89629C10.6166 5.84878 10.6174 5.77103 10.57 5.72261C10.5224 5.67394 10.4447 5.67312 10.3962 5.72064Z" fill="#F5F5F5"/>
<path id="Vector_26" d="M9.96955 9.26131C9.78737 8.99989 9.64814 8.70675 9.5617 8.39187L9.70453 8.44437C9.79375 8.73171 9.92914 8.99893 10.1025 9.23702L10.3737 9.1874C10.2206 8.99711 10.0947 8.78407 10.0028 8.55399L10.1631 8.61288C10.2546 8.81373 10.3717 8.9984 10.5113 9.16225L10.7934 9.11056C10.6825 8.9973 10.5854 8.86978 10.5018 8.73224L10.3384 8.40531C10.2879 8.30433 10.198 8.22869 10.0899 8.1963L9.70314 8.08006L9.61373 8.05323L9.48501 8.0145L9.22897 7.93757L9.09229 7.89648L9.17685 8.15027C9.19542 8.20599 9.233 8.2525 9.28186 8.28302C9.36004 8.65425 9.50502 9.00109 9.7042 9.31007L9.96955 9.26131Z" fill="#F5F5F5"/>
<path id="Vector_27" d="M14.8199 7.05276L14.8148 6.77637C14.0981 7.42643 14.4923 8.01512 14.4923 8.00998C14.4923 7.80918 14.5993 7.62748 14.735 7.47707C14.7396 7.5349 14.7431 7.59297 14.7431 7.65166C14.7431 7.76982 14.7319 7.8851 14.7157 7.9988L14.9754 7.92081C14.9841 7.83226 14.9888 7.74251 14.9888 7.65166C14.9888 7.52203 14.9789 7.39409 14.9609 7.26815C14.9994 7.23792 15.0366 7.2109 15.0719 7.18637C15.0973 7.33861 15.1116 7.49391 15.1116 7.65166C15.1116 7.7296 15.1075 7.80659 15.1013 7.88294L15.3533 7.80721C15.3559 7.75566 15.3572 7.70383 15.3572 7.65166C15.3572 7.46819 15.3403 7.28764 15.309 7.11107C15.3024 7.0744 15.2697 7.04806 15.2326 7.04844L14.8199 7.05276Z" fill="#F5F5F5"/>
<path id="Vector_28" d="M15.0109 6.90338L15.2641 6.90012C15.0988 6.2393 14.7174 5.64937 14.1614 5.21998C14.1076 5.17856 14.0306 5.1883 13.989 5.24206C13.9475 5.29581 13.9574 5.37298 14.0111 5.41435C14.5067 5.7971 14.8515 6.31849 15.0109 6.90338Z" fill="#F5F5F5"/>
<path id="Vector_29" d="M14.7827 6.62477C14.6451 6.29025 14.4429 5.98228 14.1757 5.72063C14.1272 5.67311 14.0496 5.67398 14.002 5.72254C13.9545 5.77102 13.9554 5.84877 14.0038 5.89623C14.2719 6.15871 14.4691 6.47181 14.5929 6.81295C14.6445 6.75027 14.7067 6.68716 14.7827 6.62477Z" fill="#F5F5F5"/>
<path id="Vector_30" d="M15.3435 7.93776L15.0874 8.01469L14.9587 8.05342L14.8693 8.08025L14.4825 8.19649C14.3744 8.22893 14.2844 8.30457 14.234 8.4055L14.0705 8.73243C13.987 8.86997 13.8899 8.99749 13.7789 9.11075L14.0611 9.16244C14.2007 8.9986 14.3178 8.81397 14.4093 8.61307L14.5696 8.55418C14.4776 8.78426 14.3518 8.99735 14.1987 9.18759L14.4699 9.23722C14.6433 8.99908 14.7786 8.7319 14.8678 8.44456L15.0107 8.39206C14.9242 8.70694 14.785 9.00013 14.6028 9.2615L14.8682 9.31007C15.0674 9.00104 15.2123 8.65425 15.2905 8.28302C15.3394 8.25245 15.377 8.20594 15.3955 8.15027L15.4801 7.89648L15.3435 7.93776Z" fill="#F5F5F5"/>
<path id="Vector_31" d="M13.5663 9.29556L13.56 9.30117C13.2025 9.57704 12.7587 9.73896 12.286 9.73896C11.8133 9.73896 11.3695 9.57704 11.012 9.30117L11.0057 9.29556C10.9593 9.24454 10.8895 9.2217 10.822 9.23533L9.58325 9.49329L9.85811 9.73421C9.93163 9.79867 10.0261 9.82871 10.12 9.82319C10.3412 10.0435 10.5952 10.2307 10.8746 10.3762L10.7941 10.5247C11.2379 10.766 11.7462 10.9032 12.2859 10.9032C12.8257 10.9032 13.3339 10.766 13.7777 10.5247L13.6973 10.3762C13.9766 10.2307 14.2307 10.0434 14.4519 9.82319C14.5458 9.82871 14.6403 9.79862 14.7138 9.73421L14.9887 9.49329L13.75 9.23533C13.6824 9.2217 13.6126 9.24449 13.5663 9.29556ZM10.9921 10.1593C10.7694 10.0434 10.5655 9.8971 10.382 9.72879L10.5013 9.67192C10.6679 9.81935 10.8511 9.94845 11.0503 10.0518L10.9921 10.1593ZM14.1898 9.72879C14.0064 9.8971 13.8025 10.0434 13.5798 10.1593L13.5216 10.0518C13.7207 9.9485 13.9039 9.8194 14.0705 9.67197L14.1898 9.72879ZM12.2859 10.1075C11.7008 10.1075 11.1647 9.89989 10.7425 9.55688L10.8651 9.49842C11.2637 9.80543 11.759 9.98464 12.2858 9.98464C12.8127 9.98464 13.308 9.80543 13.7066 9.49842L13.8291 9.55688C13.4072 9.89993 12.8711 10.1075 12.2859 10.1075Z" fill="#F5F5F5"/>
<path id="Vector_32" d="M10.9381 9.12146C10.9909 9.16609 11.0456 9.20832 11.1026 9.24758H13.4697C13.5267 9.20828 13.5814 9.16609 13.6342 9.12146L13.5147 9.00195H11.0577L10.9381 9.12146Z" fill="#F5F5F5"/>
</g>
</g>
</svg>
