<svg width="25" height="16" viewBox="0 0 25 16" fill="none" xmlns="http://www.w3.org/2000/svg">
<g id="Frame 247">
<path id="Vector" d="M22.7321 0H1.84029C0.823896 0 0 0.823896 0 1.84029V14.259C0 15.2753 0.823896 16.0993 1.84029 16.0993H22.7321C23.7485 16.0993 24.5724 15.2754 24.5724 14.259V1.84029C24.5724 0.823896 23.7485 0 22.7321 0Z" fill="#41479B"/>
<path id="Vector_2" d="M0.423682 8.04958H1.15961L5.08399 5.4784V8.04958H7.20231V5.4784L11.1266 8.04958H11.8626C12.0965 8.04958 12.2863 7.85986 12.2863 7.6259V7.28985L8.91931 5.08395H12.2862V2.96563H8.91926L12.2862 0.759729V0.423682C12.2862 0.189668 12.0965 0 11.8625 0H11.1266L7.20221 2.57118V0H5.0839V2.57118L1.28832 0.0843715C0.845157 0.223551 0.474651 0.526051 0.246348 0.921082L3.367 2.96563H0V5.08395H3.36695L0 7.28985V7.6259C0 7.85986 0.18962 8.04958 0.423682 8.04958Z" fill="#F5F5F5"/>
<g id="Group">
<path id="Vector_3" d="M12.2862 3.38834H6.77858V-0.000976562H5.50763V3.38834H0V4.65929H5.50763V8.0486H6.77858V4.65929H12.2862V3.38834Z" fill="#FF4B55"/>
<path id="Vector_4" d="M0.394775 0.700871L3.88204 2.96456H4.6602L0.700971 0.394531C0.587275 0.484278 0.484522 0.587127 0.394775 0.700871Z" fill="#FF4B55"/>
<path id="Vector_5" d="M7.98031 2.96465L12.2216 0.211489C12.1479 0.0867547 12.0179 -0.000976562 11.8624 -0.000976562H11.7707L7.20215 2.96465H7.98031Z" fill="#FF4B55"/>
<path id="Vector_6" d="M4.29414 5.08301L0.0609131 7.8309C0.13391 7.95865 0.265987 8.04864 0.423692 8.04864H0.5036L5.07234 5.08301H4.29414Z" fill="#FF4B55"/>
<path id="Vector_7" d="M12.2794 7.65822L8.31197 5.08301H7.53381L12.0391 8.00746C12.1741 7.94483 12.2666 7.81357 12.2794 7.65822Z" fill="#FF4B55"/>
</g>
<g id="Group_2">
<path id="Vector_8" d="M6.27104 10.3586L6.59082 11.4143L7.61561 11.0061C7.70306 10.9713 7.78253 11.071 7.72917 11.1484L7.10315 12.0567L8.06118 12.6034C8.14291 12.65 8.11455 12.7743 8.02068 12.7809L6.92024 12.8577L7.09019 13.9476C7.10468 14.0406 6.98979 14.0959 6.92615 14.0266L6.17995 13.2142L5.43376 14.0266C5.37012 14.0959 5.25522 14.0406 5.26972 13.9476L5.43966 12.8577L4.33923 12.7809C4.24535 12.7743 4.21694 12.65 4.29872 12.6034L5.25676 12.0567L4.63074 11.1484C4.57737 11.071 4.65685 10.9713 4.74429 11.0061L5.76908 11.4143L6.08886 10.3586C6.11627 10.2685 6.24378 10.2685 6.27104 10.3586Z" fill="#F5F5F5"/>
<path id="Vector_9" d="M18.8744 2.85336L19.0306 3.36904L19.5312 3.16968C19.5739 3.15269 19.6127 3.20135 19.5866 3.23922L19.2809 3.68291L19.7489 3.95C19.7888 3.97274 19.7749 4.0335 19.729 4.03667L19.1915 4.0742L19.2745 4.60659C19.2816 4.65204 19.2254 4.67906 19.1943 4.64517L18.8298 4.24832L18.4653 4.64517C18.4342 4.67901 18.3781 4.65199 18.3852 4.60659L18.4682 4.0742L17.9306 4.03667C17.8848 4.03346 17.8709 3.97274 17.9108 3.95L18.3788 3.68291L18.073 3.23922C18.0469 3.20135 18.0858 3.15269 18.1285 3.16968L18.6291 3.36904L18.7853 2.85336C18.7988 2.8093 18.8611 2.8093 18.8744 2.85336Z" fill="#F5F5F5"/>
<path id="Vector_10" d="M15.3911 6.8123L15.5473 7.32799L16.048 7.12863C16.0906 7.11164 16.1295 7.1603 16.1034 7.19817L15.7976 7.64186L16.2656 7.90894C16.3055 7.93169 16.2917 7.99245 16.2458 7.99562L15.7083 8.03315L15.7913 8.56554C15.7984 8.61099 15.7422 8.63801 15.7111 8.60412L15.3466 8.20727L14.9821 8.60412C14.951 8.63796 14.8949 8.61094 14.902 8.56554L14.985 8.03315L14.4475 7.99562C14.4016 7.9924 14.3877 7.93169 14.4277 7.90894L14.8956 7.64186L14.5899 7.19817C14.5638 7.1603 14.6026 7.11164 14.6453 7.12863L15.1459 7.32799L15.3021 6.8123C15.3155 6.76829 15.3778 6.76829 15.3911 6.8123Z" fill="#F5F5F5"/>
<path id="Vector_11" d="M22.1699 5.11598L22.3261 5.63166L22.8267 5.4323C22.8694 5.41531 22.9083 5.46398 22.8821 5.50184L22.5764 5.94554L23.0444 6.21262C23.0843 6.23537 23.0704 6.29613 23.0245 6.29929L22.487 6.33682L22.57 6.86921C22.5772 6.91466 22.521 6.94168 22.4899 6.9078L22.1254 6.51094L21.7609 6.9078C21.7298 6.94163 21.6737 6.91461 21.6808 6.86921L21.7638 6.33682L21.2263 6.29929C21.1804 6.29608 21.1665 6.23537 21.2065 6.21262L21.6745 5.94554L21.3687 5.50184C21.3426 5.46398 21.3815 5.41531 21.4241 5.4323L21.9247 5.63166L22.081 5.11598C22.0942 5.07202 22.1565 5.07202 22.1699 5.11598Z" fill="#F5F5F5"/>
<path id="Vector_12" d="M18.8744 11.8953L19.0306 12.411L19.5312 12.2115C19.5739 12.1946 19.6127 12.2432 19.5866 12.2811L19.2809 12.7248L19.7489 12.9919C19.7888 13.0146 19.7749 13.0754 19.729 13.0785L19.1915 13.1161L19.2745 13.6485C19.2816 13.6939 19.2254 13.7209 19.1943 13.687L18.8298 13.2902L18.4653 13.687C18.4342 13.7209 18.3781 13.6939 18.3852 13.6485L18.4682 13.1161L17.9306 13.0785C17.8848 13.0754 17.8709 13.0146 17.9108 12.9919L18.3788 12.7248L18.073 12.2811C18.0469 12.2432 18.0858 12.1946 18.1285 12.2115L18.6291 12.411L18.7853 11.8953C18.7988 11.8513 18.8611 11.8513 18.8744 11.8953Z" fill="#F5F5F5"/>
<path id="Vector_13" d="M20.0829 7.73865L19.9575 8.11472L19.5611 8.11779C19.5098 8.11822 19.4885 8.18369 19.5299 8.21416L19.8487 8.44966L19.7291 8.82761C19.7137 8.87656 19.7694 8.91702 19.8111 8.88717L20.1336 8.65666L20.4561 8.88717C20.4979 8.91697 20.5536 8.87651 20.5381 8.82761L20.4185 8.44966L20.7374 8.21416C20.7787 8.18364 20.7574 8.11822 20.7061 8.11779L20.3097 8.11472L20.1843 7.73865C20.168 7.68998 20.0992 7.68998 20.0829 7.73865Z" fill="#F5F5F5"/>
</g>
</g>
</svg>
