<svg width="25" height="16" viewBox="0 0 25 16" fill="none" xmlns="http://www.w3.org/2000/svg">
<g id="Flag" clip-path="url(#clip0_448_9514)">
<path id="Vector" d="M22.555 0.0136719H1.82595C0.817476 0.0136719 0 0.831148 0 1.83962V5.33824H24.381V1.83962C24.381 0.831148 23.5635 0.0136719 22.555 0.0136719Z" fill="#FAB446"/>
<path id="Vector_2" d="M0 14.1617C0 15.1701 0.817476 15.9877 1.82595 15.9877H22.555C23.5634 15.9877 24.381 15.1702 24.381 14.1617V10.6631H0V14.1617Z" fill="#73AF00"/>
<path id="Vector_3" d="M24.381 5.33691H0V10.6612H24.381V5.33691Z" fill="#F5F5F5"/>
<g id="Group">
<path id="Vector_4" d="M12.1907 10.2601C10.9448 10.2601 9.93127 9.24654 9.93127 8.00064C9.93127 6.75473 10.9448 5.74121 12.1907 5.74121C13.4366 5.74121 14.4501 6.75473 14.4501 8.00064C14.4501 9.24654 13.4366 10.2601 12.1907 10.2601ZM12.1907 6.16154C11.1765 6.16154 10.3516 6.98645 10.3516 8.00064C10.3516 9.01483 11.1765 9.83974 12.1907 9.83974C13.2049 9.83974 14.0298 9.01483 14.0298 8.00064C14.0298 6.98645 13.2049 6.16154 12.1907 6.16154Z" fill="#41479B"/>
<path id="Vector_5" d="M12.1903 8.2574C12.3318 8.2574 12.4465 8.14272 12.4465 8.00126C12.4465 7.8598 12.3318 7.74512 12.1903 7.74512C12.0489 7.74512 11.9342 7.8598 11.9342 8.00126C11.9342 8.14272 12.0489 8.2574 12.1903 8.2574Z" fill="#41479B"/>
<path id="Vector_6" d="M12.1906 8.03906L11.5396 8.10477L10.1414 8.03906V7.9622L11.5396 7.89648L12.1906 7.9622V8.03906Z" fill="#41479B"/>
<path id="Vector_7" d="M12.1904 8.03906L12.8414 8.10477L14.2397 8.03906V7.9622L12.8414 7.89648L12.1904 7.9622V8.03906Z" fill="#41479B"/>
<path id="Vector_8" d="M12.1523 8.00139L12.0865 7.35043L12.1523 5.95215H12.2291L12.2948 7.35043L12.2291 8.00139H12.1523Z" fill="#41479B"/>
<path id="Vector_9" d="M12.1523 8.00098L12.0865 8.65193L12.1523 10.0502H12.2291L12.2948 8.65193L12.2291 8.00098H12.1523Z" fill="#41479B"/>
<path id="Vector_10" d="M12.1633 8.02775L11.6565 7.61399L10.7142 6.57875L10.7686 6.52441L11.8038 7.4667L12.2176 7.97346L12.1633 8.02775Z" fill="#41479B"/>
<path id="Vector_11" d="M12.1633 8.02792L12.5771 8.53468L13.6123 9.47697L13.6667 9.42263L12.7244 8.38739L12.2176 7.97363L12.1633 8.02792Z" fill="#41479B"/>
<path id="Vector_12" d="M12.1633 7.97346L12.5771 7.4667L13.6123 6.52441L13.6667 6.57875L12.7244 7.61399L12.2176 8.02775L12.1633 7.97346Z" fill="#41479B"/>
<path id="Vector_13" d="M12.1633 7.97363L11.6565 8.38739L10.7142 9.42263L10.7686 9.47697L11.8038 8.53468L12.2176 8.02792L12.1633 7.97363Z" fill="#41479B"/>
<path id="Vector_14" d="M12.2053 8.03589L11.629 8.3457L10.312 8.82008L10.2826 8.74908L11.5493 8.15327L12.1758 7.96484L12.2053 8.03589Z" fill="#41479B"/>
<path id="Vector_15" d="M12.2057 8.0359L12.8322 7.84747L14.0989 7.25166L14.0695 7.18066L12.7526 7.65505L12.1763 7.96485L12.2057 8.0359Z" fill="#41479B"/>
<path id="Vector_16" d="M12.1553 8.01544L11.8455 7.43915L11.3711 6.1222L11.4421 6.09277L12.0379 7.35949L12.2263 7.98601L12.1553 8.01544Z" fill="#41479B"/>
<path id="Vector_17" d="M12.1549 8.01576L12.3433 8.64228L12.9391 9.90899L13.0101 9.87957L12.5358 8.56261L12.226 7.98633L12.1549 8.01576Z" fill="#41479B"/>
<path id="Vector_18" d="M12.1758 8.0359L11.5493 7.84747L10.2826 7.25166L10.312 7.18066L11.629 7.65505L12.2053 7.96485L12.1758 8.0359Z" fill="#41479B"/>
<path id="Vector_19" d="M12.1763 8.03589L12.7526 8.3457L14.0695 8.82008L14.0989 8.74908L12.8322 8.15327L12.2057 7.96484L12.1763 8.03589Z" fill="#41479B"/>
<path id="Vector_20" d="M12.1549 7.98601L12.3433 7.35949L12.9391 6.09277L13.0101 6.1222L12.5358 7.43915L12.226 8.01544L12.1549 7.98601Z" fill="#41479B"/>
<path id="Vector_21" d="M12.1553 7.98633L11.8455 8.56261L11.3711 9.87957L11.4421 9.90899L12.0379 8.64228L12.2263 8.01576L12.1553 7.98633Z" fill="#41479B"/>
</g>
<path id="Vector_22" d="M12.1903 8.34534C12.3811 8.34534 12.5358 8.19065 12.5358 7.99982C12.5358 7.80899 12.3811 7.6543 12.1903 7.6543C11.9994 7.6543 11.8447 7.80899 11.8447 7.99982C11.8447 8.19065 11.9994 8.34534 12.1903 8.34534Z" fill="#F5F5F5"/>
<path id="Vector_23" d="M12.1905 8.20735C12.3049 8.20735 12.3977 8.11459 12.3977 8.00016C12.3977 7.88573 12.3049 7.79297 12.1905 7.79297C12.076 7.79297 11.9833 7.88573 11.9833 8.00016C11.9833 8.11459 12.076 8.20735 12.1905 8.20735Z" fill="#41479B"/>
</g>
<defs>
<clipPath id="clip0_448_9514">
<rect width="24.381" height="16" fill="white"/>
</clipPath>
</defs>
</svg>
