<svg width="25" height="16" viewBox="0 0 25 16" fill="none" xmlns="http://www.w3.org/2000/svg">
<g id="Frame 246">
<path id="Vector" d="M22.7321 16.0992H1.84029C0.823896 16.0992 0 15.2753 0 14.2589V1.84029C0 0.823944 0.823896 0 1.84029 0H22.7321C23.7485 0 24.5724 0.823896 24.5724 1.84029V14.2589C24.5724 15.2753 23.7485 16.0992 22.7321 16.0992Z" fill="#41479B"/>
<path id="Vector_2" d="M0.423682 8.04958H1.15961L5.08399 5.4784V8.04958H7.20231V5.4784L11.1266 8.04958H11.8626C12.0966 8.04958 12.2863 7.85986 12.2863 7.6259V7.28985L8.91931 5.08395H12.2862V2.96563H8.91926L12.2862 0.759729V0.423682C12.2862 0.189716 12.0966 0 11.8625 0H11.1266L7.20221 2.57118V0H5.0839V2.57118L1.28832 0.0843715C0.845157 0.223551 0.474651 0.526051 0.246348 0.921082L3.367 2.96563H0V5.08395H3.36695L0 7.28985V7.6259C0 7.85986 0.189716 8.04958 0.423682 8.04958Z" fill="#F5F5F5"/>
<g id="Group">
<path id="Vector_3" d="M12.2862 3.38834H6.77858V-0.000976562H5.50763V3.38834H0V4.65929H5.50763V8.0486H6.77858V4.65929H12.2862V3.38834Z" fill="#FF4B55"/>
<path id="Vector_4" d="M0.394775 0.700871L3.88204 2.96456H4.6602L0.700971 0.394531C0.587275 0.484278 0.484522 0.587127 0.394775 0.700871Z" fill="#FF4B55"/>
<path id="Vector_5" d="M7.98031 2.96465L12.2216 0.211489C12.1479 0.0867547 12.0179 -0.000976562 11.8624 -0.000976562H11.7708L7.20215 2.96465H7.98031Z" fill="#FF4B55"/>
<path id="Vector_6" d="M4.29414 5.08301L0.0609131 7.83089C0.13391 7.95865 0.266035 8.04864 0.423692 8.04864H0.5036L5.07234 5.08301H4.29414Z" fill="#FF4B55"/>
<path id="Vector_7" d="M12.2794 7.65822L8.31197 5.08301H7.53381L12.0391 8.00746C12.1741 7.94483 12.2666 7.81357 12.2794 7.65822Z" fill="#FF4B55"/>
<path id="Vector_8" d="M18.9802 13.4287C18.9631 13.4287 18.9457 13.4233 18.931 13.413L18.4296 13.0547L17.9281 13.413C17.9134 13.4233 17.896 13.4287 17.8789 13.4287C17.8613 13.4287 17.8439 13.4233 17.829 13.4126C17.7997 13.3911 17.787 13.353 17.798 13.3183L17.984 12.7307L17.4883 12.365C17.459 12.3431 17.4468 12.3055 17.458 12.2707C17.4693 12.236 17.5014 12.2124 17.538 12.212L18.1543 12.207L18.3492 11.6224C18.3608 11.5881 18.3932 11.5645 18.4297 11.5645C18.4661 11.5645 18.4986 11.588 18.5102 11.6224L18.7051 12.207L19.3213 12.212C19.358 12.2124 19.39 12.236 19.4014 12.2707C19.4126 12.3055 19.4003 12.3431 19.371 12.365L18.8754 12.7307L19.0614 13.3183C19.0723 13.353 19.0597 13.3911 19.0303 13.4126C19.0152 13.4233 18.9977 13.4287 18.9802 13.4287Z" fill="#FF4B55"/>
</g>
<path id="Vector_9" d="M18.4291 11.6509L18.6432 12.293L19.32 12.2982L18.7756 12.7002L18.9797 13.3455L18.4291 12.952L17.8785 13.3456L18.0827 12.7003L17.5382 12.2983L18.215 12.2931L18.4291 11.6509ZM18.4291 11.4814C18.3562 11.4814 18.2915 11.5281 18.2684 11.5973L18.0926 12.1245L17.5369 12.1288C17.464 12.1293 17.3996 12.1765 17.3771 12.2459C17.3545 12.3153 17.3789 12.3912 17.4376 12.4346L17.8846 12.7647L17.717 13.2945C17.695 13.364 17.72 13.4398 17.7789 13.4827C17.8086 13.5043 17.8436 13.5151 17.8786 13.5151C17.9131 13.5151 17.9476 13.5045 17.9771 13.4834L18.4292 13.1603L18.8813 13.4834C18.9108 13.5044 18.9453 13.5151 18.9799 13.5151C19.0148 13.5151 19.0498 13.5043 19.0795 13.4827C19.1385 13.4398 19.1634 13.364 19.1415 13.2945L18.9739 12.7647L19.4209 12.4346C19.4796 12.3912 19.5039 12.3153 19.4813 12.2459C19.4588 12.1765 19.3944 12.1293 19.3215 12.1288L18.7659 12.1245L18.5901 11.5973C18.5668 11.5281 18.502 11.4814 18.4291 11.4814Z" fill="#F5F5F5"/>
<path id="Vector_10" d="M18.9802 6.59959C18.9629 6.59959 18.9457 6.59417 18.931 6.58385L18.4296 6.2252L17.9281 6.5839C17.9134 6.59422 17.896 6.59964 17.8789 6.59964C17.8615 6.59964 17.8439 6.59422 17.829 6.58347C17.7997 6.56196 17.787 6.52391 17.798 6.48916L17.984 5.90163L17.4883 5.53549C17.459 5.51356 17.4468 5.4755 17.458 5.44118C17.4693 5.40644 17.5016 5.38283 17.538 5.38244L18.1543 5.37788L18.3492 4.79328C18.3608 4.75896 18.3932 4.73535 18.4297 4.73535C18.4661 4.73535 18.4986 4.75892 18.5102 4.79328L18.7051 5.37788L19.3213 5.38244C19.3578 5.38287 19.39 5.40644 19.4014 5.44118C19.4126 5.4755 19.4003 5.51356 19.371 5.53549L18.8754 5.90163L19.0614 6.48916C19.0723 6.52391 19.0597 6.56196 19.0303 6.58347C19.0152 6.59422 18.9977 6.59959 18.9802 6.59959Z" fill="#FF4B55"/>
<path id="Vector_11" d="M18.4291 4.81985L18.6432 5.4619L19.32 5.46714L18.7756 5.86917L18.9797 6.51449L18.4291 6.1209L17.8785 6.51449L18.0827 5.86917L17.5382 5.46714L18.215 5.4619L18.4291 4.81985ZM18.4291 4.65039C18.3562 4.65039 18.2915 4.69704 18.2684 4.76625L18.0926 5.2934L17.5369 5.29772C17.464 5.29825 17.3996 5.34542 17.3771 5.41482C17.3545 5.48422 17.3789 5.56019 17.4376 5.60353L17.8846 5.93363L17.717 6.46342C17.695 6.53296 17.72 6.60879 17.7789 6.65165C17.8086 6.6732 17.8436 6.684 17.8786 6.684C17.9131 6.684 17.9476 6.67344 17.9771 6.65237L18.4292 6.32923L18.8813 6.65237C18.9108 6.67339 18.9453 6.684 18.9799 6.684C19.0148 6.684 19.0498 6.6732 19.0795 6.65165C19.1385 6.60874 19.1634 6.53296 19.1415 6.46342L18.9739 5.93363L19.4209 5.60353C19.4796 5.56019 19.5039 5.48422 19.4813 5.41482C19.4588 5.34542 19.3944 5.29825 19.3215 5.29772L18.7659 5.2934L18.5901 4.76625C18.5668 4.69704 18.502 4.65039 18.4291 4.65039Z" fill="#F5F5F5"/>
<path id="Vector_12" d="M21.9459 8.7178C21.9285 8.7178 21.9114 8.71238 21.8967 8.70206L21.3953 8.34336L20.8938 8.70206C20.8791 8.71238 20.8617 8.7178 20.8446 8.7178C20.8272 8.7178 20.8096 8.71238 20.7947 8.70163C20.7654 8.68013 20.7527 8.64207 20.7637 8.60732L20.9497 8.01979L20.454 7.65365C20.4247 7.63172 20.4125 7.59366 20.4237 7.55935C20.435 7.5246 20.4673 7.50099 20.5037 7.50061L21.12 7.49605L21.3149 6.91144C21.3265 6.87713 21.3589 6.85352 21.3954 6.85352C21.4318 6.85352 21.4643 6.87708 21.4759 6.91144L21.6708 7.49605L22.287 7.50061C22.3235 7.50104 22.3557 7.5246 22.3671 7.55935C22.3783 7.59366 22.366 7.63172 22.3367 7.65365L21.8411 8.01979L22.0271 8.60732C22.038 8.64207 22.0254 8.68013 21.996 8.70163C21.9809 8.71238 21.9633 8.7178 21.9459 8.7178Z" fill="#FF4B55"/>
<path id="Vector_13" d="M21.3948 6.93802L21.6089 7.58007L22.2857 7.5853L21.7413 7.98734L21.9454 8.63265L21.3948 8.23906L20.8442 8.63265L21.0483 7.98738L20.5039 7.58535L21.1806 7.58012L21.3948 6.93802ZM21.3948 6.76855C21.3219 6.76855 21.2571 6.8152 21.2341 6.88441L21.0583 7.41156L20.5026 7.41588C20.4297 7.41641 20.3653 7.46359 20.3428 7.53299C20.3202 7.60238 20.3446 7.67836 20.4033 7.7217L20.8503 8.05179L20.6827 8.58159C20.6607 8.65113 20.6856 8.72696 20.7446 8.76981C20.7743 8.79136 20.8093 8.80216 20.8443 8.80216C20.8788 8.80216 20.9133 8.7916 20.9428 8.77053L21.3949 8.4474L21.847 8.77053C21.8765 8.79156 21.9111 8.80216 21.9456 8.80216C21.9805 8.80216 22.0155 8.79136 22.0452 8.76981C22.1042 8.72691 22.1291 8.65113 22.1072 8.58159L21.9396 8.05179L22.3866 7.7217C22.4453 7.67836 22.4696 7.60238 22.447 7.53299C22.4245 7.46359 22.3601 7.41641 22.2872 7.41588L21.7316 7.41156L21.5558 6.88441C21.5325 6.8152 21.4678 6.76855 21.3948 6.76855Z" fill="#F5F5F5"/>
<path id="Vector_14" d="M16.0144 9.56546C15.997 9.56546 15.9799 9.56004 15.9651 9.54972L15.4638 9.19102L14.9623 9.54972C14.9476 9.56004 14.9302 9.56546 14.913 9.56546C14.8957 9.56546 14.8781 9.56004 14.8632 9.54929C14.8338 9.52779 14.8212 9.48973 14.8322 9.45498L15.0181 8.86745L14.5225 8.50131C14.4931 8.47938 14.481 8.44132 14.4921 8.407C14.5035 8.37226 14.5358 8.34865 14.5722 8.34826L15.1885 8.3437L15.3834 7.7591C15.395 7.72478 15.4274 7.70117 15.4639 7.70117C15.5003 7.70117 15.5328 7.72474 15.5443 7.7591L15.7392 8.3437L16.3555 8.34826C16.3919 8.34869 16.4242 8.37226 16.4356 8.407C16.4467 8.44132 16.4345 8.47938 16.4052 8.50131L15.9096 8.86745L16.0955 9.45498C16.1065 9.48973 16.0939 9.52779 16.0645 9.54929C16.0494 9.56008 16.0318 9.56546 16.0144 9.56546Z" fill="#FF4B55"/>
<path id="Vector_15" d="M15.4638 7.78665L15.6779 8.4287L16.3547 8.43393L15.8102 8.83597L16.0144 9.48128L15.4638 9.08769L14.9131 9.48128L15.1173 8.83597L14.5728 8.43393L15.2496 8.4287L15.4638 7.78665ZM15.4638 7.61719C15.3909 7.61719 15.3261 7.66384 15.303 7.73304L15.1272 8.2602L14.5716 8.26452C14.4987 8.26505 14.4343 8.31222 14.4118 8.38162C14.3892 8.45102 14.4136 8.52699 14.4722 8.57033L14.9192 8.90042L14.7516 9.43022C14.7297 9.49976 14.7546 9.57559 14.8136 9.61845C14.8433 9.64 14.8782 9.65079 14.9132 9.65079C14.9477 9.65079 14.9823 9.64024 15.0118 9.61917L15.4639 9.29603L15.916 9.61917C15.9455 9.64019 15.98 9.65079 16.0145 9.65079C16.0495 9.65079 16.0845 9.64 16.1142 9.61845C16.1731 9.57554 16.1981 9.49976 16.1761 9.43022L16.0085 8.90042L16.4555 8.57033C16.5142 8.52699 16.5386 8.45102 16.516 8.38162C16.4935 8.31222 16.4291 8.26505 16.3562 8.26452L15.8005 8.2602L15.6247 7.73304C15.6015 7.66384 15.5367 7.61719 15.4638 7.61719Z" fill="#F5F5F5"/>
</g>
</svg>
