<svg width="25" height="16" viewBox="0 0 25 16" fill="none" xmlns="http://www.w3.org/2000/svg">
<g id="Frame 248">
<path id="Vector" d="M22.732 0H6.35486V16.0992H22.732C23.7484 16.0992 24.5723 15.2753 24.5723 14.2589V1.84029C24.5723 0.823896 23.7484 0 22.732 0Z" fill="#73AF00"/>
<g id="Group">
<path id="Vector_2" d="M1.84029 0C0.823896 0 0 0.823896 0 1.84029V14.259C0 15.2753 0.823896 16.0993 1.84029 16.0993H6.35495V0H1.84029Z" fill="#F5F5F5"/>
<path id="Vector_3" d="M19.7757 10.267C17.8257 12.0042 14.8405 11.8257 13.1068 9.87217C11.3765 7.92226 11.5516 4.92841 13.5016 3.19135C13.5045 3.1888 13.5073 3.18631 13.5102 3.18381C13.5562 3.14331 13.5117 3.06973 13.4545 3.092C11.5314 3.84088 10.168 5.71141 10.168 7.90157C10.168 10.7545 12.475 13.065 15.3211 13.065C17.2899 13.065 18.9961 11.9572 19.8628 10.3309C19.8917 10.2766 19.824 10.2238 19.7781 10.2648C19.7774 10.2655 19.7765 10.2662 19.7757 10.267Z" fill="#F5F5F5"/>
<path id="Vector_4" d="M17.2675 4.04729L17.9451 4.80755L18.8839 4.41247C19.0054 4.36131 19.1221 4.4943 19.0556 4.60814L18.5419 5.48761L19.2077 6.25828C19.2939 6.35806 19.2035 6.51015 19.0747 6.48207L18.0796 6.26534L17.5523 7.1367C17.4841 7.24948 17.3115 7.21051 17.2983 7.0793L17.197 6.06588L16.2053 5.83369C16.077 5.8036 16.0607 5.62746 16.1814 5.57443L17.1139 5.16491L17.0283 4.15009C17.0172 4.01869 17.1798 3.94886 17.2675 4.04729Z" fill="#F5F5F5"/>
</g>
</g>
</svg>
