<svg width="25" height="16" viewBox="0 0 25 16" fill="none" xmlns="http://www.w3.org/2000/svg">
<g id="Frame 245">
<path id="Vector" d="M0 2.93555V12.9989L6.70891 7.96724L0 2.93555Z" fill="#464655"/>
<path id="Vector_2" d="M22.4983 0H3.35425L10.9018 5.8703H24.3196V1.82138C24.3196 0.815428 23.5042 0 22.4983 0Z" fill="#FF4B55"/>
<path id="Vector_3" d="M3.35425 15.9328H22.4983C23.5042 15.9328 24.3196 15.1174 24.3196 14.1114V10.0625H10.9018L3.35425 15.9328Z" fill="#41479B"/>
<path id="Vector_4" d="M2.70221 0H1.82138C0.815428 0 0 0.815428 0 1.82138V2.13925L7.36122 7.96684L0 13.7946V14.1123C0 15.1182 0.815428 15.9337 1.82138 15.9337H2.70197L10.6469 9.64406H24.3199V6.28963H10.647L2.70221 0Z" fill="#73AF00"/>
<path id="Vector_5" d="M4.05323 0H2.70215L10.6469 6.28963H24.3198V5.45097H10.9387L4.05323 0Z" fill="#F5F5F5"/>
<path id="Vector_6" d="M0 2.13965V3.20925L6.01014 7.96725L0 12.7254V13.795L7.36122 7.96725L0 2.13965Z" fill="#FFE15A"/>
<path id="Vector_7" d="M10.6471 9.64453L2.70215 15.9342H4.05328L10.9388 10.4832H24.32V9.64453H10.6471Z" fill="#F5F5F5"/>
</g>
</svg>
