<svg width="25" height="16" viewBox="0 0 25 16" fill="none" xmlns="http://www.w3.org/2000/svg">
<g id="Layer_2_00000007410237983322590010000010718388724091345308_">
<g id="Flag_rectangle_copy_3">
<g id="Srilanka">
<path id="Vector" d="M1.90525 0H22.4767C23.5291 0 24.3814 0.852381 24.3814 1.90476V14.0952C24.3814 15.1476 23.5291 16 22.4767 16H1.90525C0.852869 16 0.000488281 15.1476 0.000488281 14.0952V1.90476C0.000488281 0.852381 0.852869 0 1.90525 0Z" fill="#FFBE29"/>
<path id="Vector_2" d="M9.35291 1.23828H23.1434V14.7621H9.35291V1.23828Z" fill="#8D153A"/>
<path id="Vector_3" d="M1.23865 1.23828H4.6577V14.7621H1.23865V1.23828Z" fill="#00534E"/>
<path id="Vector_4" d="M4.65784 1.23828H8.07688V14.7621H4.65784V1.23828Z" fill="#EB7400"/>
<g id="Group">
<path id="Vector_5" d="M22.3105 3.06798C22.0296 3.33464 20.9581 3.38226 20.9581 3.38226C20.9581 3.38226 21.0724 2.3156 21.3534 2.05369C21.6343 1.78702 22.0772 1.80131 22.3391 2.08226C22.6057 2.36321 22.5915 2.80131 22.3105 3.06798Z" fill="#FFBE29"/>
<path id="Vector_6" d="M22.3105 12.9344C22.0296 12.6725 20.9581 12.6201 20.9581 12.6201C20.9581 12.6201 21.0724 13.6868 21.3534 13.9535C21.6343 14.2201 22.0772 14.2058 22.3391 13.9249C22.601 13.6439 22.5915 13.2011 22.3105 12.9344Z" fill="#FFBE29"/>
<path id="Vector_7" d="M10.1675 3.06798C10.4484 3.33464 11.5198 3.38226 11.5198 3.38226C11.5198 3.38226 11.4056 2.3156 11.1246 2.05369C10.8437 1.78702 10.4008 1.80131 10.1389 2.08226C9.87223 2.36321 9.88651 2.80131 10.1675 3.06798Z" fill="#FFBE29"/>
<path id="Vector_8" d="M10.1678 12.9344C10.4488 12.6725 11.5202 12.6201 11.5202 12.6201C11.5202 12.6201 11.4059 13.6868 11.125 13.9535C10.844 14.2201 10.4011 14.2058 10.1392 13.9249C9.87734 13.6392 9.88686 13.2011 10.1678 12.9344Z" fill="#FFBE29"/>
<path id="Vector_9" d="M20.9676 5.46809C20.8771 5.2919 20.6914 5.14904 20.5152 5.03C20.4057 4.95857 20.2295 4.9919 20.1199 4.92047C18.9533 4.14904 17.7961 3.80142 16.6295 4.91095C16.2199 4.83 15.8152 4.70142 15.4057 4.67761C15.0533 4.65857 14.4771 4.64904 14.3866 4.83476C14.0438 5.50619 13.7628 5.11571 13.4342 4.90619C13.3771 4.86809 13.2961 4.87761 13.2485 4.92523C13.1771 4.99666 13.0961 5.07285 12.9866 5.17285C12.9247 5.23476 12.9199 5.32999 12.9819 5.3919C12.9866 5.39666 12.9866 5.39666 12.9914 5.40142C13.2628 5.63952 13.5057 5.85857 13.7485 6.06809C13.8057 6.12047 13.8914 6.12047 13.9485 6.06809L14.0057 6.02047C14.0342 6.1538 14.0676 6.2919 14.1009 6.44904C14.1199 6.52999 14.0676 6.61571 13.9866 6.63476C13.958 6.63952 13.9247 6.63952 13.8961 6.62999L13.1723 6.34904C13.0914 6.31571 13.0057 6.3538 12.9723 6.43476C12.958 6.47285 12.958 6.51095 12.9723 6.54428C13.158 6.97285 13.5914 7.00619 13.8961 7.13952C13.9723 7.17285 14.0104 7.26333 13.9771 7.34428C13.9723 7.3538 13.9676 7.36333 13.9628 7.36809C13.6866 7.77761 13.4199 8.17285 13.1485 8.56809C13.1009 8.63952 13.0057 8.65857 12.9342 8.61095C12.9199 8.60142 12.9104 8.5919 12.9009 8.58238C12.6723 8.30142 12.4438 8.00142 12.3819 7.64428L12.6819 4.48238C12.6866 4.41095 12.639 4.3538 12.5676 4.34428C12.558 4.34428 12.5485 4.34428 12.539 4.34428C12.339 4.36809 12.0009 4.4919 11.8819 5.00142L11.6961 7.92523C11.6104 8.07285 11.5152 8.22047 11.5247 8.36809C11.5438 8.58714 11.5771 8.80142 11.6295 9.01571L11.7438 9.61095C11.6247 9.63952 11.5438 9.74428 11.5438 9.86809V10.2538C11.5438 10.4014 11.6628 10.5157 11.8057 10.5157H12.1009C12.2485 10.5157 12.3628 10.3967 12.3628 10.2538V9.86809C12.3628 9.74904 12.2866 9.64904 12.1723 9.61571L12.2199 9.26809C12.2866 9.23 12.3723 9.24904 12.4199 9.30619C12.6771 9.63952 12.9295 9.97285 13.1866 10.3062C13.239 10.3729 13.3342 10.3871 13.4057 10.3348C13.4104 10.3348 13.4104 10.33 13.4104 10.33L13.4533 10.2919L13.9485 9.87285C14.0152 9.81571 14.1104 9.82523 14.1676 9.8919C14.1771 9.90142 14.1819 9.91095 14.1866 9.92047C14.3819 10.3062 14.558 10.6538 14.739 11.0109C14.7771 11.0871 14.7485 11.1776 14.6723 11.2157C14.658 11.2205 14.6485 11.2252 14.6342 11.23C13.8819 11.3824 13.7438 11.43 13.7199 11.649C13.7152 11.7348 13.7771 11.8062 13.8628 11.8157H13.8866L14.8009 11.7395C14.8009 11.7395 15.3199 11.7586 15.4247 10.9443C15.4199 10.93 15.4152 10.9109 15.4104 10.8967C15.3914 10.849 15.3866 10.7967 15.3961 10.7443C15.439 10.4871 15.4438 10.149 15.5819 10.0729C16.1723 9.75857 16.7676 9.33952 17.4866 9.52523C17.5485 9.53952 17.5914 9.58714 17.6057 9.64904C17.6771 10.1729 18.239 10.7395 17.9104 11.2157C17.858 11.2967 17.8485 11.4014 17.8866 11.4919L17.9199 11.5776C17.9676 11.6919 18.0819 11.7633 18.2057 11.7586L19.9247 11.6776C19.9866 11.6729 20.0438 11.63 20.0628 11.5729C20.1533 11.2967 20.2104 11.1395 20.2485 10.9729C20.2819 10.8252 20.3438 10.5919 20.2771 10.5348C19.7818 10.1109 19.9961 9.63952 20.1723 9.19666C20.3914 8.63476 20.4771 8.0919 20.2866 7.73476C20.2628 7.6919 20.258 7.63476 20.2819 7.5919C20.5057 7.17761 20.8104 6.82523 20.7342 6.63476C20.6009 6.33 20.2057 6.07285 19.8628 5.93952C19.5914 5.83476 19.2342 5.9538 18.9152 5.94904C18.5628 5.94428 18.2152 5.92047 17.8628 5.87761C17.4676 5.82523 17.2866 5.52047 17.3914 5.1919C17.4485 5.01095 17.7819 4.82523 18.0009 4.80619C18.8914 4.72999 19.6009 5.11571 20.2057 5.75857C20.3247 5.88714 20.6104 5.91095 20.8104 5.8919C20.8723 5.86809 21.0152 5.55857 20.9676 5.46809ZM19.458 11.2062L19.4533 11.2109C19.2295 11.3205 18.9628 11.2252 18.858 11.0014C18.8295 10.9395 18.8152 10.8776 18.8152 10.8109V10.3871C18.8152 10.3205 18.8628 10.2586 18.9247 10.2395C18.9914 10.2205 19.0628 10.249 19.0961 10.3062C19.2295 10.5205 19.3628 10.7395 19.5199 10.9871C19.5628 11.0586 19.539 11.1538 19.4676 11.2014C19.4628 11.2062 19.4628 11.2062 19.458 11.2062ZM18.9771 6.49666C19.3342 6.42999 19.7199 6.30619 20.0961 6.64428C20.158 6.70142 20.1628 6.80142 20.1057 6.86333C20.0819 6.88714 20.0533 6.90142 20.0247 6.91095C19.1152 7.09666 18.2723 7.29666 17.4199 7.40142C16.7533 7.48714 16.539 7.22999 16.558 6.56809C16.5723 6.02047 16.6199 5.47761 16.6485 4.93C16.6866 4.99666 16.7199 5.06333 16.7485 5.13476C17.0866 6.33 17.758 6.72999 18.9771 6.49666Z" fill="#FFBE29"/>
</g>
</g>
</g>
</g>
</svg>
